M48
;Layer_Color=9474304
;FILE_FORMAT=4:4
METRIC
;TYPE=PLATED
T01F00S00C0.6350
T02F00S00C0.6500
T03F00S00C0.7112
T04F00S00C1.1000
T05F00S00C1.1100
T06F00S00C1.3000
T07F00S00C1.3950
T08F00S00C10.0000
%
T01
X01742440Y00848360
Y00873760
Y00899160
Y00924560
Y00949960
Y00975360
Y01000760
Y01026160
Y01051560
Y01076960
X01767840
Y01051560
Y01026160
Y01000760
Y00975360
Y00949960
Y00924560
Y00899160
Y00873760
Y00848360
X01764030Y01428750
X01789430
X01814830
Y01454150
X01840230
X01865630
X01891030
X01916430
X01941830
X01967230
Y01428750
X01941830
X01916430
X01891030
X01865630
X01840230
X01789430Y01454150
X01764030
X01738630
Y01428750
X01633220Y01436370
X01607820
Y01461770
X01633220
X01582420
Y01436370
X01557020
X01531620
X01506220
X01480820
X01455420
X01430020
X01404620
Y01461770
X01430020
X01455420
X01480820
X01506220
X01531620
X01557020
X01289050Y01457960
Y01432560
X01263650
X01238250
X01212850
Y01457960
X01238250
X01263650
X01187450
Y01432560
X01162050
X01136650
X01111250
X01085850
X01060450
Y01457960
X01085850
X01111250
X01136650
X01162050
X00916940Y01454150
Y01428750
X00891540
X00866140
X00840740
X00815340
Y01454150
X00840740
X00866140
X00891540
X00789940
Y01428750
X00764540
X00739140
X00713740
X00688340
Y01454150
X00713740
X00739140
X00764540
X00557530
Y01428750
X00532130
X00506730
X00481330
X00455930
X00430530
X00405130
Y01454150
X00430530
X00455930
X00481330
X00506730
X00532130
X00379730
Y01428750
X00354330
X00328930
Y01454150
X00354330
T02
X01024890Y00450850
X01101090
Y00603250
X01024890
T03
X01646428Y00542346
X01798320Y00635000
X01721612Y00761746
X01903476Y00488950
X01433068Y00705866
X01377950Y00687070
X01110742Y00705866
X00988060Y00707390
X00967740Y00751586
X01024890Y00501720
X00606806Y00535940
X00524256Y00784098
X00478536Y00768604
X00695960Y00786130
X00396240Y00787654
X00383540Y00808482
X00378460Y00953770
X00414020Y00951230
X00570992Y00901192
X00605536Y00930910
X00671068Y00822960
X00730250Y00826770
X00759206Y00976630
X00527304Y00801878
X00832866Y01002030
X01008126Y01027938
X01021334Y00963676
X01081024Y01014730
X01112520Y01082294
X01044702Y01090930
X01001268Y01125220
X00964692Y01141730
X01176020Y01041488
X01186942Y01006204
X01163320Y00983852
X01153160Y00926864
X01184910Y00923703
X01212735Y00919365
X01200703Y00900358
X01222756Y00890198
X01271270Y00882650
X01301750Y00860260
X01325626Y00802132
X01367790Y00922020
X01362300Y00951230
X01360932Y00999236
X01328166Y01000976
X01300480Y00995680
X01246160Y00988314
X01200150Y00942340
X01248410Y01095756
X01220470Y01161542
X01388872Y01155954
X01575816Y01123950
X01573022Y00991108
X01558290Y00847090
X01493774Y00906272
X01672336Y00976884
X01727962Y00962660
Y01016254
X01822450Y00973074
X01800352Y00883802
X01689354Y01244092
X01721612Y01387602
X01700276Y01460246
X01506220Y01487170
X01564132Y01306068
X00989076Y01398270
X00926592Y01478026
X00825508Y01470406
X00649675Y01481582
X00581152Y01545082
X00406400Y01400810
X00284226Y01390650
T04
X01052830Y00913800
Y00939800
Y00964800
X01240790Y01182930
X01859280Y01153160
Y01115060
Y01076960
Y01038860
Y01000760
Y00962660
Y00924560
Y00886460
X01973280Y00905460
Y00943560
Y00981660
Y01019760
Y01057860
Y01095960
Y01134060
Y01172160
Y01210260
Y01248360
X01859280Y01229360
Y01191260
X01240790Y01217930
X00976860Y01229080
Y01194080
T05
X00632460Y00608330
Y00633730
X00657860
X00632460Y00659130
Y00684530
Y00709930
Y00735330
Y00760730
Y00786130
X00754360Y00773430
Y00748030
Y00722630
Y00697230
Y00671830
X00784860Y00684530
Y00709930
Y00735330
Y00760730
Y00786130
Y00659130
Y00633730
Y00608330
Y00811530
Y00836930
Y00862330
Y00887730
Y00913130
Y00938530
Y00963930
Y00989330
Y01014730
Y01040130
Y01065530
X00759460
X00734060
X00708660
X00683260
X00657860
X00632460
Y01040130
Y01014730
Y00989330
Y00963930
Y00938530
Y00913130
Y00887730
Y00862330
Y00836930
Y00811530
Y01090930
Y01116330
Y01141730
Y01167130
X00784860
Y01141730
Y01116330
Y01090930
Y01192530
X00632460
T06
X00197580Y00333540
Y00383540
X00427450Y00351320
X01302480Y00370370
X01630680Y00560070
Y00610070
Y00660070
X01480280Y00667220
Y00617220
Y00567220
X01283970Y00637070
Y00687070
Y00737070
X01302480Y00470370
Y00420370
X00427450Y00401320
Y00451320
X00440690Y00627380
Y00677380
Y00727380
X00201390Y00693890
Y00643890
Y00593890
X00197580Y00433540
X00200660Y00877100
Y00927100
Y00977100
X00198120Y01142530
X00452120Y01128560
Y01178560
X00455930Y00980910
Y00930910
Y00880910
X01468120Y00900100
Y00850100
Y00800100
X01440180Y01073950
Y01123950
Y01173950
X01596390Y01170140
Y01120140
Y01070140
X01626330Y00900900
Y00850900
Y00800900
X00452120Y01228560
X00198120Y01242530
Y01192530
T07
X01073150Y00129030
Y00333930
T08
X00144780Y00134620
X02125980Y00143510
X02131060Y01446530
X00168910Y01445260
M30
