G04*
G04 #@! TF.GenerationSoftware,Altium Limited,Altium Designer,25.8.1 (18)*
G04*
G04 Layer_Physical_Order=2*
G04 Layer_Color=16711680*
%FSLAX44Y44*%
%MOMM*%
G71*
G04*
G04 #@! TF.SameCoordinates,1CB4CA92-3C3F-48A4-B028-BF96C05B1928*
G04*
G04*
G04 #@! TF.FilePolarity,Positive*
G04*
G01*
G75*
%ADD14C,0.2540*%
%ADD29R,1.1350X1.1350*%
%ADD30C,1.1350*%
%ADD32C,2.1450*%
%ADD34C,1.7000*%
%ADD37R,1.7000X1.7000*%
%ADD38R,2.1450X2.1450*%
%ADD40R,1.1350X1.1350*%
%ADD43C,1.1580*%
%ADD44R,1.1580X1.1580*%
%ADD45C,1.6650*%
%ADD46C,1.9000*%
%ADD47C,1.6000*%
G04:AMPARAMS|DCode=48|XSize=1.65mm|YSize=1.65mm|CornerRadius=0.4125mm|HoleSize=0mm|Usage=FLASHONLY|Rotation=90.000|XOffset=0mm|YOffset=0mm|HoleType=Round|Shape=RoundedRectangle|*
%AMROUNDEDRECTD48*
21,1,1.6500,0.8250,0,0,90.0*
21,1,0.8250,1.6500,0,0,90.0*
1,1,0.8250,0.4125,0.4125*
1,1,0.8250,0.4125,-0.4125*
1,1,0.8250,-0.4125,-0.4125*
1,1,0.8250,-0.4125,0.4125*
%
%ADD48ROUNDEDRECTD48*%
%ADD49C,1.6500*%
%ADD50C,1.2700*%
%ADD51C,20.0000*%
%ADD52C,0.5080*%
%ADD53C,0.6350*%
%ADD54C,0.3810*%
D14*
X783138Y1001342D02*
G03*
X776777Y998381I1722J-12012D01*
G01*
X1782674Y1133450D02*
X1859280Y1210056D01*
Y1210310D01*
X1326896Y876300D02*
X1371346Y920750D01*
X1540510D01*
X617220Y646430D02*
X617728Y646938D01*
X745490D01*
X771398Y621030D01*
X1112012D01*
X768559Y1085850D02*
X776179Y1078230D01*
X765810Y1085850D02*
X768559D01*
X776179Y1078230D02*
X1039876D01*
X672084Y900430D02*
X800100D01*
X646176Y926338D02*
X672084Y900430D01*
X503428Y926338D02*
X646176D01*
X1478788Y991108D02*
X1778508D01*
X1789430Y1002030D01*
X1221560Y1011174D02*
X1222576Y1012190D01*
X1230414Y986790D02*
X1241190Y976014D01*
X1229360Y996950D02*
X1230414Y995896D01*
X1183386Y1011174D02*
X1196522D01*
X1217822Y1000252D02*
X1224680Y1007110D01*
X1186434Y993902D02*
X1203706Y1011174D01*
X1239170Y1007110D02*
X1246028Y1000252D01*
X1214685Y1021334D02*
X1215701Y1022350D01*
X1246028Y1000252D02*
X1295400D01*
X711962Y1026922D02*
X1195396D01*
X1244778Y1017270D02*
X1247158Y1014890D01*
X1274132D01*
X1201602Y1016254D02*
X1216789D01*
X1217805Y1017270D02*
X1244778D01*
X1224680Y1007110D02*
X1239170D01*
X1251906Y1022350D02*
X1253412Y1020844D01*
X1179178Y1021334D02*
X1214685D01*
X1203706Y1011174D02*
X1221560D01*
X1215701Y1022350D02*
X1251906D01*
X1196522Y1011174D02*
X1201602Y1016254D01*
X1195396Y1026922D02*
X1198698Y1030224D01*
X1243654Y1009810D02*
X1280576D01*
X1241274Y1012190D02*
X1243654Y1009810D01*
X1203332Y1000252D02*
X1217822D01*
X1222576Y1012190D02*
X1241274D01*
X1198698Y1030224D02*
X1260348D01*
X1230414Y986790D02*
Y995896D01*
X1216789Y1016254D02*
X1217805Y1017270D01*
X1274132Y1014890D02*
X1275496Y1016254D01*
X1254286Y1019970D02*
X1270416D01*
X1253412Y1020844D02*
X1254286Y1019970D01*
X1270416D02*
X1272034Y1021588D01*
X1181127Y978047D02*
X1203332Y1000252D01*
X627491Y799338D02*
X708660D01*
X603758Y795020D02*
X611378Y787400D01*
X620378Y806450D02*
X627491Y799338D01*
X552450Y795020D02*
X603758D01*
X568706Y806450D02*
X620378D01*
X783138Y1001342D02*
X814506Y1005840D01*
X816610D01*
X832032Y1009142D02*
X1179178Y1021334D01*
X818098Y1007328D02*
X832032Y1009142D01*
X632460Y938530D02*
X709762D01*
X776777Y998381D01*
X816610Y1005840D02*
X818098Y1007328D01*
X834136Y1004062D02*
X1080008D01*
X784860Y989330D02*
X819404D01*
X834136Y1004062D01*
X1431900Y1137260D02*
X1470555D01*
X1473705Y1134110D01*
X1515110D01*
X1592414Y1145730D02*
X1667971Y1221287D01*
X1421790Y1137920D02*
X1429599Y1145730D01*
X1592414D01*
X1251750Y964800D02*
X1452480D01*
X812292Y976122D02*
X828179D01*
X778510D02*
X812292D01*
X1246632Y1182930D02*
Y1188212D01*
X1025398Y1422908D02*
X1056640D01*
X1032256Y1358646D02*
X1641348D01*
X849884D02*
X1032256D01*
X632460Y608330D02*
X644652Y596138D01*
X961136D01*
X1241190Y976014D02*
X1251750Y964800D01*
X1452480D02*
X1478788Y991108D01*
X1052830Y964800D02*
X1251750D01*
X198120Y1192530D02*
X211582Y1179068D01*
Y1077976D02*
Y1179068D01*
X187198Y1053592D02*
X211582Y1077976D01*
X187198Y969010D02*
Y1053592D01*
Y969010D02*
X240625Y915583D01*
X503515D01*
X632460Y913130D01*
Y836930D02*
X696468D01*
X1596390Y1120140D02*
X1640586D01*
X1645412Y1124966D01*
X1661160D01*
X1672844Y1113282D01*
Y1109218D02*
Y1113282D01*
X976860Y1194080D02*
X1022606Y1148334D01*
X1228852D01*
X1719834Y892556D02*
X1736852Y909574D01*
X1752854D01*
X1767840Y924560D01*
X1460246Y996188D02*
X1563878D01*
X1577935Y1010245D01*
X1758355D01*
X1767840Y1000760D01*
X1159002Y893740D02*
X1211412D01*
X784860Y887730D02*
X790774Y881816D01*
X1223954D01*
X1280160Y938022D01*
X1330764D01*
X1342546Y926240D01*
X777240Y920750D02*
X784860Y913130D01*
X771455Y920750D02*
X777240D01*
X767645Y924560D02*
X771455Y920750D01*
X767645Y924560D02*
Y965257D01*
X778510Y976122D01*
X1280576Y1009810D02*
X1300226Y1010666D01*
X1323848Y987044D02*
X1346200D01*
X828179Y976122D02*
X845959Y993902D01*
X1186434D01*
X1300226Y1010666D02*
X1323848Y987044D01*
X1272034Y1021588D02*
X1327150D01*
X1024890Y450850D02*
X1080008Y505968D01*
X1435354D01*
X1437640Y508254D01*
X1435862Y824992D02*
X1437640Y823214D01*
X1435862Y824992D02*
X1693926D01*
X1728129Y859195D02*
X1832015D01*
X1693926Y824992D02*
X1728129Y859195D01*
X1832015D02*
X1859280Y886460D01*
X1957578Y1463802D02*
X1967230Y1454150D01*
X1884172Y1463802D02*
X1957578D01*
X1878330Y1457960D02*
X1884172Y1463802D01*
X1878330Y1421638D02*
Y1457960D01*
X1677979Y1221287D02*
X1878330Y1421638D01*
X1667971Y1221287D02*
X1677979D01*
X1038098Y1137920D02*
X1421790D01*
X1003300Y1103122D02*
X1038098Y1137920D01*
X762000Y1103122D02*
X1003300D01*
X746252Y1087374D02*
X762000Y1103122D01*
X746252Y1046480D02*
Y1087374D01*
X732136Y1032364D02*
X746252Y1046480D01*
X696057Y1032364D02*
X732136D01*
X653022Y989330D02*
X696057Y1032364D01*
X632460Y989330D02*
X653022D01*
X821436Y1398270D02*
X826135Y1402969D01*
X1005459D01*
X1025398Y1422908D01*
X772668Y1179322D02*
X784860Y1167130D01*
X772668Y1179322D02*
Y1207770D01*
X834136Y1269238D01*
X1082294D01*
X1161796Y1348740D01*
X1661160D01*
X611378Y762000D02*
Y787400D01*
Y762000D02*
X625348Y748030D01*
X645160D01*
X708660Y684530D01*
X784860D01*
X354330Y1454150D02*
X367030Y1441450D01*
X487680D01*
X494030Y1435100D01*
Y1103376D02*
Y1435100D01*
Y1103376D02*
X620268Y977138D01*
X723900D01*
X757428Y1010666D01*
X1651254Y1056386D02*
X1659128Y1064260D01*
X1770888D01*
X1836831Y1023209D02*
X1859280Y1000760D01*
X1818386Y1023209D02*
X1836831D01*
X1810502Y1015325D02*
X1818386Y1023209D01*
X1562013Y1015325D02*
X1810502D01*
X1531112Y1046226D02*
X1562013Y1015325D01*
X1207516Y1046226D02*
X1531112D01*
X620325Y1179265D02*
X632460Y1167130D01*
X620325Y1179265D02*
Y1399343D01*
X665480Y1444498D01*
X1001268D01*
X1034375Y1477605D01*
X1431457D01*
X1445768Y1463294D01*
Y1457960D02*
Y1463294D01*
Y1457960D02*
X1451443Y1452285D01*
X1490218D01*
X1496568Y1458635D01*
Y1468120D01*
X1499870Y1471422D01*
X1547368D01*
X1557020Y1461770D01*
X1672844Y1208786D02*
X1711452Y1247394D01*
X1859280D01*
X1871726Y1234948D01*
Y1203706D02*
Y1234948D01*
X1859280Y1191260D02*
X1871726Y1203706D01*
X701040Y1478788D02*
X704937Y1482685D01*
X1434505D01*
X1455420Y1461770D01*
X754360Y722630D02*
X1102360D01*
X1269492Y889762D01*
X1331976D01*
X1374648Y932434D01*
X1610614D01*
X1643888Y965708D01*
X1781302D01*
X1828546Y1012952D01*
X1776730Y1441450D02*
X1789430Y1454150D01*
X1737360Y1441450D02*
X1776730D01*
X1728978Y1433068D02*
X1737360Y1441450D01*
X1728978Y1397000D02*
Y1433068D01*
X1723644Y1391666D02*
X1728978Y1397000D01*
X1674368Y1391666D02*
X1723644D01*
X1641348Y1358646D02*
X1674368Y1391666D01*
X991362Y1317752D02*
X1032256Y1358646D01*
X1178306Y1099820D02*
X1182370Y1103884D01*
X1643338D01*
X1654260Y1114806D01*
X1425702Y802132D02*
X1477772Y750062D01*
X1547114D01*
X1174750Y1124204D02*
X1418844D01*
X1431900Y1137260D01*
X1702308Y940308D02*
X1771904D01*
X1777492Y934720D01*
Y908812D02*
Y934720D01*
X1767840Y899160D02*
X1777492Y908812D01*
X197580Y433540D02*
X215360Y451320D01*
X427450D01*
X201390Y693890D02*
X234880Y727380D01*
X440690D01*
X534340Y633730D01*
X632460D01*
X657860Y608330D01*
X784860D01*
X791152Y614622D01*
X1089718D01*
X1101090Y603250D01*
X455930Y980910D02*
X472910Y963930D01*
X632460D01*
X330200Y980910D02*
X455930D01*
X326390Y977100D02*
X330200Y980910D01*
X200660Y977100D02*
X326390D01*
X976860Y1229080D02*
X988010Y1217930D01*
X1240790D01*
X1052830Y939800D02*
X1271270D01*
X1274572Y943102D01*
X1357122D01*
X1360424Y939800D01*
X197580Y333540D02*
X215360Y351320D01*
X427450D01*
X201390Y593890D02*
X234880Y627380D01*
X440690D01*
X459740Y608330D01*
X632460D01*
X335280Y880910D02*
X455930D01*
X331470Y877100D02*
X335280Y880910D01*
X200660Y877100D02*
X331470D01*
X989222Y901192D02*
X1052830Y964800D01*
X953008Y901192D02*
X989222D01*
X197580Y383540D02*
X454406D01*
X562610Y491744D01*
X187960Y657320D02*
X201390Y643890D01*
X187960Y657320D02*
Y726948D01*
X244094Y783082D01*
X601218D01*
X632460Y862330D02*
X639087Y868957D01*
X722353D01*
X728980Y862330D01*
X533400Y836930D02*
X632460D01*
X507746Y862584D02*
X533400Y836930D01*
X507746Y862584D02*
Y904240D01*
X503174Y908812D02*
X507746Y904240D01*
X218948Y908812D02*
X503174D01*
X200660Y927100D02*
X218948Y908812D01*
X476815Y951795D02*
X670052D01*
X628396Y1423162D02*
X654812Y1449578D01*
X683768D01*
X688340Y1454150D01*
X455930Y930910D02*
X476815Y951795D01*
X493776Y735330D02*
X632460D01*
X1283970Y637070D02*
X1410430D01*
X1480280Y567220D01*
X1487430Y560070D01*
X1630680D01*
X1468120Y800100D02*
X1547114D01*
X1547914Y800900D01*
X1626330D01*
X1720380D01*
X1767840Y848360D01*
X1520190Y1070140D02*
X1596390D01*
X1516380Y1073950D02*
X1520190Y1070140D01*
X1440180Y1073950D02*
X1516380D01*
X1430490Y1064260D02*
X1440180Y1073950D01*
X1188466Y1064260D02*
X1430490D01*
X1270508Y723608D02*
X1283970Y737070D01*
X1270508Y680720D02*
Y723608D01*
Y680720D02*
X1284008Y667220D01*
X1480280D01*
X1487430Y660070D01*
X1630680D01*
X1254468Y1173950D02*
X1440180D01*
X1228852Y1148334D02*
X1254468Y1173950D01*
X1529080Y850100D02*
X1540510Y838670D01*
X1468120Y850100D02*
X1529080D01*
X1468120D02*
X1482295Y864275D01*
X1772325D01*
X1810258Y902208D01*
X1863090D01*
X1876806Y915924D01*
Y1046480D01*
X1866392Y1056894D02*
X1876806Y1046480D01*
X1798574Y1056894D02*
X1866392D01*
X1767840Y1026160D02*
X1798574Y1056894D01*
X1283970Y687070D02*
X1738630D01*
X1881886Y830326D01*
Y1058418D01*
X1876806Y1063498D02*
X1881886Y1058418D01*
X1779778Y1063498D02*
X1876806D01*
X1767840Y1051560D02*
X1779778Y1063498D01*
X1302480Y420370D02*
X1780286D01*
X1911604Y551688D01*
Y1053338D01*
X1875536Y1089406D02*
X1911604Y1053338D01*
X1780286Y1089406D02*
X1875536D01*
X1767840Y1076960D02*
X1780286Y1089406D01*
X1159002Y925068D02*
X1180084D01*
X1211412Y893740D01*
X681228Y996188D02*
X711962Y1026922D01*
X662432Y887730D02*
X784860D01*
X649224Y900938D02*
X662432Y887730D01*
X529336Y900938D02*
X649224D01*
X520170Y891772D02*
X529336Y900938D01*
X671068Y858774D02*
X671195Y858901D01*
X711200D01*
X717931Y852170D01*
X752094D01*
X779526Y824738D01*
X1184148D01*
X1287272Y927862D01*
X784860Y938530D02*
X802260D01*
X841777Y978047D01*
X1181127D01*
X1111556Y1182930D02*
X1240790D01*
X1246632D01*
Y1188212D02*
X1567942D01*
X1799082Y1419352D01*
Y1457960D01*
X1793240Y1463802D02*
X1799082Y1457960D01*
X1748282Y1463802D02*
X1793240D01*
X1738630Y1454150D02*
X1748282Y1463802D01*
X776027Y926338D02*
X888238D01*
X772725Y929640D02*
X776027Y926338D01*
X772725Y929640D02*
Y951795D01*
X784860Y963930D01*
X1024890Y603250D02*
X1109472Y518668D01*
X1465072D01*
X1050798Y1448308D02*
X1060450Y1457960D01*
X1050798Y1428750D02*
Y1448308D01*
Y1428750D02*
X1056640Y1422908D01*
X1685290D01*
X1700530Y1438148D01*
X784860Y659130D02*
X1152652D01*
X1373632Y880110D01*
X1725662D01*
X1729980Y884428D01*
X1783842D01*
X1830070Y930656D01*
Y952500D01*
X1871726Y994156D01*
Y1026414D01*
X1859280Y1038860D02*
X1871726Y1026414D01*
X607060Y1503680D02*
X1830745D01*
X557530Y1454150D02*
X607060Y1503680D01*
X548386Y875030D02*
X573221Y850195D01*
X659279D01*
X660860Y848614D01*
X675973D01*
X681180Y853821D01*
X703199D01*
X711200Y845820D01*
Y836676D02*
Y845820D01*
Y836676D02*
X716280Y831596D01*
X746579D01*
X779853Y798322D01*
X791210D01*
X802075Y787457D01*
Y746760D02*
Y787457D01*
X798830Y743515D02*
X802075Y746760D01*
X793045Y743515D02*
X798830D01*
X784860Y735330D02*
X793045Y743515D01*
X708660Y799338D02*
X747268Y760730D01*
X784860D01*
X497078Y835660D02*
Y897636D01*
Y835660D02*
X508000Y824738D01*
X746252D01*
X784860Y786130D01*
X405130Y1454150D02*
X414782Y1463802D01*
X535940D01*
X541782Y1457960D01*
Y1081024D02*
Y1457960D01*
Y1081024D02*
X620268Y1002538D01*
X657098D01*
X697992Y1043432D01*
X718820D01*
X721360Y841756D02*
X754634D01*
X784860Y811530D01*
X1036066D01*
X1105408Y742188D01*
X747268Y874522D02*
X784860Y836930D01*
X586486Y874522D02*
X747268D01*
X784860Y836930D02*
X808228Y860298D01*
X1205230D01*
X632460Y811530D02*
X734568D01*
X772160Y773938D01*
X790194D01*
X796995Y767137D01*
Y751840D02*
Y767137D01*
X793750Y748595D02*
X796995Y751840D01*
X776535Y748595D02*
X793750D01*
X763778Y735838D02*
X776535Y748595D01*
X746506Y735838D02*
X763778D01*
X742188Y731520D02*
X746506Y735838D01*
X742188Y716280D02*
Y731520D01*
Y716280D02*
X749046Y709422D01*
X763270D01*
X774954Y697738D01*
X790194D01*
X797052Y690880D01*
Y675640D02*
Y690880D01*
X792734Y671322D02*
X797052Y675640D01*
X775462Y671322D02*
X792734D01*
X769620Y665480D02*
X775462Y671322D01*
X769620Y654558D02*
Y665480D01*
Y654558D02*
X777240Y646938D01*
X1189482D01*
X1291590Y544830D01*
X1816862D01*
X1846580Y574548D01*
X1112012Y621030D02*
X1198118Y534924D01*
X1876806D01*
X814832Y1053338D02*
X829310Y1038860D01*
X1179830D01*
X1197356Y1056386D01*
X1651254D01*
X1770888Y1064260D02*
X1775206Y1068578D01*
X1850898D01*
X1859280Y1076960D01*
X784860Y1065530D02*
X818388Y1032002D01*
X1193292D01*
X1207516Y1046226D01*
X801116Y1391920D02*
Y1407160D01*
X811276Y1417320D01*
X982472D01*
X1037677Y1472525D01*
X1096685D01*
X1111250Y1457960D01*
X784860Y1116330D02*
X888746D01*
X784860Y1192530D02*
X851916Y1259586D01*
X1251204D01*
X1329182Y1337564D01*
X632460Y1192530D02*
Y1208024D01*
X811276Y1386840D01*
Y1404620D01*
X815271Y1408615D01*
X997135D01*
X1055965Y1467445D01*
X1064935D01*
X1073150Y1459230D01*
Y1457198D02*
Y1459230D01*
Y1457198D02*
X1083143Y1447205D01*
X1570243D01*
X1575919Y1452880D01*
Y1455269D01*
X1582420Y1461770D01*
X1709166Y1229360D02*
X1859280D01*
X632460Y1141730D02*
X642494D01*
X663956Y1163192D01*
Y1210252D01*
X841814Y1388110D01*
X1357376D01*
X1366774Y1397508D01*
X1521968D01*
X632460Y1116330D02*
X644595Y1104195D01*
Y1082040D02*
Y1104195D01*
X641293Y1078738D02*
X644595Y1082040D01*
X619760Y1078738D02*
X641293D01*
X609600Y1088898D02*
X619760Y1078738D01*
X609600Y1088898D02*
Y1486916D01*
X619760Y1497076D01*
X1557274D01*
X1570990Y1483360D01*
Y1456857D02*
Y1483360D01*
X1566418Y1452285D02*
X1570990Y1456857D01*
X1515705Y1452285D02*
X1566418D01*
X1506220Y1461770D02*
X1515705Y1452285D01*
X1691894Y1122172D02*
X1828292D01*
X1859280Y1153160D01*
X615245Y1108145D02*
X632460Y1090930D01*
X615245Y1108145D02*
Y1434110D01*
X670083Y1488948D01*
X1453642D01*
X1480820Y1461770D01*
X632460Y1040130D02*
X675386D01*
X695452Y1060196D01*
Y1069594D01*
X754888Y1129030D01*
X797560D01*
X920242Y1251712D01*
X1345184D01*
X1417320Y1323848D01*
X620268Y1026922D02*
X632460Y1014730D01*
X620268Y1026922D02*
Y1046480D01*
X626618Y1052830D01*
X665480D01*
X670560Y1057910D01*
Y1203965D01*
X843275Y1376680D01*
X1370584D01*
X1376172Y1382268D01*
X683260Y1065530D02*
Y1209294D01*
X842518Y1368552D01*
X1640222D01*
X1668550Y1396880D01*
X1693552D01*
X1720850Y1424178D01*
Y1468120D01*
X1725930Y1473200D01*
X1966722D01*
X1976882Y1463040D01*
Y1444752D02*
Y1463040D01*
X1973580Y1441450D02*
X1976882Y1444752D01*
X1954530Y1441450D02*
X1973580D01*
X1941830Y1454150D02*
X1954530Y1441450D01*
X657860Y1065530D02*
Y1108456D01*
X636778Y1129538D02*
X657860Y1108456D01*
X623627Y1129538D02*
X636778D01*
X620325Y1132840D02*
X623627Y1129538D01*
X620325Y1132840D02*
Y1148645D01*
X626618Y1154938D01*
X641350D01*
X651002Y1164590D01*
Y1207458D01*
X841433Y1397889D01*
X1012406D01*
X1029297Y1414780D01*
X1700784D01*
X1714754Y1428750D01*
Y1473200D01*
X1719834Y1478280D01*
X1976628D01*
X1981962Y1472946D01*
Y1422400D02*
Y1472946D01*
X1976628Y1417066D02*
X1981962Y1422400D01*
X1912112Y1417066D02*
X1976628D01*
X1906778Y1422400D02*
X1912112Y1417066D01*
X1906778Y1422400D02*
Y1444498D01*
X1916430Y1454150D01*
X1039876Y1078230D02*
X1072134Y1110488D01*
X1529842D01*
X1552804Y1133450D01*
X1782674D01*
X872998Y1050544D02*
X1090930D01*
X1117092Y1076706D01*
X1223264D01*
X1242822Y1096264D01*
X1840484D01*
X1859280Y1115060D01*
X759460Y1268222D02*
X849884Y1358646D01*
X1275496Y1016254D02*
X1311148D01*
X1319401Y1008001D01*
X1552319D01*
X1195676Y950722D02*
X1542034D01*
X1220470Y35558D02*
Y30480D01*
Y33019D01*
X1223856D01*
Y35558D01*
Y30480D01*
X1228087D02*
X1226395D01*
X1225548Y31326D01*
Y33019D01*
X1226395Y33866D01*
X1228087D01*
X1228934Y33019D01*
Y32173D01*
X1225548D01*
X1230627Y30480D02*
X1232319D01*
X1231473D01*
Y35558D01*
X1230627D01*
X1234859Y30480D02*
X1236552D01*
X1235705D01*
Y35558D01*
X1234859D01*
X1239937Y30480D02*
X1241630D01*
X1242476Y31326D01*
Y33019D01*
X1241630Y33866D01*
X1239937D01*
X1239091Y33019D01*
Y31326D01*
X1239937Y30480D01*
X1249247Y33866D02*
X1250094D01*
Y33019D01*
X1249247D01*
Y33866D01*
Y31326D02*
X1250094D01*
Y30480D01*
X1249247D01*
Y31326D01*
X1253479Y30480D02*
X1255172Y32173D01*
Y33866D01*
X1253479Y35558D01*
D29*
X1967230Y1454150D02*
D03*
X916940D02*
D03*
X557530D02*
D03*
X1289050Y1457960D02*
D03*
X1633220Y1461770D02*
D03*
D30*
X1941830Y1454150D02*
D03*
X1916430D02*
D03*
X1891030D02*
D03*
X1865630D02*
D03*
X1840230D02*
D03*
X1814830D02*
D03*
X1738630D02*
D03*
X1967230Y1428750D02*
D03*
X1941830D02*
D03*
X1916430D02*
D03*
X1891030D02*
D03*
X1865630D02*
D03*
X1840230D02*
D03*
X1814830D02*
D03*
X1789430D02*
D03*
X1764030D02*
D03*
X1738630D02*
D03*
X1789430Y1454150D02*
D03*
X1764030D02*
D03*
X688340Y1428750D02*
D03*
X713740D02*
D03*
X739140D02*
D03*
X764540D02*
D03*
X789940D02*
D03*
X815340D02*
D03*
X840740D02*
D03*
X866140D02*
D03*
X891540D02*
D03*
X916940D02*
D03*
X688340Y1454150D02*
D03*
X713740D02*
D03*
X739140D02*
D03*
X764540D02*
D03*
X789940D02*
D03*
X815340D02*
D03*
X840740D02*
D03*
X866140D02*
D03*
X891540D02*
D03*
X328930Y1428750D02*
D03*
X354330D02*
D03*
X379730D02*
D03*
X405130D02*
D03*
X430530D02*
D03*
X455930D02*
D03*
X481330D02*
D03*
X506730D02*
D03*
X532130D02*
D03*
X557530D02*
D03*
X328930Y1454150D02*
D03*
X354330D02*
D03*
X379730D02*
D03*
X405130D02*
D03*
X430530D02*
D03*
X455930D02*
D03*
X481330D02*
D03*
X506730D02*
D03*
X532130D02*
D03*
X1060450Y1432560D02*
D03*
X1085850D02*
D03*
X1111250D02*
D03*
X1136650D02*
D03*
X1162050D02*
D03*
X1187450D02*
D03*
X1212850D02*
D03*
X1238250D02*
D03*
X1263650D02*
D03*
X1289050D02*
D03*
X1060450Y1457960D02*
D03*
X1085850D02*
D03*
X1111250D02*
D03*
X1136650D02*
D03*
X1162050D02*
D03*
X1187450D02*
D03*
X1212850D02*
D03*
X1238250D02*
D03*
X1263650D02*
D03*
X1742440Y1076960D02*
D03*
Y1051560D02*
D03*
Y1026160D02*
D03*
Y1000760D02*
D03*
Y975360D02*
D03*
Y949960D02*
D03*
Y924560D02*
D03*
Y899160D02*
D03*
Y873760D02*
D03*
Y848360D02*
D03*
X1767840Y1076960D02*
D03*
Y1051560D02*
D03*
Y1026160D02*
D03*
Y1000760D02*
D03*
Y975360D02*
D03*
Y949960D02*
D03*
Y924560D02*
D03*
Y899160D02*
D03*
Y873760D02*
D03*
X1404620Y1436370D02*
D03*
X1430020D02*
D03*
X1455420D02*
D03*
X1480820D02*
D03*
X1506220D02*
D03*
X1531620D02*
D03*
X1557020D02*
D03*
X1582420D02*
D03*
X1607820D02*
D03*
X1633220D02*
D03*
X1404620Y1461770D02*
D03*
X1430020D02*
D03*
X1455420D02*
D03*
X1480820D02*
D03*
X1506220D02*
D03*
X1531620D02*
D03*
X1557020D02*
D03*
X1582420D02*
D03*
X1607820D02*
D03*
D32*
X1073150Y333930D02*
D03*
D34*
X1859280Y962660D02*
D03*
Y1115060D02*
D03*
Y924560D02*
D03*
X1973280Y1248360D02*
D03*
Y1210260D02*
D03*
Y1172160D02*
D03*
Y1134060D02*
D03*
Y1095960D02*
D03*
Y1057860D02*
D03*
Y1019760D02*
D03*
Y981660D02*
D03*
Y943560D02*
D03*
Y905460D02*
D03*
X1859280Y1229360D02*
D03*
Y1191260D02*
D03*
Y1153160D02*
D03*
Y1076960D02*
D03*
Y1038860D02*
D03*
Y1000760D02*
D03*
D37*
Y886460D02*
D03*
D38*
X1073150Y129030D02*
D03*
D40*
X1767840Y848360D02*
D03*
D43*
X1024890Y450850D02*
D03*
Y603250D02*
D03*
X1101090D02*
D03*
D44*
Y450850D02*
D03*
D45*
X657860Y1065530D02*
D03*
X683260D02*
D03*
X759460D02*
D03*
X754360Y697230D02*
D03*
X632460Y989330D02*
D03*
X754360Y671830D02*
D03*
X632460Y608330D02*
D03*
X754360Y722630D02*
D03*
X784860Y633730D02*
D03*
Y963930D02*
D03*
X708660Y1065530D02*
D03*
X754360Y773430D02*
D03*
Y748030D02*
D03*
X632460Y963930D02*
D03*
X784860Y608330D02*
D03*
X632460Y633730D02*
D03*
X657860D02*
D03*
X632460Y659130D02*
D03*
X734060Y1065530D02*
D03*
X632460Y1014730D02*
D03*
Y1040130D02*
D03*
Y1065530D02*
D03*
Y1090930D02*
D03*
Y1116330D02*
D03*
Y1141730D02*
D03*
Y1167130D02*
D03*
Y1192530D02*
D03*
X784860D02*
D03*
Y1167130D02*
D03*
Y1141730D02*
D03*
Y1116330D02*
D03*
Y1090930D02*
D03*
Y1065530D02*
D03*
Y1040130D02*
D03*
Y1014730D02*
D03*
Y989330D02*
D03*
X632460Y684530D02*
D03*
Y709930D02*
D03*
Y735330D02*
D03*
Y760730D02*
D03*
Y786130D02*
D03*
Y811530D02*
D03*
Y836930D02*
D03*
Y862330D02*
D03*
Y887730D02*
D03*
Y913130D02*
D03*
Y938530D02*
D03*
X784860D02*
D03*
Y913130D02*
D03*
Y887730D02*
D03*
Y862330D02*
D03*
Y836930D02*
D03*
Y811530D02*
D03*
Y786130D02*
D03*
Y760730D02*
D03*
Y735330D02*
D03*
Y709930D02*
D03*
Y684530D02*
D03*
Y659130D02*
D03*
D46*
X440690Y677380D02*
D03*
X452120Y1128560D02*
D03*
X198120Y1142530D02*
D03*
X455930Y880910D02*
D03*
X200660Y877100D02*
D03*
X440690Y627380D02*
D03*
X201390Y593890D02*
D03*
X427450Y351320D02*
D03*
X197580Y333540D02*
D03*
X1882140Y158780D02*
D03*
Y384780D02*
D03*
X198120Y1242530D02*
D03*
X452120Y1228560D02*
D03*
X455930Y980910D02*
D03*
X200660Y977100D02*
D03*
X440690Y727380D02*
D03*
X201390Y693890D02*
D03*
X427450Y451320D02*
D03*
X197580Y433540D02*
D03*
X1615440Y389860D02*
D03*
Y163860D02*
D03*
X1898080Y740780D02*
D03*
Y514780D02*
D03*
X1596390Y1170140D02*
D03*
Y1120140D02*
D03*
Y1070140D02*
D03*
X1626330Y900900D02*
D03*
Y850900D02*
D03*
Y800900D02*
D03*
X1480280Y667220D02*
D03*
Y617220D02*
D03*
Y567220D02*
D03*
X1630680Y660070D02*
D03*
Y610070D02*
D03*
Y560070D02*
D03*
X1440180Y1173950D02*
D03*
Y1123950D02*
D03*
Y1073950D02*
D03*
X1468120Y900100D02*
D03*
Y850100D02*
D03*
Y800100D02*
D03*
X1283970Y737070D02*
D03*
Y687070D02*
D03*
Y637070D02*
D03*
X1302480Y470370D02*
D03*
Y420370D02*
D03*
Y370370D02*
D03*
X452120Y1178560D02*
D03*
X455930Y930910D02*
D03*
X427450Y401320D02*
D03*
X200660Y927100D02*
D03*
X201390Y643890D02*
D03*
X197580Y383540D02*
D03*
X198120Y1192530D02*
D03*
D47*
X1052830Y964800D02*
D03*
Y913800D02*
D03*
Y939800D02*
D03*
D48*
X1240790Y1182930D02*
D03*
X976860Y1194080D02*
D03*
D49*
X1240790Y1217930D02*
D03*
X976860Y1229080D02*
D03*
D50*
X1859280Y1210310D02*
D03*
X1540510Y920750D02*
D03*
X617220Y646430D02*
D03*
X765810Y1085850D02*
D03*
X800100Y900430D02*
D03*
X1789430Y1002030D02*
D03*
X586740Y951795D02*
D03*
X1437640Y508254D02*
D03*
X1229360Y996950D02*
D03*
X552450Y795020D02*
D03*
X816610Y1005840D02*
D03*
X1515110Y1134110D02*
D03*
X1460246Y996188D02*
D03*
X1552319Y1008001D02*
D03*
X961136Y596138D02*
D03*
X696468Y836930D02*
D03*
X1672844Y1109218D02*
D03*
X1719834Y892556D02*
D03*
X1159002Y893740D02*
D03*
X1211412D02*
D03*
X1342546Y926240D02*
D03*
X812292Y976122D02*
D03*
X1346200Y987044D02*
D03*
X1327150Y1021588D02*
D03*
X1435862Y824992D02*
D03*
X821436Y1398270D02*
D03*
X1700530Y1438148D02*
D03*
X1661160Y1348740D02*
D03*
X757428Y1010666D02*
D03*
X1672844Y1208786D02*
D03*
X701040Y1478788D02*
D03*
X1828546Y1012952D02*
D03*
X991362Y1317752D02*
D03*
X1178306Y1099820D02*
D03*
X1654260Y1114806D02*
D03*
X1425702Y802132D02*
D03*
X1547114Y750062D02*
D03*
X1174750Y1124204D02*
D03*
X1702308Y940308D02*
D03*
X1360424Y939800D02*
D03*
X953008Y901192D02*
D03*
X562610Y491744D02*
D03*
X601218Y783082D02*
D03*
X728980Y862330D02*
D03*
X670052Y951795D02*
D03*
X628396Y1423162D02*
D03*
X493776Y735330D02*
D03*
X1188466Y1064260D02*
D03*
X1228852Y1148334D02*
D03*
X1540510Y838670D02*
D03*
X1080008Y1004062D02*
D03*
X1159002Y925068D02*
D03*
X681228Y996188D02*
D03*
X1260348Y1030224D02*
D03*
X520170Y891772D02*
D03*
X671068Y858774D02*
D03*
X1287272Y927862D02*
D03*
X1295400Y1000252D02*
D03*
X1111556Y1182930D02*
D03*
X888238Y926338D02*
D03*
X1465072Y518668D02*
D03*
X1830745Y1503680D02*
D03*
X503428Y926338D02*
D03*
X548386Y875030D02*
D03*
X568706Y806450D02*
D03*
X497078Y897636D02*
D03*
X718820Y1043432D02*
D03*
X721360Y841756D02*
D03*
X1105408Y742188D02*
D03*
X586486Y874522D02*
D03*
X1205230Y860298D02*
D03*
X1846580Y574548D02*
D03*
X1876806Y534924D02*
D03*
X814832Y1053338D02*
D03*
X1207516Y1046226D02*
D03*
X801116Y1391920D02*
D03*
X888746Y1116330D02*
D03*
X1329182Y1337564D02*
D03*
X1709166Y1229360D02*
D03*
X1521968Y1397508D02*
D03*
X1691894Y1122172D02*
D03*
X1417320Y1323848D02*
D03*
X1376172Y1382268D02*
D03*
X872998Y1050544D02*
D03*
X759460Y1268222D02*
D03*
X1183386Y1011174D02*
D03*
X1195676Y950722D02*
D03*
X1542034D02*
D03*
X1326896Y876300D02*
D03*
D51*
X168910Y1445260D02*
D03*
X2125980Y143510D02*
D03*
X2131060Y1446530D02*
D03*
X144780Y134620D02*
D03*
D52*
X2136555Y1287780D02*
X2116241D01*
Y1277623D01*
X2119627Y1274238D01*
X2133169D01*
X2136555Y1277623D01*
Y1287780D01*
X2116241Y1257310D02*
Y1264081D01*
X2119627Y1267467D01*
X2126398D01*
X2129783Y1264081D01*
Y1257310D01*
X2126398Y1253924D01*
X2123012D01*
Y1267467D01*
X2116241Y1247153D02*
Y1236996D01*
X2119627Y1233611D01*
X2123012Y1236996D01*
Y1243768D01*
X2126398Y1247153D01*
X2129783Y1243768D01*
Y1233611D01*
X2116241Y1226840D02*
Y1220069D01*
Y1223454D01*
X2129783D01*
Y1226840D01*
X2109470Y1203141D02*
Y1199755D01*
X2112856Y1196370D01*
X2129783D01*
Y1206526D01*
X2126398Y1209912D01*
X2119627D01*
X2116241Y1206526D01*
Y1196370D01*
Y1189598D02*
X2129783D01*
Y1179442D01*
X2126398Y1176056D01*
X2116241D01*
Y1159128D02*
Y1165900D01*
X2119627Y1169285D01*
X2126398D01*
X2129783Y1165900D01*
Y1159128D01*
X2126398Y1155743D01*
X2123012D01*
Y1169285D01*
X2136555Y1135429D02*
X2116241D01*
Y1145586D01*
X2119627Y1148972D01*
X2126398D01*
X2129783Y1145586D01*
Y1135429D01*
X2136555Y1108345D02*
X2116241D01*
Y1098188D01*
X2119627Y1094802D01*
X2123012D01*
X2126398D01*
X2129783Y1098188D01*
Y1108345D01*
Y1088031D02*
X2119627D01*
X2116241Y1084646D01*
Y1074489D01*
X2112856D01*
X2109470Y1077875D01*
Y1081260D01*
X2116241Y1074489D02*
X2129783D01*
X2116241Y1047404D02*
X2129783D01*
X2136555Y1040633D01*
X2129783Y1033862D01*
X2116241D01*
X2126398D01*
Y1047404D01*
X2116241Y1027091D02*
X2129783D01*
Y1016934D01*
X2126398Y1013549D01*
X2116241D01*
X2136555Y993235D02*
X2116241D01*
Y1003392D01*
X2119627Y1006778D01*
X2126398D01*
X2129783Y1003392D01*
Y993235D01*
Y986464D02*
X2116241D01*
X2123012D01*
X2126398Y983079D01*
X2129783Y979693D01*
Y976308D01*
X2116241Y955994D02*
Y962765D01*
X2119627Y966151D01*
X2126398D01*
X2129783Y962765D01*
Y955994D01*
X2126398Y952608D01*
X2123012D01*
Y966151D01*
X2129783Y945837D02*
X2119627D01*
X2116241Y942452D01*
X2119627Y939066D01*
X2116241Y935681D01*
X2119627Y932295D01*
X2129783D01*
X2116241Y891668D02*
X2119627Y895054D01*
X2116241Y898439D01*
Y901825D01*
X2119627Y905211D01*
X2123012D01*
X2126398Y901825D01*
X2129783Y905211D01*
X2133169D01*
X2136555Y901825D01*
Y898439D01*
X2133169Y895054D01*
X2129783D01*
X2126398Y898439D01*
X2123012Y895054D01*
X2119627D01*
X2126398Y891668D02*
X2123012Y895054D01*
X2126398Y901825D02*
Y898439D01*
X2136555Y864584D02*
X2116241D01*
X2123012D01*
X2136555Y851041D01*
X2126398Y861198D01*
X2116241Y851041D01*
X2129783Y844270D02*
X2119627D01*
X2116241Y840885D01*
Y830728D01*
X2112856D01*
X2109470Y834114D01*
Y837499D01*
X2116241Y830728D02*
X2129783D01*
X2116241Y823957D02*
Y817186D01*
Y820571D01*
X2136555D01*
Y823957D01*
X2116241Y796872D02*
Y803643D01*
X2119627Y807029D01*
X2126398D01*
X2129783Y803643D01*
Y796872D01*
X2126398Y793487D01*
X2123012D01*
Y807029D01*
D53*
X349245Y100320D02*
X339088D01*
X334010Y95242D01*
Y74928D01*
X339088Y69850D01*
X349245D01*
X354323Y74928D01*
Y95242D01*
X349245Y100320D01*
X384794D02*
X364480D01*
Y85085D01*
X374637D01*
X364480D01*
Y69850D01*
X415264Y100320D02*
X394950D01*
Y85085D01*
X405107D01*
X394950D01*
Y69850D01*
X455891D02*
Y100320D01*
X471126D01*
X476204Y95242D01*
Y85085D01*
X471126Y80007D01*
X455891D01*
X466047D02*
X476204Y69850D01*
X501596Y100320D02*
X491439D01*
X486361Y95242D01*
Y74928D01*
X491439Y69850D01*
X501596D01*
X506674Y74928D01*
Y95242D01*
X501596Y100320D01*
X516831Y69850D02*
Y90163D01*
X526988Y100320D01*
X537144Y90163D01*
Y69850D01*
Y85085D01*
X516831D01*
X547301Y100320D02*
Y69850D01*
X562536D01*
X567614Y74928D01*
Y95242D01*
X562536Y100320D01*
X547301D01*
D54*
X344166Y136518D02*
X340992Y139692D01*
X334644D01*
X331470Y136518D01*
Y123822D01*
X334644Y120648D01*
X340992D01*
X344166Y123822D01*
Y130170D01*
X337818D01*
X360036Y120648D02*
X353688D01*
X350514Y123822D01*
Y130170D01*
X353688Y133344D01*
X360036D01*
X363210Y130170D01*
Y126996D01*
X350514D01*
X372732Y120648D02*
X379080D01*
X382254Y123822D01*
Y130170D01*
X379080Y133344D01*
X372732D01*
X369558Y130170D01*
Y123822D01*
X372732Y120648D01*
X388602Y133344D02*
Y120648D01*
Y126996D01*
X391776Y130170D01*
X394949Y133344D01*
X398124D01*
X413993Y114300D02*
X417167D01*
X420341Y117474D01*
Y133344D01*
X410819D01*
X407645Y130170D01*
Y123822D01*
X410819Y120648D01*
X420341D01*
X426689D02*
X433037D01*
X429863D01*
Y133344D01*
X426689D01*
X445733D02*
X452081D01*
X455255Y130170D01*
Y120648D01*
X445733D01*
X442559Y123822D01*
X445733Y126996D01*
X455255D01*
X480647Y139692D02*
X493343D01*
X486995D01*
Y120648D01*
X509213D02*
X502865D01*
X499691Y123822D01*
Y130170D01*
X502865Y133344D01*
X509213D01*
X512387Y130170D01*
Y126996D01*
X499691D01*
X531430Y133344D02*
X521908D01*
X518735Y130170D01*
Y123822D01*
X521908Y120648D01*
X531430D01*
X537778Y139692D02*
Y120648D01*
Y130170D01*
X540952Y133344D01*
X547300D01*
X550474Y130170D01*
Y120648D01*
M02*
