G04*
G04 #@! TF.GenerationSoftware,Altium Limited,Altium Designer,25.8.1 (18)*
G04*
G04 Layer_Physical_Order=1*
G04 Layer_Color=255*
%FSLAX44Y44*%
%MOMM*%
G71*
G04*
G04 #@! TF.SameCoordinates,B6236AAD-9B2A-438F-8993-29755F72C1A3*
G04*
G04*
G04 #@! TF.FilePolarity,Positive*
G04*
G01*
G75*
%ADD14C,0.2540*%
G04:AMPARAMS|DCode=15|XSize=1.4mm|YSize=4.5mm|CornerRadius=0.35mm|HoleSize=0mm|Usage=FLASHONLY|Rotation=90.000|XOffset=0mm|YOffset=0mm|HoleType=Round|Shape=RoundedRectangle|*
%AMROUNDEDRECTD15*
21,1,1.4000,3.8000,0,0,90.0*
21,1,0.7000,4.5000,0,0,90.0*
1,1,0.7000,1.9000,0.3500*
1,1,0.7000,1.9000,-0.3500*
1,1,0.7000,-1.9000,-0.3500*
1,1,0.7000,-1.9000,0.3500*
%
%ADD15ROUNDEDRECTD15*%
%ADD16O,1.8000X0.4500*%
%ADD17O,0.6000X2.2000*%
%ADD18R,1.6000X0.8500*%
%ADD19R,1.5000X1.5500*%
%ADD20R,4.5000X1.4000*%
%ADD29R,1.1350X1.1350*%
%ADD30C,1.1350*%
%ADD32C,2.1450*%
%ADD34C,1.7000*%
%ADD37R,1.7000X1.7000*%
%ADD38R,2.1450X2.1450*%
%ADD40R,1.1350X1.1350*%
%ADD43C,1.1580*%
%ADD44R,1.1580X1.1580*%
%ADD45C,1.6650*%
%ADD46C,1.9000*%
%ADD47C,1.6000*%
G04:AMPARAMS|DCode=48|XSize=1.65mm|YSize=1.65mm|CornerRadius=0.4125mm|HoleSize=0mm|Usage=FLASHONLY|Rotation=90.000|XOffset=0mm|YOffset=0mm|HoleType=Round|Shape=RoundedRectangle|*
%AMROUNDEDRECTD48*
21,1,1.6500,0.8250,0,0,90.0*
21,1,0.8250,1.6500,0,0,90.0*
1,1,0.8250,0.4125,0.4125*
1,1,0.8250,0.4125,-0.4125*
1,1,0.8250,-0.4125,-0.4125*
1,1,0.8250,-0.4125,0.4125*
%
%ADD48ROUNDEDRECTD48*%
%ADD49C,1.6500*%
%ADD50C,1.2700*%
%ADD51C,20.0000*%
D14*
X576910Y201860D02*
X1563940D01*
X427450Y351320D02*
X576910Y201860D01*
X1759458Y1464056D02*
X1779524D01*
X1748282Y1452880D02*
X1759458Y1464056D01*
X1779524D02*
X1789430Y1454150D01*
X1748282Y1393933D02*
Y1452880D01*
X1727962Y1373613D02*
X1748282Y1393933D01*
X1727962Y1016254D02*
Y1373613D01*
X950468Y456612D02*
Y970280D01*
X1008126Y1027938D01*
X950468Y456612D02*
X1073150Y333930D01*
X1854454Y1465326D02*
X1865630Y1454150D01*
X1805178Y1028627D02*
X1858835Y974970D01*
X1812544Y1465326D02*
X1854454D01*
X1805178Y1457960D02*
X1812544Y1465326D01*
X1805178Y1028627D02*
Y1457960D01*
X1871590Y955040D02*
Y970280D01*
X1866900Y974970D02*
X1871590Y970280D01*
X1800352Y883802D02*
X1871590Y955040D01*
X1858835Y974970D02*
X1866900D01*
X622394Y989330D02*
X632460D01*
X586232Y953168D02*
X622394Y989330D01*
X440690Y677380D02*
X586232Y822922D01*
Y953168D01*
X1764030Y1454150D02*
X1773682Y1444498D01*
X1758188Y1393952D02*
X1773682Y1409446D01*
Y1444498D01*
X1758188Y973328D02*
Y1393952D01*
X1727962Y962660D02*
X1747520D01*
X1758188Y973328D01*
X1788160Y588264D02*
X1823644Y552780D01*
X1788160Y588264D02*
Y891540D01*
X1823644Y552780D02*
X1846580D01*
X1747520Y962660D02*
X1859280D01*
X1788160Y891540D02*
X1859280Y962660D01*
X1246160Y978240D02*
Y988314D01*
X986330Y898300D02*
X1052830Y964800D01*
X986330Y709120D02*
Y898300D01*
X442468Y1118908D02*
X452120Y1128560D01*
X442468Y894372D02*
X455930Y880910D01*
X442468Y894372D02*
Y1118908D01*
X187198Y1131608D02*
X198120Y1142530D01*
X187198Y890562D02*
Y1131608D01*
X427228Y852208D02*
X455930Y880910D01*
X187198Y890562D02*
X200660Y877100D01*
X986330Y709120D02*
X988060Y707390D01*
X626618Y671830D02*
X754360D01*
X620268Y665480D02*
X626618Y671830D01*
X620268Y620522D02*
X632460Y608330D01*
X620268Y620522D02*
Y665480D01*
X427228Y640842D02*
X440690Y627380D01*
X427228Y640842D02*
Y852208D01*
X201390Y593890D02*
X211074Y584206D01*
Y347034D02*
Y584206D01*
X197580Y333540D02*
X211074Y347034D01*
X1721612Y1437132D02*
X1738630Y1454150D01*
X1721612Y1387602D02*
Y1437132D01*
X1230376Y1230122D02*
X1247648D01*
X1252850Y1224920D01*
X1240790Y1182930D02*
X1252850Y1194990D01*
Y1224920D01*
X1165860Y1165606D02*
X1230376Y1230122D01*
X1165860Y1001201D02*
Y1165606D01*
X1153160Y988502D02*
X1165860Y1001201D01*
X1153160Y926864D02*
Y988502D01*
X1052830Y781304D02*
Y913800D01*
X1036320Y764794D02*
X1052830Y781304D01*
X1026160Y764794D02*
X1036320D01*
X1016000Y743080D02*
Y754634D01*
X1026160Y764794D01*
X796036Y824230D02*
X989076Y1017270D01*
Y1398270D01*
X759835Y824230D02*
X796036D01*
X747135Y836930D02*
X759835Y824230D01*
X726042Y836930D02*
X747135D01*
X720090Y822562D02*
X726042Y816610D01*
X720090Y830978D02*
X726042Y836930D01*
X720090Y822562D02*
Y830978D01*
X742188Y734802D02*
X754360Y722630D01*
X742188Y734802D02*
Y806583D01*
X726042Y816610D02*
X732161D01*
X742188Y806583D01*
X1849882Y1260509D02*
Y1444498D01*
X1841890Y1252517D02*
X1849882Y1260509D01*
X1840230Y1454150D02*
X1849882Y1444498D01*
X1841890Y1132450D02*
Y1252517D01*
Y1132450D02*
X1859280Y1115060D01*
X1860940Y980050D02*
X1869440D01*
X1827530Y1013460D02*
X1860940Y980050D01*
X1869440D02*
X1876670Y972820D01*
X1814830Y1454150D02*
X1827530Y1441450D01*
Y1013460D02*
Y1441450D01*
X1876670Y903850D02*
Y972820D01*
X1291122Y887680D02*
X1326970D01*
X1314160Y900240D02*
X1323350D01*
X1127760Y896323D02*
Y911098D01*
X1323350Y900240D02*
X1326970Y896620D01*
Y887680D02*
Y896620D01*
X1911604Y497078D02*
Y834136D01*
X1859280Y886460D02*
X1911604Y834136D01*
X1903476Y488950D02*
X1911604Y497078D01*
X1859280Y886460D02*
X1876670Y903850D01*
X1899920Y196780D02*
X1903476Y488950D01*
X1830640Y196780D02*
X1899920D01*
X1260692Y857250D02*
X1291122Y887680D01*
X1166833Y857250D02*
X1260692D01*
X1043178Y985520D02*
X1053338D01*
X1021334Y963676D02*
X1043178Y985520D01*
X1053338D02*
X1127760Y911098D01*
X977900Y920242D02*
X1021334Y963676D01*
X1127760Y896323D02*
X1166833Y857250D01*
X977900Y548710D02*
X1024890Y501720D01*
X977900Y548710D02*
Y920242D01*
X1341307Y906740D02*
X1353967D01*
X623570Y723138D02*
X650784D01*
X618744D02*
X623570D01*
X649675Y960063D02*
Y1001522D01*
Y777945D02*
Y960063D01*
X1672336Y651726D02*
Y916928D01*
X1668540Y647930D02*
X1672336Y651726D01*
X1510580Y1053550D02*
X1515110D01*
X1503595D02*
X1510580D01*
X1573022Y991108D01*
X1500504Y1063625D02*
X1510580Y1053550D01*
X1440180Y1123950D02*
X1500504Y1063625D01*
X1163320Y896280D02*
Y922656D01*
X1276350Y959835D02*
X1300480Y935705D01*
X1439684Y931672D02*
X1551976D01*
X1393450D02*
X1439684D01*
X1684020Y1008888D02*
Y1410970D01*
X1689354Y1405636D01*
X1633220Y1461770D02*
X1684020Y1410970D01*
X1703070Y809540D02*
Y901700D01*
X1101090Y603250D02*
Y609600D01*
X991410Y719280D02*
X1101090Y609600D01*
X991410Y719280D02*
Y878380D01*
X1052830Y939800D01*
X1140460Y852170D01*
X1265224D01*
X1288554Y875500D01*
X1335387D01*
X1346200Y886313D01*
Y901847D01*
X1341307Y906740D02*
X1346200Y901847D01*
X1314160Y906740D02*
X1341307D01*
X1808042Y346780D02*
X1830640D01*
X1804162Y342900D02*
X1808042Y346780D01*
X1804162Y235966D02*
Y342900D01*
Y235966D02*
X1856994D01*
X1868678Y391922D02*
X1879092Y402336D01*
X1846580Y694436D02*
X1879092Y661924D01*
X1563940Y351860D02*
X1688268D01*
X1804162Y235966D01*
X1856994D02*
X1868678Y247650D01*
Y391922D01*
X1879092Y402336D02*
Y661924D01*
X1846580Y694436D02*
Y702780D01*
X1289050Y456940D02*
X1302480Y470370D01*
X1289050Y407162D02*
Y456940D01*
Y407162D02*
X1363218Y332994D01*
X1378712D01*
X1422400Y376682D01*
Y402082D01*
X1388110Y436372D02*
X1422400Y402082D01*
X1388110Y436372D02*
Y481330D01*
X1360720Y482600D02*
X1388110Y481330D01*
X1358180Y469900D02*
X1360720Y482600D01*
X1468920Y1174750D02*
X1496060D01*
X1468120Y1173950D02*
X1468920Y1174750D01*
X1440180Y1173950D02*
X1468120D01*
X1703070Y783040D02*
X1711960D01*
X1755140Y826220D01*
Y911860D01*
X1767840Y924560D01*
X1480280Y617220D02*
X1546860Y550640D01*
X1555750Y549360D01*
X1245785Y926615D02*
X1246160Y926240D01*
X1219854Y926615D02*
X1245785D01*
X1216944Y929525D02*
X1219854Y926615D01*
X1208527Y929525D02*
X1216944D01*
X1201420Y922418D02*
X1208527Y929525D01*
X1201420Y914009D02*
Y922418D01*
Y914009D02*
X1210863Y904566D01*
Y896150D02*
Y904566D01*
X1204911Y890198D02*
X1210863Y896150D01*
X1196494Y890198D02*
X1204911D01*
X1190543Y896150D02*
X1196494Y890198D01*
X1190543Y896150D02*
Y900380D01*
X1173480Y917443D02*
X1190543Y900380D01*
X1173480Y917443D02*
Y950333D01*
X1186942Y963795D01*
Y1006204D01*
X1672336Y916928D02*
Y976884D01*
X1668540Y913132D02*
X1672336Y916928D01*
X1668540Y647930D02*
Y913132D01*
X1630680Y610070D02*
X1668540Y647930D01*
X1500504Y1063625D02*
X1503595Y1053550D01*
X1540510Y777960D02*
X1549400D01*
X1552448Y781008D01*
Y813308D01*
X1548130Y817626D02*
X1552448Y813308D01*
X1548130Y817626D02*
Y870458D01*
X1551432Y873760D01*
Y911860D01*
X1539113Y924179D02*
X1551432Y911860D01*
X1471079Y924179D02*
X1539113D01*
X1442720Y895820D02*
X1471079Y924179D01*
X1442720Y875500D02*
Y895820D01*
Y875500D02*
X1468120Y850100D01*
X1302480Y420370D02*
X1366520Y356330D01*
Y348700D02*
Y356330D01*
Y348700D02*
X1376680D01*
X1163320Y922656D02*
Y983852D01*
X1157368Y916704D02*
X1163320Y922656D01*
X1148952Y916704D02*
X1157368D01*
X1143000Y922656D02*
X1148952Y916704D01*
X1143000Y922656D02*
Y1007110D01*
X1160780Y1024890D01*
Y1172972D01*
X1203198Y1215390D01*
Y1448308D01*
X1212850Y1457960D01*
X1226180Y873760D02*
X1246160Y893740D01*
X1185840Y873760D02*
X1226180D01*
X1163320Y896280D02*
X1185840Y873760D01*
X1303445Y932740D02*
X1314160D01*
X1300480Y935705D02*
X1303445Y932740D01*
X1300480Y935705D02*
Y995680D01*
X759206Y884463D02*
Y976630D01*
X709930Y835186D02*
X759206Y884463D01*
X709930Y810622D02*
Y835186D01*
Y810622D02*
X711200Y809352D01*
Y770636D02*
Y809352D01*
X650494Y709930D02*
X711200Y770636D01*
X632460Y709930D02*
X650494D01*
X1024890Y603250D02*
X1034542Y593598D01*
X1107440D01*
X1110742Y596900D01*
Y705866D01*
X1433068D02*
Y925056D01*
X1439684Y931672D01*
X1551976D02*
X1558290Y925358D01*
Y847090D02*
Y925358D01*
X414020Y414750D02*
X427450Y401320D01*
X414020Y414750D02*
Y951230D01*
X1689354Y1244092D02*
Y1405636D01*
X370078Y1444498D02*
X379730Y1454150D01*
X370078Y1401826D02*
Y1444498D01*
Y1401826D02*
X388591Y1383313D01*
Y1173166D02*
Y1383313D01*
X358140Y1142714D02*
X388591Y1173166D01*
X358140Y833882D02*
Y1142714D01*
Y833882D02*
X383540Y808482D01*
X713740Y1454150D02*
X723225Y1444665D01*
X748705D01*
X751840Y1447800D01*
Y1455674D01*
X762000Y1465834D01*
X796798D01*
X799592Y1463040D01*
Y1332992D02*
Y1463040D01*
X721868Y1255268D02*
X799592Y1332992D01*
X721868Y891286D02*
Y1255268D01*
X695960Y865378D02*
X721868Y891286D01*
X695960Y786130D02*
Y865378D01*
X1721612Y693995D02*
Y761746D01*
X1727200Y630428D02*
X1818640Y538988D01*
X1874012Y543560D02*
Y625348D01*
X1721612Y693995D02*
X1727200Y688407D01*
Y630428D02*
Y688407D01*
X1818640Y538988D02*
X1869440D01*
X1874012Y543560D01*
X1846580Y652780D02*
X1874012Y625348D01*
X1822450Y973074D02*
Y996950D01*
X1767840Y1051560D02*
X1822450Y996950D01*
X1703070Y901700D02*
X1703430D01*
X1362710Y612860D02*
X1371600D01*
X1377950Y619210D01*
Y687070D01*
X1521460Y900430D02*
Y914400D01*
X1517963Y917897D02*
X1521460Y914400D01*
X1485917Y917897D02*
X1517963D01*
X1468120Y900100D02*
X1485917Y917897D01*
X1371098Y909320D02*
X1393450Y931672D01*
X1366018Y909320D02*
X1371098D01*
X1355598Y919740D02*
X1366018Y909320D01*
X1314160Y919740D02*
X1355598D01*
X1646428Y542346D02*
X1708807D01*
X1662176Y987044D02*
X1684020Y1008888D01*
X1662176Y813562D02*
Y987044D01*
X1526286Y677672D02*
X1662176Y813562D01*
X1526286Y585216D02*
Y677672D01*
Y585216D02*
X1543812Y567690D01*
X1584198D01*
X1689354Y462534D01*
X1752092D01*
X1856994Y357632D01*
Y299574D02*
Y357632D01*
X1854200Y296780D02*
X1856994Y299574D01*
X1830640Y296780D02*
X1854200D01*
X1700276Y1460246D02*
X1704086D01*
X1711452Y1452880D01*
Y961898D02*
Y1452880D01*
Y961898D02*
X1733042Y940308D01*
X1767840D01*
X1779016Y929132D01*
Y839724D02*
Y929132D01*
X1711452Y772160D02*
X1779016Y839724D01*
X1711452Y676910D02*
Y772160D01*
Y676910D02*
X1722120Y666242D01*
Y517398D02*
Y666242D01*
Y517398D02*
X1862074Y377444D01*
Y266592D02*
Y377444D01*
X1842262Y246780D02*
X1862074Y266592D01*
X1830640Y246780D02*
X1842262D01*
X1688796Y660323D02*
Y694486D01*
X1684930Y698352D02*
X1688796Y694486D01*
X1684930Y698352D02*
Y901700D01*
X1657816Y1049740D02*
X1668780D01*
X1654556Y1046480D02*
X1657816Y1049740D01*
X1654556Y904240D02*
Y1046480D01*
X1637792Y887476D02*
X1654556Y904240D01*
X1619504Y887476D02*
X1637792D01*
X1612900Y894080D02*
X1619504Y887476D01*
X1612900Y894080D02*
Y1103630D01*
X1596390Y1120140D02*
X1612900Y1103630D01*
X1688796Y641300D02*
Y660323D01*
X1641856Y594360D02*
X1688796Y641300D01*
X1623060Y594360D02*
X1641856D01*
X1617218Y600202D02*
X1623060Y594360D01*
X1617218Y600202D02*
Y646608D01*
X1630680Y660070D01*
X1537610Y666750D02*
Y675788D01*
X1544320Y682498D01*
X1608252D01*
X1630680Y660070D01*
X1343660Y736600D02*
Y837400D01*
X1310640Y870420D02*
X1343660Y837400D01*
X1296670Y870420D02*
X1310640D01*
X1283970Y857720D02*
X1296670Y870420D01*
X1283970Y737070D02*
Y857720D01*
X1271270Y882650D02*
Y901048D01*
X1259078Y913240D02*
X1271270Y901048D01*
X1246160Y913240D02*
X1259078D01*
X1176020Y971091D02*
Y1041488D01*
X1168400Y963471D02*
X1176020Y971091D01*
X1168400Y906780D02*
Y963471D01*
Y906780D02*
X1195542Y879638D01*
X1212196D01*
X1222756Y890198D01*
X1309624Y526034D02*
X1315974Y519684D01*
Y433864D02*
Y519684D01*
X1232798Y900240D02*
X1246160D01*
X1222756Y890198D02*
X1232798Y900240D01*
X1301750Y860260D02*
X1309624Y852386D01*
Y526034D02*
Y852386D01*
X1302480Y420370D02*
X1315974Y433864D01*
X1480280Y617220D02*
X1493774Y630714D01*
Y906272D01*
X1200150Y942340D02*
X1216089D01*
X1225690Y932740D01*
X1246160D01*
X1623784Y1169670D02*
X1651000D01*
X1623314Y1170140D02*
X1623784Y1169670D01*
X1596390Y1170140D02*
X1623314D01*
X1707296Y615175D02*
Y660323D01*
Y615175D02*
X1708807Y613664D01*
Y568846D02*
Y613664D01*
X1669500Y1123146D02*
Y1169670D01*
X1668780Y1122426D02*
X1669500Y1123146D01*
X1668780Y1076240D02*
Y1122426D01*
X1556110Y621390D02*
Y666750D01*
X1555750Y621030D02*
X1556110Y621390D01*
X1555750Y575860D02*
Y621030D01*
X1514560Y1127548D02*
Y1174750D01*
Y1127548D02*
X1515110Y1126998D01*
Y1080050D02*
Y1126998D01*
X1539960Y852720D02*
Y900430D01*
Y852720D02*
X1540510Y852170D01*
Y804460D02*
Y852170D01*
X1362160Y688128D02*
Y736600D01*
Y688128D02*
X1362710Y687578D01*
Y639360D02*
Y687578D01*
X1376680Y375200D02*
Y469900D01*
X187960Y443160D02*
X197580Y433540D01*
X187960Y443160D02*
Y680460D01*
X201390Y693890D01*
X440690Y727380D02*
Y794258D01*
X469392Y822960D01*
Y967448D01*
X455930Y980910D02*
X469392Y967448D01*
X455930Y980910D02*
X465582Y990562D01*
Y1215098D01*
X452120Y1228560D02*
X465582Y1215098D01*
X766572Y626618D02*
X784860Y608330D01*
X766572Y626618D02*
Y735818D01*
X754360Y748030D02*
X766572Y735818D01*
X754360Y748030D02*
Y773430D01*
X200660Y977100D02*
X211582Y988022D01*
Y1229068D01*
X198120Y1242530D02*
X211582Y1229068D01*
X1197102Y1174242D02*
X1240790Y1217930D01*
X1197102Y999600D02*
Y1174242D01*
Y999600D02*
X1231462Y965240D01*
X1246160D01*
X1538478Y351860D02*
X1563940D01*
X1422908Y467430D02*
X1538478Y351860D01*
X1422908Y467430D02*
Y837799D01*
X1353967Y906740D02*
X1422908Y837799D01*
X1846580Y702780D02*
Y911860D01*
X1859280Y924560D01*
X606806Y535940D02*
Y711200D01*
X618744Y723138D01*
X706120Y778474D02*
Y807248D01*
X704850Y808518D02*
X706120Y807248D01*
X704850Y808518D02*
Y865632D01*
X747268Y908050D02*
Y1208786D01*
X805688Y1267206D01*
Y1444498D01*
X815340Y1454150D01*
X615188Y870458D02*
X632460Y887730D01*
X615188Y731520D02*
Y870458D01*
Y731520D02*
X623570Y723138D01*
X650784D02*
X706120Y778474D01*
X704850Y865632D02*
X747268Y908050D01*
X620325Y850195D02*
X632460Y862330D01*
X620325Y753815D02*
Y850195D01*
Y753815D02*
X625602Y748538D01*
X665961D01*
X685800Y768377D01*
Y877412D01*
X696468Y888080D01*
Y1077722D01*
X703072Y1084326D01*
Y1432560D01*
X710097Y1439585D01*
X775375D01*
X789940Y1454150D01*
X200660Y927100D02*
X284226Y1010666D01*
Y1390650D01*
X605536Y930910D02*
X626364Y951738D01*
X641350D01*
X649675Y960063D01*
X644652Y1006545D02*
Y1097534D01*
X677672Y1130554D02*
Y1443482D01*
X688340Y1454150D01*
X632460Y760730D02*
X649675Y777945D01*
X644652Y1006545D02*
X649675Y1001522D01*
X644652Y1097534D02*
X677672Y1130554D01*
X438658Y1192022D02*
X452120Y1178560D01*
X438658Y1192022D02*
Y1234440D01*
X446278Y1242060D01*
X467360D01*
X478536Y1230884D01*
Y768604D02*
Y1230884D01*
X1192822Y728218D02*
X1283970Y637070D01*
X1000531Y728218D02*
X1192822D01*
X996490Y732259D02*
X1000531Y728218D01*
X996490Y732259D02*
Y753901D01*
X996950Y754361D01*
Y754840D01*
X1012746Y770636D01*
X1022096D01*
X1028700Y777240D01*
Y791080D01*
X1283970Y388880D02*
Y637070D01*
Y388880D02*
X1302480Y370370D01*
X1466850Y580650D02*
X1480280Y567220D01*
X1466850Y580650D02*
Y781304D01*
X1468120Y782574D01*
Y800100D01*
X1596390Y830840D02*
X1626330Y800900D01*
X1596390Y830840D02*
Y1070140D01*
X1184910Y923703D02*
Y948652D01*
X1194997Y958740D01*
X1246160D01*
Y945740D02*
X1259430D01*
X1264158Y950468D01*
Y1080008D01*
X1248410Y1095756D02*
X1264158Y1080008D01*
X1041400Y743080D02*
X1047410Y737070D01*
X1283970D01*
X1302480Y718560D01*
Y470370D02*
Y718560D01*
X1480280Y667220D02*
Y737870D01*
X1481582Y739172D01*
Y886638D01*
X1468120Y900100D02*
X1481582Y886638D01*
X1626330Y900900D02*
Y1140200D01*
X1596390Y1170140D02*
X1626330Y1140200D01*
X1220470Y986028D02*
Y1161542D01*
Y986028D02*
X1234758Y971740D01*
X1246160D01*
X1259078D01*
Y955040D02*
Y971740D01*
X1256278Y952240D02*
X1259078Y955040D01*
X1246160Y952240D02*
X1256278D01*
X1227489Y939240D02*
X1246160D01*
X1214230Y952500D02*
X1227489Y939240D01*
X1195942Y952500D02*
X1214230D01*
X1189990Y946548D02*
X1195942Y952500D01*
X1189990Y938132D02*
Y946548D01*
Y938132D02*
X1196340Y931782D01*
Y904721D02*
Y931782D01*
Y904721D02*
X1200703Y900358D01*
X1245785Y919365D02*
X1246160Y919740D01*
X1212735Y919365D02*
X1245785D01*
X967740Y751586D02*
Y951738D01*
X1013206Y997204D01*
X1128707D01*
X1137920Y987991D01*
Y907796D02*
Y987991D01*
Y907796D02*
X1177036Y868680D01*
X1239012D01*
X1264412Y894080D01*
Y899160D01*
X1256832Y906740D02*
X1264412Y899160D01*
X1246160Y906740D02*
X1256832D01*
X632460Y684530D02*
X729996Y782066D01*
Y805472D01*
X715010Y820458D02*
X729996Y805472D01*
X715010Y820458D02*
Y833082D01*
X731558Y849630D01*
X813308D01*
X938784Y975106D01*
Y1378966D01*
X1027430Y1467612D01*
X1143000D01*
X1149350Y1461262D01*
Y1451610D02*
Y1461262D01*
Y1451610D02*
X1152652Y1448308D01*
X1168400D01*
X1171702Y1451610D01*
Y1463040D01*
X1185672Y1477010D01*
X1219200D01*
X1238250Y1457960D01*
X1253998Y1442212D01*
Y1235070D02*
Y1442212D01*
Y1235070D02*
X1269238Y1219830D01*
Y928624D02*
Y1219830D01*
Y928624D02*
X1304122Y893740D01*
X1314160D01*
X772668Y899922D02*
X784860Y887730D01*
X772668Y899922D02*
Y1122680D01*
X779018Y1129030D01*
X803656D01*
X825508Y1150882D01*
Y1470406D01*
X1363570Y926240D02*
X1367790Y922020D01*
X1314160Y926240D02*
X1363570D01*
X1263650Y1457960D02*
X1276350Y1445260D01*
Y959835D02*
Y1445260D01*
X784860Y938530D02*
X878840Y1032510D01*
Y1441450D01*
X891540Y1454150D01*
X1360932Y999236D02*
X1383538Y976630D01*
Y951178D02*
Y976630D01*
X1371600Y939240D02*
X1383538Y951178D01*
X1314160Y939240D02*
X1371600D01*
X784860Y913130D02*
X902208Y1030478D01*
Y1439418D01*
X916940Y1454150D01*
X1356810Y945740D02*
X1362300Y951230D01*
X1314160Y945740D02*
X1356810D01*
X855707Y1443717D02*
X866140Y1454150D01*
X855707Y1024871D02*
Y1443717D01*
X832866Y1002030D02*
X855707Y1024871D01*
X1328166Y957426D02*
Y1000976D01*
X1322980Y952240D02*
X1328166Y957426D01*
X1314160Y952240D02*
X1322980D01*
X1081024Y1014730D02*
X1152398Y1086104D01*
Y1437640D01*
X1157751Y1442993D01*
X1172483D01*
X1187450Y1457960D01*
X964692Y1141730D02*
Y1389126D01*
X1033526Y1457960D01*
X1060450D01*
X396240Y787654D02*
Y866353D01*
X363220Y899373D02*
X396240Y866353D01*
X363220Y899373D02*
Y1140610D01*
X395478Y1172868D01*
Y1463548D01*
X402844Y1470914D01*
X540766D01*
X557530Y1454150D01*
X784860Y684530D02*
X797052Y672338D01*
Y589534D02*
Y672338D01*
X682498Y474980D02*
X797052Y589534D01*
X604012Y474980D02*
X682498D01*
X591312Y487680D02*
X604012Y474980D01*
X591312Y487680D02*
Y946150D01*
X622300Y977138D01*
X641293D01*
X644595Y980440D01*
Y995991D01*
X638048Y1002538D02*
X644595Y995991D01*
X597916Y1002538D02*
X638048D01*
X576072Y1024382D02*
X597916Y1002538D01*
X576072Y1024382D02*
Y1266952D01*
X544830Y1298194D02*
X576072Y1266952D01*
X544830Y1298194D02*
Y1441450D01*
X532130Y1454150D02*
X544830Y1441450D01*
X784860Y709930D02*
X802132Y692658D01*
Y555244D02*
Y692658D01*
X634746Y387858D02*
X802132Y555244D01*
X414020Y387858D02*
X634746D01*
X406400Y395478D02*
X414020Y387858D01*
X406400Y395478D02*
Y911462D01*
X368300Y949562D02*
X406400Y911462D01*
X368300Y949562D02*
Y1138506D01*
X406400Y1176606D01*
Y1400810D01*
X471678Y1444498D02*
X481330Y1454150D01*
X471678Y1345438D02*
Y1444498D01*
Y1345438D02*
X527304Y1289812D01*
Y801878D02*
Y1289812D01*
X446278Y1444498D02*
X455930Y1454150D01*
X446278Y1345438D02*
Y1444498D01*
Y1345438D02*
X516890Y1274826D01*
Y791464D02*
Y1274826D01*
Y791464D02*
X524256Y784098D01*
X430530Y1454150D02*
X440182Y1463802D01*
X488188D01*
X494030Y1457960D01*
Y1338834D02*
Y1457960D01*
Y1338834D02*
X570992Y1261872D01*
Y901192D02*
Y1261872D01*
X730250Y826770D02*
X744220D01*
X784860Y786130D01*
X405130Y1454150D02*
X416560Y1442720D01*
Y991870D02*
Y1442720D01*
X378460Y953770D02*
X416560Y991870D01*
X784860Y811530D02*
X840232Y756158D01*
Y437642D02*
Y756158D01*
Y437642D02*
X1026014Y251860D01*
X1563940D01*
X1325626Y588264D02*
Y802132D01*
Y588264D02*
X1394460Y519430D01*
Y455784D02*
Y519430D01*
Y455784D02*
X1548384Y301860D01*
X1563940D01*
X926592Y1004062D02*
Y1478026D01*
X784860Y862330D02*
X926592Y1004062D01*
X1798320Y635000D02*
X1798866D01*
X1831086Y602780D01*
X1846580D01*
X671068Y822960D02*
Y1077722D01*
X697992Y1104646D01*
Y1452880D01*
X708914Y1463802D01*
X729488D01*
X739140Y1454150D01*
X784860Y1040130D02*
X850392Y1105662D01*
Y1452880D01*
X886714Y1489202D01*
X1130808D01*
X1162050Y1457960D01*
Y1477265D01*
X1166875Y1482090D01*
X1401572D01*
X1420368Y1463294D01*
Y1289812D02*
Y1463294D01*
Y1289812D02*
X1575816Y1134364D01*
Y1123950D02*
Y1134364D01*
X1136650Y1457960D02*
X1146302Y1446903D01*
Y1116076D02*
Y1446903D01*
X1112520Y1082294D02*
X1146302Y1116076D01*
X1044702Y1090930D02*
X1101598Y1147826D01*
Y1448308D01*
X1111250Y1457960D01*
X1001268Y1125220D02*
X1095502Y1219454D01*
Y1448308D01*
X1085850Y1457960D02*
X1095502Y1448308D01*
X1564132Y1306068D02*
X1598168Y1340104D01*
Y1452118D01*
X1607820Y1461770D01*
X632460Y1192530D02*
X644595Y1180395D01*
Y1162103D02*
Y1180395D01*
X637487Y1154995D02*
X644595Y1162103D01*
X623259Y1154995D02*
X637487D01*
X615188Y1163066D02*
X623259Y1154995D01*
X615188Y1163066D02*
Y1492504D01*
X667512Y1544828D01*
X1499362D01*
X1582420Y1461770D01*
X1607820Y1487170D01*
X1861312D01*
X1880195Y1468287D01*
Y1250275D02*
Y1468287D01*
X1859280Y1229360D02*
X1880195Y1250275D01*
X620268Y1179322D02*
X632460Y1167130D01*
X620268Y1179322D02*
Y1483360D01*
X636270Y1499362D01*
X1519428D01*
X1557020Y1461770D01*
X632460Y1141730D02*
X649675Y1158945D01*
Y1481582D01*
X1506220Y1487170D02*
X1531620Y1461770D01*
X581152Y1167638D02*
X632460Y1116330D01*
X581152Y1167638D02*
Y1545082D01*
X1480820Y1461770D02*
X1490980Y1451610D01*
X1585722D01*
X1592072Y1457960D01*
Y1459738D01*
X1608582Y1476248D01*
X1858010D01*
X1875115Y1459143D01*
Y1264753D02*
Y1459143D01*
X1846970Y1236608D02*
X1875115Y1264753D01*
X1846970Y1203570D02*
Y1236608D01*
Y1203570D02*
X1859280Y1191260D01*
X620268Y1077722D02*
X632460Y1065530D01*
X620268Y1077722D02*
Y1097280D01*
X627126Y1104138D01*
X641350D01*
X654755Y1117543D01*
Y1463745D01*
X685292Y1494282D01*
X1422908D01*
X1455420Y1461770D01*
X1388872Y1155954D02*
Y1446022D01*
X1404620Y1461770D01*
X182880Y1479550D02*
X190500D01*
X148590Y1452880D02*
X163830D01*
X2100580Y1412240D02*
Y1449070D01*
Y1412240D02*
X2128520Y1384300D01*
X1593850Y1289048D02*
Y1299205D01*
X1598928Y1304283D01*
X1604007Y1299205D01*
Y1289048D01*
Y1296666D01*
X1593850D01*
X1609085Y1289048D02*
Y1299205D01*
X1616703D01*
X1619242Y1296666D01*
Y1289048D01*
X1626859Y1299205D02*
X1631938D01*
X1634477Y1296666D01*
Y1289048D01*
X1626859D01*
X1624320Y1291588D01*
X1626859Y1294127D01*
X1634477D01*
X1639555Y1289048D02*
X1644634D01*
X1642094D01*
Y1304283D01*
X1639555D01*
X1654790Y1289048D02*
X1659869D01*
X1662408Y1291588D01*
Y1296666D01*
X1659869Y1299205D01*
X1654790D01*
X1652251Y1296666D01*
Y1291588D01*
X1654790Y1289048D01*
X1672565Y1283970D02*
X1675104D01*
X1677643Y1286509D01*
Y1299205D01*
X1670025D01*
X1667486Y1296666D01*
Y1291588D01*
X1670025Y1289048D01*
X1677643D01*
X293370Y1271263D02*
Y1256028D01*
X300987D01*
X303527Y1258568D01*
Y1268724D01*
X300987Y1271263D01*
X293370D01*
X308605Y1256028D02*
X313683D01*
X311144D01*
Y1266185D01*
X308605D01*
X326379Y1250950D02*
X328918D01*
X331458Y1253489D01*
Y1266185D01*
X323840D01*
X321301Y1263646D01*
Y1258568D01*
X323840Y1256028D01*
X331458D01*
X336536D02*
X341614D01*
X339075D01*
Y1266185D01*
X336536D01*
X351771Y1268724D02*
Y1266185D01*
X349232D01*
X354310D01*
X351771D01*
Y1258568D01*
X354310Y1256028D01*
X364467Y1266185D02*
X369545D01*
X372085Y1263646D01*
Y1256028D01*
X364467D01*
X361928Y1258568D01*
X364467Y1261107D01*
X372085D01*
X377163Y1256028D02*
X382241D01*
X379702D01*
Y1271263D01*
X377163D01*
D15*
X1846580Y552780D02*
D03*
X1563940Y201860D02*
D03*
X1830640Y196780D02*
D03*
D16*
X1246160Y978240D02*
D03*
X1314160Y900240D02*
D03*
Y893740D02*
D03*
Y913240D02*
D03*
Y919740D02*
D03*
Y926240D02*
D03*
Y932740D02*
D03*
Y939240D02*
D03*
Y945740D02*
D03*
Y952240D02*
D03*
Y958740D02*
D03*
Y965240D02*
D03*
Y971740D02*
D03*
Y978240D02*
D03*
X1246160Y893740D02*
D03*
Y900240D02*
D03*
Y906740D02*
D03*
Y913240D02*
D03*
Y919740D02*
D03*
Y926240D02*
D03*
Y932740D02*
D03*
Y939240D02*
D03*
Y945740D02*
D03*
Y952240D02*
D03*
Y958740D02*
D03*
Y971740D02*
D03*
Y965240D02*
D03*
X1314160Y906740D02*
D03*
D17*
X1016000Y743080D02*
D03*
X1003300D02*
D03*
X1028700D02*
D03*
X1041400D02*
D03*
X1003300Y791080D02*
D03*
X1016000D02*
D03*
X1028700D02*
D03*
X1041400D02*
D03*
D18*
X1555750Y549360D02*
D03*
Y575860D02*
D03*
X1703070Y783040D02*
D03*
Y809540D02*
D03*
X1376680Y348700D02*
D03*
Y375200D02*
D03*
X1668780Y1049740D02*
D03*
Y1076240D02*
D03*
X1708807Y542346D02*
D03*
Y568846D02*
D03*
X1515110Y1053550D02*
D03*
Y1080050D02*
D03*
X1540510Y777960D02*
D03*
Y804460D02*
D03*
X1362710Y612860D02*
D03*
Y639360D02*
D03*
D19*
X1669500Y1169670D02*
D03*
X1651000D02*
D03*
X1703430Y901700D02*
D03*
X1684930D02*
D03*
X1556110Y666750D02*
D03*
X1537610D02*
D03*
X1707296Y660323D02*
D03*
X1688796D02*
D03*
X1514560Y1174750D02*
D03*
X1496060D02*
D03*
X1539960Y900430D02*
D03*
X1521460D02*
D03*
X1362160Y736600D02*
D03*
X1343660D02*
D03*
X1376680Y469900D02*
D03*
X1358180D02*
D03*
D20*
X1830640Y296780D02*
D03*
Y246780D02*
D03*
Y346780D02*
D03*
X1846580Y702780D02*
D03*
X1563940Y351860D02*
D03*
Y251860D02*
D03*
Y301860D02*
D03*
X1846580Y602780D02*
D03*
Y652780D02*
D03*
D29*
X1967230Y1454150D02*
D03*
X916940D02*
D03*
X557530D02*
D03*
X1289050Y1457960D02*
D03*
X1633220Y1461770D02*
D03*
D30*
X1941830Y1454150D02*
D03*
X1916430D02*
D03*
X1891030D02*
D03*
X1865630D02*
D03*
X1840230D02*
D03*
X1814830D02*
D03*
X1738630D02*
D03*
X1967230Y1428750D02*
D03*
X1941830D02*
D03*
X1916430D02*
D03*
X1891030D02*
D03*
X1865630D02*
D03*
X1840230D02*
D03*
X1814830D02*
D03*
X1789430D02*
D03*
X1764030D02*
D03*
X1738630D02*
D03*
X1789430Y1454150D02*
D03*
X1764030D02*
D03*
X688340Y1428750D02*
D03*
X713740D02*
D03*
X739140D02*
D03*
X764540D02*
D03*
X789940D02*
D03*
X815340D02*
D03*
X840740D02*
D03*
X866140D02*
D03*
X891540D02*
D03*
X916940D02*
D03*
X688340Y1454150D02*
D03*
X713740D02*
D03*
X739140D02*
D03*
X764540D02*
D03*
X789940D02*
D03*
X815340D02*
D03*
X840740D02*
D03*
X866140D02*
D03*
X891540D02*
D03*
X328930Y1428750D02*
D03*
X354330D02*
D03*
X379730D02*
D03*
X405130D02*
D03*
X430530D02*
D03*
X455930D02*
D03*
X481330D02*
D03*
X506730D02*
D03*
X532130D02*
D03*
X557530D02*
D03*
X328930Y1454150D02*
D03*
X354330D02*
D03*
X379730D02*
D03*
X405130D02*
D03*
X430530D02*
D03*
X455930D02*
D03*
X481330D02*
D03*
X506730D02*
D03*
X532130D02*
D03*
X1060450Y1432560D02*
D03*
X1085850D02*
D03*
X1111250D02*
D03*
X1136650D02*
D03*
X1162050D02*
D03*
X1187450D02*
D03*
X1212850D02*
D03*
X1238250D02*
D03*
X1263650D02*
D03*
X1289050D02*
D03*
X1060450Y1457960D02*
D03*
X1085850D02*
D03*
X1111250D02*
D03*
X1136650D02*
D03*
X1162050D02*
D03*
X1187450D02*
D03*
X1212850D02*
D03*
X1238250D02*
D03*
X1263650D02*
D03*
X1742440Y1076960D02*
D03*
Y1051560D02*
D03*
Y1026160D02*
D03*
Y1000760D02*
D03*
Y975360D02*
D03*
Y949960D02*
D03*
Y924560D02*
D03*
Y899160D02*
D03*
Y873760D02*
D03*
Y848360D02*
D03*
X1767840Y1076960D02*
D03*
Y1051560D02*
D03*
Y1026160D02*
D03*
Y1000760D02*
D03*
Y975360D02*
D03*
Y949960D02*
D03*
Y924560D02*
D03*
Y899160D02*
D03*
Y873760D02*
D03*
X1404620Y1436370D02*
D03*
X1430020D02*
D03*
X1455420D02*
D03*
X1480820D02*
D03*
X1506220D02*
D03*
X1531620D02*
D03*
X1557020D02*
D03*
X1582420D02*
D03*
X1607820D02*
D03*
X1633220D02*
D03*
X1404620Y1461770D02*
D03*
X1430020D02*
D03*
X1455420D02*
D03*
X1480820D02*
D03*
X1506220D02*
D03*
X1531620D02*
D03*
X1557020D02*
D03*
X1582420D02*
D03*
X1607820D02*
D03*
D32*
X1073150Y333930D02*
D03*
D34*
X1859280Y962660D02*
D03*
Y1115060D02*
D03*
Y924560D02*
D03*
X1973280Y1248360D02*
D03*
Y1210260D02*
D03*
Y1172160D02*
D03*
Y1134060D02*
D03*
Y1095960D02*
D03*
Y1057860D02*
D03*
Y1019760D02*
D03*
Y981660D02*
D03*
Y943560D02*
D03*
Y905460D02*
D03*
X1859280Y1229360D02*
D03*
Y1191260D02*
D03*
Y1153160D02*
D03*
Y1076960D02*
D03*
Y1038860D02*
D03*
Y1000760D02*
D03*
D37*
Y886460D02*
D03*
D38*
X1073150Y129030D02*
D03*
D40*
X1767840Y848360D02*
D03*
D43*
X1024890Y450850D02*
D03*
Y603250D02*
D03*
X1101090D02*
D03*
D44*
Y450850D02*
D03*
D45*
X657860Y1065530D02*
D03*
X683260D02*
D03*
X759460D02*
D03*
X754360Y697230D02*
D03*
X632460Y989330D02*
D03*
X754360Y671830D02*
D03*
X632460Y608330D02*
D03*
X754360Y722630D02*
D03*
X784860Y633730D02*
D03*
Y963930D02*
D03*
X708660Y1065530D02*
D03*
X754360Y773430D02*
D03*
Y748030D02*
D03*
X632460Y963930D02*
D03*
X784860Y608330D02*
D03*
X632460Y633730D02*
D03*
X657860D02*
D03*
X632460Y659130D02*
D03*
X734060Y1065530D02*
D03*
X632460Y1014730D02*
D03*
Y1040130D02*
D03*
Y1065530D02*
D03*
Y1090930D02*
D03*
Y1116330D02*
D03*
Y1141730D02*
D03*
Y1167130D02*
D03*
Y1192530D02*
D03*
X784860D02*
D03*
Y1167130D02*
D03*
Y1141730D02*
D03*
Y1116330D02*
D03*
Y1090930D02*
D03*
Y1065530D02*
D03*
Y1040130D02*
D03*
Y1014730D02*
D03*
Y989330D02*
D03*
X632460Y684530D02*
D03*
Y709930D02*
D03*
Y735330D02*
D03*
Y760730D02*
D03*
Y786130D02*
D03*
Y811530D02*
D03*
Y836930D02*
D03*
Y862330D02*
D03*
Y887730D02*
D03*
Y913130D02*
D03*
Y938530D02*
D03*
X784860D02*
D03*
Y913130D02*
D03*
Y887730D02*
D03*
Y862330D02*
D03*
Y836930D02*
D03*
Y811530D02*
D03*
Y786130D02*
D03*
Y760730D02*
D03*
Y735330D02*
D03*
Y709930D02*
D03*
Y684530D02*
D03*
Y659130D02*
D03*
D46*
X440690Y677380D02*
D03*
X452120Y1128560D02*
D03*
X198120Y1142530D02*
D03*
X455930Y880910D02*
D03*
X200660Y877100D02*
D03*
X440690Y627380D02*
D03*
X201390Y593890D02*
D03*
X427450Y351320D02*
D03*
X197580Y333540D02*
D03*
X1882140Y158780D02*
D03*
Y384780D02*
D03*
X198120Y1242530D02*
D03*
X452120Y1228560D02*
D03*
X455930Y980910D02*
D03*
X200660Y977100D02*
D03*
X440690Y727380D02*
D03*
X201390Y693890D02*
D03*
X427450Y451320D02*
D03*
X197580Y433540D02*
D03*
X1615440Y389860D02*
D03*
Y163860D02*
D03*
X1898080Y740780D02*
D03*
Y514780D02*
D03*
X1596390Y1170140D02*
D03*
Y1120140D02*
D03*
Y1070140D02*
D03*
X1626330Y900900D02*
D03*
Y850900D02*
D03*
Y800900D02*
D03*
X1480280Y667220D02*
D03*
Y617220D02*
D03*
Y567220D02*
D03*
X1630680Y660070D02*
D03*
Y610070D02*
D03*
Y560070D02*
D03*
X1440180Y1173950D02*
D03*
Y1123950D02*
D03*
Y1073950D02*
D03*
X1468120Y900100D02*
D03*
Y850100D02*
D03*
Y800100D02*
D03*
X1283970Y737070D02*
D03*
Y687070D02*
D03*
Y637070D02*
D03*
X1302480Y470370D02*
D03*
Y420370D02*
D03*
Y370370D02*
D03*
X452120Y1178560D02*
D03*
X455930Y930910D02*
D03*
X427450Y401320D02*
D03*
X200660Y927100D02*
D03*
X201390Y643890D02*
D03*
X197580Y383540D02*
D03*
X198120Y1192530D02*
D03*
D47*
X1052830Y964800D02*
D03*
Y913800D02*
D03*
Y939800D02*
D03*
D48*
X1240790Y1182930D02*
D03*
X976860Y1194080D02*
D03*
D49*
X1240790Y1217930D02*
D03*
X976860Y1229080D02*
D03*
D50*
X1727962Y1016254D02*
D03*
X1008126Y1027938D02*
D03*
X1800352Y883802D02*
D03*
X1727962Y962660D02*
D03*
X1246160Y988314D02*
D03*
X988060Y707390D02*
D03*
X1721612Y1387602D02*
D03*
X1153160Y926864D02*
D03*
X989076Y1398270D02*
D03*
X1903476Y488950D02*
D03*
X1021334Y963676D02*
D03*
X1024890Y501720D02*
D03*
X1184910Y923703D02*
D03*
X1186942Y1006204D02*
D03*
X1672336Y976884D02*
D03*
X1573022Y991108D02*
D03*
X1163320Y983852D02*
D03*
X1300480Y995680D02*
D03*
X759206Y976630D02*
D03*
X1110742Y705866D02*
D03*
X1433068D02*
D03*
X1558290Y847090D02*
D03*
X414020Y951230D02*
D03*
X1689354Y1244092D02*
D03*
X383540Y808482D02*
D03*
X695960Y786130D02*
D03*
X1721612Y761746D02*
D03*
X1822450Y973074D02*
D03*
X1377950Y687070D02*
D03*
X1646428Y542346D02*
D03*
X1700276Y1460246D02*
D03*
X1271270Y882650D02*
D03*
X1176020Y1041488D02*
D03*
X1301750Y860260D02*
D03*
X1222756Y890198D02*
D03*
X1493774Y906272D02*
D03*
X1200150Y942340D02*
D03*
X606806Y535940D02*
D03*
X284226Y1390650D02*
D03*
X605536Y930910D02*
D03*
X478536Y768604D02*
D03*
X1248410Y1095756D02*
D03*
X1220470Y1161542D02*
D03*
X1200703Y900358D02*
D03*
X1212735Y919365D02*
D03*
X967740Y751586D02*
D03*
X825508Y1470406D02*
D03*
X1367790Y922020D02*
D03*
X1360932Y999236D02*
D03*
X1362300Y951230D02*
D03*
X832866Y1002030D02*
D03*
X1328166Y1000976D02*
D03*
X1081024Y1014730D02*
D03*
X964692Y1141730D02*
D03*
X396240Y787654D02*
D03*
X406400Y1400810D02*
D03*
X527304Y801878D02*
D03*
X524256Y784098D02*
D03*
X570992Y901192D02*
D03*
X730250Y826770D02*
D03*
X378460Y953770D02*
D03*
X1325626Y802132D02*
D03*
X926592Y1478026D02*
D03*
X1798320Y635000D02*
D03*
X671068Y822960D02*
D03*
X1575816Y1123950D02*
D03*
X1112520Y1082294D02*
D03*
X1044702Y1090930D02*
D03*
X1001268Y1125220D02*
D03*
X1564132Y1306068D02*
D03*
X649675Y1481582D02*
D03*
X1506220Y1487170D02*
D03*
X581152Y1545082D02*
D03*
X1388872Y1155954D02*
D03*
D51*
X168910Y1445260D02*
D03*
X2125980Y143510D02*
D03*
X2131060Y1446530D02*
D03*
X144780Y134620D02*
D03*
M02*
