G04*
G04 #@! TF.GenerationSoftware,Altium Limited,Altium Designer,25.8.1 (18)*
G04*
G04 Layer_Physical_Order=1*
G04 Layer_Color=255*
%FSLAX44Y44*%
%MOMM*%
G71*
G04*
G04 #@! TF.SameCoordinates,1CB4CA92-3C3F-48A4-B028-BF96C05B1928*
G04*
G04*
G04 #@! TF.FilePolarity,Positive*
G04*
G01*
G75*
%ADD14C,0.2540*%
G04:AMPARAMS|DCode=15|XSize=1.4mm|YSize=4.5mm|CornerRadius=0.35mm|HoleSize=0mm|Usage=FLASHONLY|Rotation=90.000|XOffset=0mm|YOffset=0mm|HoleType=Round|Shape=RoundedRectangle|*
%AMROUNDEDRECTD15*
21,1,1.4000,3.8000,0,0,90.0*
21,1,0.7000,4.5000,0,0,90.0*
1,1,0.7000,1.9000,0.3500*
1,1,0.7000,1.9000,-0.3500*
1,1,0.7000,-1.9000,-0.3500*
1,1,0.7000,-1.9000,0.3500*
%
%ADD15ROUNDEDRECTD15*%
%ADD16O,1.8000X0.4500*%
%ADD17O,0.6000X2.2000*%
%ADD18R,1.6000X0.8500*%
%ADD19R,1.5000X1.5500*%
%ADD20R,4.5000X1.4000*%
%ADD29R,1.1350X1.1350*%
%ADD30C,1.1350*%
%ADD32C,2.1450*%
%ADD34C,1.7000*%
%ADD37R,1.7000X1.7000*%
%ADD38R,2.1450X2.1450*%
%ADD40R,1.1350X1.1350*%
%ADD43C,1.1580*%
%ADD44R,1.1580X1.1580*%
%ADD45C,1.6650*%
%ADD46C,1.9000*%
%ADD47C,1.6000*%
G04:AMPARAMS|DCode=48|XSize=1.65mm|YSize=1.65mm|CornerRadius=0.4125mm|HoleSize=0mm|Usage=FLASHONLY|Rotation=90.000|XOffset=0mm|YOffset=0mm|HoleType=Round|Shape=RoundedRectangle|*
%AMROUNDEDRECTD48*
21,1,1.6500,0.8250,0,0,90.0*
21,1,0.8250,1.6500,0,0,90.0*
1,1,0.8250,0.4125,0.4125*
1,1,0.8250,0.4125,-0.4125*
1,1,0.8250,-0.4125,-0.4125*
1,1,0.8250,-0.4125,0.4125*
%
%ADD48ROUNDEDRECTD48*%
%ADD49C,1.6500*%
%ADD50C,1.2700*%
%ADD51C,20.0000*%
D14*
X1859280Y1210310D02*
X1859534D01*
X1871590Y1222366D01*
X1540510Y900980D02*
Y920750D01*
X1539960Y900430D02*
X1540510Y900980D01*
X617220Y770890D02*
X632460Y786130D01*
X617220Y646430D02*
Y770890D01*
X765810Y1085850D02*
X767731Y1083929D01*
Y1075690D02*
X769001Y1074420D01*
X767731Y1075690D02*
Y1083929D01*
X769001Y1073150D02*
Y1074420D01*
X755650Y1081642D02*
X759460Y1077832D01*
X755650Y1081642D02*
Y1168140D01*
X759460Y1171950D01*
X769001Y1073150D02*
X772160Y1069992D01*
X759460Y1065530D02*
Y1077832D01*
Y1171950D02*
Y1268222D01*
X772160Y1056132D02*
Y1069992D01*
X800100Y872759D02*
X802075Y870784D01*
X800100Y872759D02*
Y900430D01*
X802075Y727145D02*
Y870784D01*
X1779778Y1008542D02*
Y1031075D01*
X1786681Y1002030D02*
X1789430D01*
X1781574Y1006746D02*
X1781964D01*
X1779778Y1008542D02*
X1781574Y1006746D01*
X1781964D02*
X1786681Y1002030D01*
X1239261Y979145D02*
X1240166Y978240D01*
X1219200Y1036357D02*
X1228852Y1046009D01*
X1214120Y1038462D02*
X1217676Y1042018D01*
Y1194816D01*
X1229360Y996950D02*
X1239261Y987049D01*
X1228852Y1046009D02*
Y1148334D01*
X1217676Y1194816D02*
X1240790Y1217930D01*
X1219200Y986980D02*
Y1036357D01*
X1214120Y984544D02*
X1233424Y965240D01*
X1240166Y978240D02*
X1246160D01*
X1214120Y984544D02*
Y1038462D01*
X1239261Y979145D02*
Y987049D01*
X1219200Y986980D02*
X1234440Y971740D01*
X552450Y795020D02*
Y797196D01*
X558546Y803292D02*
Y915089D01*
X552450Y797196D02*
X558546Y803292D01*
X454114Y677380D02*
X596900Y820166D01*
Y953770D01*
X440690Y677380D02*
X454114D01*
X830790Y1013924D02*
X836930Y1020064D01*
X816610Y1005840D02*
X824694Y1013924D01*
X830790D01*
X1514560Y1174750D02*
X1515110Y1174200D01*
Y1134110D02*
X1523130Y1126090D01*
X1525924D01*
X1532000Y1120014D01*
X1515110Y1134110D02*
Y1174200D01*
X1393484Y906740D02*
X1449730Y850494D01*
X1360424Y939800D02*
X1393484Y906740D01*
X1804162Y236220D02*
X1807464Y232918D01*
X1688522Y351860D02*
X1804162Y236220D01*
X760730Y685038D02*
X762254D01*
X743204D02*
X760730D01*
X1779778Y1031075D02*
Y1438402D01*
X953008Y604266D02*
X961136Y596138D01*
X1676654Y1076240D02*
Y1105408D01*
X1521460Y1025652D02*
X1533144Y1037336D01*
X1638560Y913130D02*
X1644100Y918670D01*
X1041400Y752353D02*
X1121508D01*
X1480280Y603028D02*
X1543812Y539496D01*
X1631277Y610667D02*
X1673098Y568846D01*
X1617218Y624726D02*
X1631277Y610667D01*
X1159002Y925068D02*
Y1321054D01*
Y893740D02*
Y925068D01*
X1264412Y998220D02*
Y1026160D01*
X1253998Y1008634D02*
Y1442212D01*
X1282394Y932740D02*
X1314160D01*
X1282394D02*
X1287272Y927862D01*
X1722541Y1361440D02*
Y1372449D01*
X1669500Y1129072D02*
X1675892Y1122680D01*
X777422Y615768D02*
X784860Y608330D01*
X769201Y615768D02*
X777422D01*
X766572Y618397D02*
X769201Y615768D01*
X766572Y618397D02*
Y680720D01*
X762254Y685038D02*
X766572Y680720D01*
X708660Y719582D02*
Y1065530D01*
X1808042Y346780D02*
X1830640D01*
X1804162Y342900D02*
X1808042Y346780D01*
X1804162Y236220D02*
Y342900D01*
X1846580Y702780D02*
X1911604Y637756D01*
X1563940Y351860D02*
X1688522D01*
X1807464Y232918D02*
X1900682D01*
X1911604Y243840D01*
Y637756D01*
X1846580Y702780D02*
Y911860D01*
X1859280Y924560D01*
X961136Y596138D02*
X1036574Y520700D01*
Y400812D02*
X1040130Y143510D01*
X1053084Y130556D01*
Y81280D02*
X1063244Y71120D01*
X1414596D02*
X1545336Y201860D01*
X1563940D01*
X1764030Y1454150D02*
X1779778Y1438402D01*
X754888Y1444498D02*
X764540Y1454150D01*
X754888Y1392682D02*
Y1444498D01*
X696468Y1334262D02*
X754888Y1392682D01*
X696468Y836930D02*
Y1334262D01*
X1672844Y1109218D02*
X1676654Y1105408D01*
X1668780Y1076240D02*
X1676654D01*
X1468120Y900100D02*
X1494460D01*
X1521460Y900430D01*
X1638560Y913130D02*
X1678220D01*
X1626330Y900900D02*
X1638560Y913130D01*
X1703070Y809540D02*
X1711960D01*
X1719834Y817414D01*
Y892556D01*
X1758355Y940475D02*
X1767840Y949960D01*
X1758355Y556935D02*
Y940475D01*
X1730248Y528828D02*
X1758355Y556935D01*
X1554480Y528828D02*
X1730248D01*
X1480280Y603028D02*
Y617220D01*
X1753275Y960795D02*
X1767840Y975360D01*
X1753275Y810681D02*
Y960795D01*
X1617218Y674624D02*
X1753275Y810681D01*
X1617218Y624726D02*
Y674624D01*
X1630680Y610070D02*
X1631277Y610667D01*
X1673098Y568846D02*
X1708807D01*
X1440180Y1123950D02*
X1460246Y1103884D01*
Y996188D02*
Y1103884D01*
X1426718Y1137412D02*
X1440180Y1123950D01*
X1426718Y1137412D02*
Y1185926D01*
X1432560Y1191768D01*
X1524000D01*
X1537208Y1178560D01*
Y1055624D02*
Y1178560D01*
X1527048Y1045464D02*
X1537208Y1055624D01*
X1503172Y1045464D02*
X1527048D01*
X1503172D02*
Y1077002D01*
X1515110Y1080050D01*
X1203198Y1448308D02*
X1212850Y1457960D01*
X1203198Y1365250D02*
Y1448308D01*
X1159002Y1321054D02*
X1203198Y1365250D01*
X1211412Y893740D02*
X1246160D01*
X1314160Y926240D02*
X1342546D01*
X907455Y1463635D02*
X916940Y1454150D01*
X882142Y1463635D02*
X907455D01*
X875792Y1457285D02*
X882142Y1463635D01*
X875792Y1447800D02*
Y1457285D01*
X872744Y1444752D02*
X875792Y1447800D01*
X868728Y1444752D02*
X872744D01*
X856655Y1432679D02*
X868728Y1444752D01*
X856655Y1407327D02*
Y1432679D01*
X847090Y1397762D02*
X856655Y1407327D01*
X847090Y1010920D02*
Y1397762D01*
X812292Y976122D02*
X847090Y1010920D01*
X1346200Y966060D02*
Y987044D01*
X1325880Y945740D02*
X1346200Y966060D01*
X1314160Y945740D02*
X1325880D01*
X850392Y1438402D02*
X866140Y1454150D01*
X850392Y1408430D02*
Y1438402D01*
X836930Y1394968D02*
X850392Y1408430D01*
X836930Y1020064D02*
Y1394968D01*
X1327150Y955040D02*
Y1021588D01*
X1324350Y952240D02*
X1327150Y955040D01*
X1314160Y952240D02*
X1324350D01*
X1016000Y743080D02*
Y755396D01*
X1032764Y772160D01*
X1042670D01*
X1052830Y782320D01*
Y913800D01*
X1437640Y508254D02*
Y823214D01*
X1314160Y900240D02*
X1360614D01*
X1435862Y824992D01*
X1767840Y873760D02*
X1777325Y864275D01*
Y567269D02*
Y864275D01*
X1728724Y518668D02*
X1777325Y567269D01*
X1465072Y518668D02*
X1728724D01*
X1454810Y528930D02*
X1465072Y518668D01*
X1454810Y528930D02*
Y889610D01*
X1390904Y953516D02*
X1454810Y889610D01*
X1350264Y932942D02*
Y947420D01*
X1327404Y919740D02*
X1331982Y915162D01*
X1314160Y919740D02*
X1327404D01*
X427450Y401320D02*
X629412D01*
X797052Y568960D01*
Y614680D01*
X790702Y621030D02*
X797052Y614680D01*
X773176Y621030D02*
X790702D01*
X772668Y621538D02*
X773176Y621030D01*
X772668Y621538D02*
Y843280D01*
X779018Y849630D01*
X791464D01*
X796995Y855161D01*
Y868680D01*
X791153Y874522D02*
X796995Y868680D01*
X780906Y874522D02*
X791153D01*
X771652Y883776D02*
X780906Y874522D01*
X771652Y883776D02*
Y920750D01*
X777240Y926338D01*
X797052D02*
X862838Y992124D01*
Y1061720D01*
X906018Y1104900D01*
Y1280414D01*
X1197102Y1427480D02*
Y1448308D01*
X771652Y1001522D02*
X784860Y1014730D01*
X771652Y931926D02*
Y1001522D01*
Y931926D02*
X777240Y926338D01*
X797052D01*
X906018Y1280414D02*
X1046734Y1421130D01*
X1190752D01*
X1197102Y1427480D01*
X1187450Y1457960D02*
X1197102Y1448308D01*
X772668Y1153922D02*
X784860Y1141730D01*
X772668Y1153922D02*
Y1380744D01*
X797560Y1405636D01*
X814070D01*
X821436Y1398270D01*
X1856124Y246780D02*
X1863344Y254000D01*
X1661160Y1348740D02*
X1684869Y1372449D01*
X1711531D01*
X1722541Y1361440D01*
Y995680D02*
Y1361440D01*
X1733375Y984845D02*
X1772920D01*
X1782405Y975360D01*
Y432221D02*
Y975360D01*
Y432221D02*
X1856994Y357632D01*
Y323134D02*
Y357632D01*
X1830640Y296780D02*
X1856994Y323134D01*
X1633220Y1461770D02*
X1722541Y1372449D01*
Y995680D02*
X1733375Y984845D01*
X532130Y1454150D02*
X541782Y1444498D01*
Y931853D02*
Y1444498D01*
Y931853D02*
X558546Y915089D01*
X757428Y889762D02*
Y1010666D01*
Y889762D02*
X784860Y862330D01*
X1151295Y1468715D02*
X1162050Y1457960D01*
X864703Y1468715D02*
X1151295D01*
X853440Y1457452D02*
X864703Y1468715D01*
X853440Y1449578D02*
Y1457452D01*
X847090Y1443228D02*
X853440Y1449578D01*
X841756Y1443228D02*
X847090D01*
X831088Y1432560D02*
X841756Y1443228D01*
X831088Y1432560D02*
X831596Y1408372D01*
Y1070102D02*
Y1408372D01*
X814832Y1053338D02*
X831596Y1070102D01*
X1207516Y1259332D02*
X1227582Y1279398D01*
Y1463040D01*
X1182624Y1468374D02*
X1222248D01*
X1480820Y1461770D02*
X1490472Y1471422D01*
X1563370D01*
X1566672Y1468120D01*
Y1298448D02*
Y1468120D01*
Y1298448D02*
X1587500Y1277620D01*
X1604010D01*
X1672844Y1208786D01*
X620268Y1077722D02*
X632460Y1065530D01*
X620268Y1077722D02*
Y1331468D01*
X701040Y1412240D01*
Y1478788D01*
X1828546Y1012952D02*
X1828800Y1013206D01*
X1860296D01*
X1876806Y1029716D01*
Y1439926D01*
X1891030Y1454150D01*
X991362Y773083D02*
Y1317752D01*
X986330Y768050D02*
X991362Y773083D01*
X986330Y607012D02*
Y768050D01*
Y607012D02*
X1073150Y520192D01*
Y333930D02*
Y520192D01*
X1669500Y1129072D02*
Y1169670D01*
X1684833Y1065793D02*
Y1113739D01*
X1668780Y1049740D02*
X1684833Y1065793D01*
X1227484Y945740D02*
X1246160D01*
X1193546Y979678D02*
X1227484Y945740D01*
X1193546Y979678D02*
Y1016000D01*
X1178306Y1031240D02*
X1193546Y1016000D01*
X1178306Y1031240D02*
Y1099820D01*
X1654260Y1114806D02*
X1655234D01*
X1663108Y1122680D01*
X1675892D01*
X1684833Y1113739D01*
X1703070Y783040D02*
Y791210D01*
X1729994Y818134D01*
Y897890D01*
X1714754Y913130D02*
X1729994Y897890D01*
X1696720Y913130D02*
X1714754D01*
X1246160Y932740D02*
X1255978D01*
X1302258Y886460D01*
X1341374D01*
X1425702Y802132D01*
X1547114Y750062D02*
X1556110Y741066D01*
Y666750D02*
Y741066D01*
X1181856Y919740D02*
X1246160D01*
X1169162Y932434D02*
X1181856Y919740D01*
X1169162Y932434D02*
Y1014222D01*
X1167384Y1116838D02*
X1169162Y1014222D01*
X1167384Y1116838D02*
X1174750Y1124204D01*
X1532000Y1070440D02*
Y1120014D01*
X1515110Y1053550D02*
X1532000Y1070440D01*
X1651000Y1131358D02*
Y1169670D01*
X1644100Y1124458D02*
X1651000Y1131358D01*
X1644100Y918670D02*
Y1124458D01*
X1656842Y1076240D02*
X1668780D01*
X1656842Y985774D02*
Y1076240D01*
Y985774D02*
X1702308Y940308D01*
X187960Y443160D02*
X197580Y433540D01*
X187960Y443160D02*
Y680460D01*
X201390Y693890D01*
X440690Y727380D02*
X469392Y756082D01*
Y967448D01*
X455930Y980910D02*
X469392Y967448D01*
X455930Y980910D02*
X465582Y990562D01*
Y1215098D01*
X452120Y1228560D02*
X465582Y1215098D01*
X1091438Y593598D02*
X1101090Y603250D01*
X1091438Y147318D02*
Y593598D01*
X1073150Y129030D02*
X1091438Y147318D01*
X754360Y748030D02*
Y773430D01*
X200660Y977100D02*
X216510Y992950D01*
Y1224140D01*
X198120Y1242530D02*
X216510Y1224140D01*
X991410Y712930D02*
X1101090Y603250D01*
X991410Y712930D02*
Y757938D01*
X996442Y762970D01*
Y883412D01*
X1052830Y939800D01*
X754360Y748030D02*
X766572Y735818D01*
Y690880D02*
Y735818D01*
X760730Y685038D02*
X766572Y690880D01*
X708660Y719582D02*
X743204Y685038D01*
X1001522Y991108D02*
X1052830Y939800D01*
X1001522Y991108D02*
Y1325880D01*
X996442Y1330960D02*
X1001522Y1325880D01*
X987020Y1330960D02*
X996442D01*
X976860Y1320800D02*
X987020Y1330960D01*
X976860Y1229080D02*
Y1320800D01*
X1449730Y412598D02*
Y850494D01*
Y412598D02*
X1510468Y351860D01*
X1563940D01*
X1314160Y906740D02*
X1393484D01*
X1233424Y965240D02*
X1246160D01*
X197580Y333540D02*
X211074Y347034D01*
Y584206D01*
X201390Y593890D02*
X211074Y584206D01*
X427228Y640842D02*
X440690Y627380D01*
X427228Y640842D02*
Y852208D01*
X455930Y880910D01*
X632460Y608330D02*
X690860D01*
X754360Y671830D01*
X442468Y894372D02*
X455930Y880910D01*
X442468Y894372D02*
Y1118908D01*
X452120Y1128560D01*
X187198Y890562D02*
X200660Y877100D01*
X187198Y890562D02*
Y1131608D01*
X198120Y1142530D01*
X953008Y604266D02*
Y901192D01*
X1036574Y400812D02*
Y520700D01*
X1053084Y81280D02*
Y130556D01*
X1063244Y71120D02*
X1414596D01*
X1848193Y962660D02*
X1859280D01*
X1779778Y1031075D02*
X1848193Y962660D01*
X1820164Y923544D02*
X1859280Y962660D01*
X1820164Y556260D02*
Y923544D01*
Y556260D02*
X1823644Y552780D01*
X1846580D01*
X162560Y1228090D02*
X198120Y1192530D01*
X162560Y1228090D02*
Y1248410D01*
X300736Y1386586D01*
Y1464564D01*
X333502Y1497330D01*
X797560D01*
X840740Y1454150D01*
X562610Y491744D02*
Y767588D01*
X602243Y807221D01*
Y857513D01*
X632460Y887730D01*
X644595Y899865D01*
Y995680D01*
X638810Y1001465D02*
X644595Y995680D01*
X624643Y1001465D02*
X638810D01*
X615188Y1010920D02*
X624643Y1001465D01*
X615188Y1010920D02*
Y1393723D01*
X638785Y1417320D01*
Y1480516D01*
X650240Y1491971D01*
X777519D01*
X815340Y1454150D01*
X601218Y783082D02*
X614743Y796607D01*
Y848360D01*
X621564Y855181D01*
X625311D01*
X632460Y862330D01*
X728980D02*
Y1049528D01*
X721868Y1056640D02*
X728980Y1049528D01*
X721868Y1056640D02*
Y1343406D01*
X799592Y1421130D01*
Y1444498D01*
X789940Y1454150D02*
X799592Y1444498D01*
X632460Y760730D02*
X660860Y789130D01*
Y942603D01*
X670052Y951795D01*
X586740D02*
Y1381506D01*
X628396Y1423162D01*
X1197864Y1549146D02*
X1289050Y1457960D01*
X80010Y1549146D02*
X1197864D01*
X65024Y1534160D02*
X80010Y1549146D01*
X65024Y1283970D02*
Y1534160D01*
Y1283970D02*
X169926Y1179068D01*
X206248D01*
X211430Y1184250D01*
Y1202334D01*
X184658Y1229106D02*
X211430Y1202334D01*
X184658Y1229106D02*
Y1249680D01*
X196342Y1261364D01*
X221742D01*
X304546Y1178560D01*
X452120D01*
X438658Y1192022D02*
X452120Y1178560D01*
X438658Y1192022D02*
Y1239520D01*
X445770Y1246632D01*
X457200D01*
X476222Y1227610D01*
Y752884D02*
Y1227610D01*
Y752884D02*
X493776Y735330D01*
X1283970Y388880D02*
Y637070D01*
Y388880D02*
X1302480Y370370D01*
X1090940Y637070D02*
X1283970D01*
X996490Y731520D02*
X1090940Y637070D01*
X996490Y731520D02*
Y754380D01*
X1014270Y772160D01*
X1023620D01*
X1028700Y777240D01*
Y791080D01*
X1466850Y580650D02*
X1480280Y567220D01*
X1466850Y580650D02*
Y770636D01*
X1468120Y771906D01*
Y800100D01*
X1596390Y830840D02*
X1626330Y800900D01*
X1596390Y830840D02*
Y1070140D01*
X1188466Y1036574D02*
Y1064260D01*
Y1036574D02*
X1198626Y1026414D01*
Y991870D02*
Y1026414D01*
Y991870D02*
X1231756Y958740D01*
X1246160D01*
X1283970Y737070D02*
X1313434D01*
X1313904Y736600D01*
X1343660D01*
X1270508Y723608D02*
X1283970Y737070D01*
X1270508Y680720D02*
Y723608D01*
Y680720D02*
X1283970Y667258D01*
X1291590D01*
X1345184Y613664D01*
Y496316D02*
Y613664D01*
Y496316D02*
X1358180Y483320D01*
Y469900D02*
Y483320D01*
X1136791Y737070D02*
X1283970D01*
X1121508Y752353D02*
X1136791Y737070D01*
X1041400Y743080D02*
Y752353D01*
X1330414Y469900D02*
X1358180D01*
X1329944Y470370D02*
X1330414Y469900D01*
X1302480Y470370D02*
X1329944D01*
X1480280Y667220D02*
X1508506D01*
X1508976Y666750D01*
X1537610D01*
X1480280Y667220D02*
Y737870D01*
X1481582Y739172D01*
Y886638D01*
X1468120Y900100D02*
X1481582Y886638D01*
X1630680Y660070D02*
X1659382D01*
X1659635Y660323D01*
X1688796D01*
X1496060Y1044448D02*
Y1174750D01*
Y1044448D02*
X1503172Y1037336D01*
X1533144D01*
X1558290Y1062482D01*
Y1132040D01*
X1521460Y900430D02*
Y1025652D01*
X1558290Y1132040D02*
X1596390Y1170140D01*
X1468920Y1174750D02*
X1496060D01*
X1468120Y1173950D02*
X1468920Y1174750D01*
X1440180Y1173950D02*
X1468120D01*
X1596390Y1170140D02*
X1623314D01*
X1623784Y1169670D01*
X1651000D01*
X1234440Y971740D02*
X1246160D01*
X1259078D01*
Y955040D02*
Y971740D01*
X1256278Y952240D02*
X1259078Y955040D01*
X1246160Y952240D02*
X1256278D01*
X1667690Y809540D02*
X1703070D01*
X1626330Y850900D02*
X1667690Y809540D01*
X1546860Y575860D02*
X1555750D01*
X1543812Y572812D02*
X1546860Y575860D01*
X1543812Y539496D02*
Y572812D01*
Y539496D02*
X1554480Y528828D01*
X1540510Y804460D02*
Y838670D01*
X1331680Y639360D02*
X1362710D01*
X1283970Y687070D02*
X1331680Y639360D01*
X1347650Y375200D02*
X1376680D01*
X1302480Y420370D02*
X1347650Y375200D01*
X1080008Y1004062D02*
X1159002Y925068D01*
X632460Y684530D02*
X681228Y733298D01*
Y996188D01*
X1260348Y1030224D02*
X1264412Y1026160D01*
Y933295D02*
X1303966Y893740D01*
X1314160D01*
X1238250Y1457960D02*
X1253998Y1442212D01*
Y1008634D02*
X1264412Y998220D01*
Y933295D02*
Y998220D01*
X512318Y883920D02*
X520170Y891772D01*
X494030Y883920D02*
X512318D01*
X483870Y894080D02*
X494030Y883920D01*
X483870Y894080D02*
Y1282700D01*
X397510Y1369060D02*
X483870Y1282700D01*
X331978Y1369060D02*
X397510D01*
X319278Y1381760D02*
X331978Y1369060D01*
X319278Y1381760D02*
Y1444498D01*
X328930Y1454150D01*
X632460Y709930D02*
X671068Y748538D01*
Y858774D01*
X1273302Y941832D02*
Y1448308D01*
X1263650Y1457960D02*
X1273302Y1448308D01*
Y941832D02*
X1282394Y932740D01*
X784860Y938530D02*
X793302D01*
X854710Y999938D01*
Y1398016D01*
X880705Y1424011D01*
Y1443315D01*
X891540Y1454150D01*
X1295400Y948690D02*
Y1000252D01*
Y948690D02*
X1304850Y939240D01*
X1314160D01*
X1052830Y913800D02*
X1064768Y925738D01*
Y1136142D01*
X1111556Y1182930D01*
X888238Y587502D02*
X1024890Y450850D01*
X888238Y587502D02*
Y926338D01*
X1859280Y886460D02*
X1916684Y829056D01*
Y223266D02*
Y829056D01*
X1890198Y196780D02*
X1916684Y223266D01*
X1830640Y196780D02*
X1890198D01*
X1859280Y886460D02*
X1871726Y898906D01*
Y969264D01*
X1838198Y1002792D02*
X1871726Y969264D01*
X1823720Y1002792D02*
X1838198D01*
X1818386Y1008126D02*
X1823720Y1002792D01*
X1818386Y1008126D02*
Y1023209D01*
X1825665Y1030488D01*
Y1443315D01*
X1814830Y1454150D02*
X1825665Y1443315D01*
X1356360Y953516D02*
X1390904D01*
X1350264Y947420D02*
X1356360Y953516D01*
X1350264Y932942D02*
X1352804Y930402D01*
Y921766D02*
Y930402D01*
X1346200Y915162D02*
X1352804Y921766D01*
X1331982Y915162D02*
X1346200D01*
X596900Y953770D02*
X632460Y989330D01*
X1700530Y1438148D02*
X1755140Y1383538D01*
Y995680D02*
Y1383538D01*
Y995680D02*
X1760895Y989925D01*
X1778000D01*
X1787485Y980440D01*
Y440857D02*
Y980440D01*
Y440857D02*
X1863344Y364998D01*
Y254000D02*
Y364998D01*
X1830640Y246780D02*
X1856124D01*
X1830745Y1067395D02*
X1859280Y1038860D01*
X1830745Y1067395D02*
Y1503680D01*
X497078Y1444498D02*
X506730Y1454150D01*
X497078Y932688D02*
Y1444498D01*
Y932688D02*
X503428Y926338D01*
X784860Y709930D02*
X802075Y727145D01*
X481330Y1454150D02*
X493076Y1465896D01*
X513018D01*
X516382Y1462532D01*
Y921004D02*
Y1462532D01*
Y921004D02*
X548386Y889000D01*
Y875030D02*
Y889000D01*
X455930Y1454150D02*
X478028Y1476248D01*
X534670D01*
X547878Y1463040D01*
Y932942D02*
Y1463040D01*
Y932942D02*
X568706Y912114D01*
Y806450D02*
Y912114D01*
X420878Y1444498D02*
X430530Y1454150D01*
X420878Y1388110D02*
Y1444498D01*
Y1388110D02*
X490982Y1318006D01*
Y903732D02*
Y1318006D01*
Y903732D02*
X497078Y897636D01*
X718820Y844296D02*
Y1043432D01*
Y844296D02*
X721360Y841756D01*
X1105408Y742188D02*
X1188974Y658622D01*
X1289558D01*
X1297432Y650748D01*
Y589788D02*
Y650748D01*
X1289050Y581406D02*
X1297432Y589788D01*
X1289050Y406908D02*
Y581406D01*
Y406908D02*
X1444098Y251860D01*
X1563940D01*
X586486Y874522D02*
Y903986D01*
X567182Y923290D02*
X586486Y903986D01*
X567182Y923290D02*
Y1478534D01*
X562610Y1483106D02*
X567182Y1478534D01*
X408686Y1483106D02*
X562610D01*
X379730Y1454150D02*
X408686Y1483106D01*
X1205230Y860298D02*
X1306576D01*
X1423924Y742950D01*
Y409048D02*
Y742950D01*
Y409048D02*
X1531112Y301860D01*
X1563940D01*
X1846580Y574548D02*
Y602780D01*
X632460Y811530D02*
X655780Y834850D01*
Y997410D01*
X671068Y1012698D01*
Y1330706D01*
X748792Y1408430D01*
Y1444498D01*
X739140Y1454150D02*
X748792Y1444498D01*
X1876806Y534924D02*
Y645414D01*
X1869440Y652780D02*
X1876806Y645414D01*
X1846580Y652780D02*
X1869440D01*
X620268Y798322D02*
X632460Y786130D01*
X620268Y798322D02*
Y843026D01*
X627437Y850195D01*
X640391D01*
X650700Y860504D01*
Y1053386D01*
X645668Y1058418D02*
X650700Y1053386D01*
X645668Y1058418D02*
Y1314450D01*
X723392Y1392174D01*
Y1444498D01*
X713740Y1454150D02*
X723392Y1444498D01*
X784860Y1040130D02*
X798068Y1053338D01*
X814832D01*
X1207516Y1046226D02*
Y1259332D01*
X1222248Y1468374D02*
X1227582Y1463040D01*
X1177290D02*
X1182624Y1468374D01*
X1177290Y1452880D02*
Y1463040D01*
X1167130Y1442720D02*
X1177290Y1452880D01*
X1151890Y1442720D02*
X1167130D01*
X1136650Y1457960D02*
X1151890Y1442720D01*
X784860Y1090930D02*
X801116Y1107186D01*
Y1391920D01*
X888746Y1116330D02*
Y1280160D01*
X1053846Y1445260D01*
X1073150D01*
X1085850Y1457960D01*
X1329182Y1337564D02*
Y1405890D01*
X1451102Y1527810D01*
X1541780D01*
X1607820Y1461770D01*
X1582420D02*
X1598168Y1446022D01*
Y1388110D02*
Y1446022D01*
Y1388110D02*
X1665224Y1321054D01*
X1695958D01*
X1709166Y1307846D01*
Y1229360D02*
Y1307846D01*
X1521968Y1397508D02*
Y1452118D01*
X1531620Y1461770D01*
X1496568Y1452118D02*
X1506220Y1461770D01*
X1496568Y1360377D02*
Y1452118D01*
Y1360377D02*
X1584960Y1271985D01*
X1591865D01*
X1691894Y1171956D01*
Y1122172D02*
Y1171956D01*
X1417320Y1323848D02*
Y1449070D01*
X1430020Y1461770D01*
X1376172Y1382268D02*
Y1433322D01*
X1404620Y1461770D01*
X742188Y709402D02*
X754360Y697230D01*
X742188Y709402D02*
Y1026160D01*
X772160Y1056132D01*
X1871590Y1222366D02*
Y1241552D01*
X1855978Y1257164D02*
X1871590Y1241552D01*
X1855978Y1257164D02*
Y1444498D01*
X1865630Y1454150D01*
X784860Y633730D02*
X872998Y721868D01*
Y1050544D01*
X1846834Y1127506D02*
X1859280Y1115060D01*
X1846834Y1127506D02*
Y1371600D01*
X1849882Y1374648D01*
Y1444498D01*
X1840230Y1454150D02*
X1849882Y1444498D01*
X1226463Y939240D02*
X1246160D01*
X1183386Y982318D02*
X1226463Y939240D01*
X1183386Y982318D02*
Y1011174D01*
X1552319Y1008001D02*
X1569974Y990346D01*
Y830580D02*
Y990346D01*
Y830580D02*
X1617514Y783040D01*
X1703070D01*
X1556110Y627528D02*
Y666750D01*
Y627528D02*
X1568704Y614934D01*
Y562314D02*
Y614934D01*
X1555750Y549360D02*
X1568704Y562314D01*
X1220158Y926240D02*
X1246160D01*
X1195676Y950722D02*
X1220158Y926240D01*
X1542034Y950722D02*
X1564894Y927862D01*
Y793496D02*
Y927862D01*
Y793496D02*
X1593596Y764794D01*
Y606298D02*
Y764794D01*
Y606298D02*
X1605280Y594614D01*
X1634800D01*
X1687068Y542346D01*
X1708807D01*
X1721866Y555405D01*
Y607060D01*
X1707296Y621631D02*
X1721866Y607060D01*
X1707296Y621631D02*
Y660323D01*
X1246160Y913240D02*
X1259078D01*
X1296018Y876300D01*
X1326896D01*
X1539960Y859070D02*
Y900430D01*
Y859070D02*
X1553464Y845566D01*
Y790914D02*
Y845566D01*
X1540510Y777960D02*
X1553464Y790914D01*
X1362160Y736600D02*
Y747310D01*
X1324610Y784860D02*
X1362160Y747310D01*
X1207770Y784860D02*
X1324610D01*
X1189990Y802640D02*
X1207770Y784860D01*
X1189990Y802640D02*
Y892893D01*
X1203837Y906740D01*
X1246160D01*
X1362160Y694732D02*
Y736600D01*
Y694732D02*
X1375664Y681228D01*
Y632460D02*
Y681228D01*
X1362710Y619506D02*
X1375664Y632460D01*
X1362710Y612860D02*
Y619506D01*
X1376680Y469900D02*
Y622046D01*
X1380744Y626110D01*
Y749808D01*
X1282954Y847598D02*
X1380744Y749808D01*
X1200912Y847598D02*
X1282954D01*
X1195070Y853440D02*
X1200912Y847598D01*
X1195070Y853440D02*
Y870204D01*
X1203706Y878840D01*
X1253890D01*
X1258970Y883920D01*
Y896620D01*
X1255350Y900240D02*
X1258970Y896620D01*
X1246160Y900240D02*
X1255350D01*
X1376680Y434594D02*
Y469900D01*
Y434594D02*
X1388618Y422656D01*
Y360638D02*
Y422656D01*
X1376680Y348700D02*
X1388618Y360638D01*
X182880Y1479550D02*
X190500D01*
X148590Y1452880D02*
X163830D01*
X2100580Y1412240D02*
Y1449070D01*
Y1412240D02*
X2128520Y1384300D01*
X1593850Y1289048D02*
Y1299205D01*
X1598928Y1304283D01*
X1604007Y1299205D01*
Y1289048D01*
Y1296666D01*
X1593850D01*
X1609085Y1289048D02*
Y1299205D01*
X1616703D01*
X1619242Y1296666D01*
Y1289048D01*
X1626859Y1299205D02*
X1631938D01*
X1634477Y1296666D01*
Y1289048D01*
X1626859D01*
X1624320Y1291588D01*
X1626859Y1294127D01*
X1634477D01*
X1639555Y1289048D02*
X1644634D01*
X1642094D01*
Y1304283D01*
X1639555D01*
X1654790Y1289048D02*
X1659869D01*
X1662408Y1291588D01*
Y1296666D01*
X1659869Y1299205D01*
X1654790D01*
X1652251Y1296666D01*
Y1291588D01*
X1654790Y1289048D01*
X1672565Y1283970D02*
X1675104D01*
X1677643Y1286509D01*
Y1299205D01*
X1670025D01*
X1667486Y1296666D01*
Y1291588D01*
X1670025Y1289048D01*
X1677643D01*
X293370Y1271263D02*
Y1256028D01*
X300987D01*
X303527Y1258568D01*
Y1268724D01*
X300987Y1271263D01*
X293370D01*
X308605Y1256028D02*
X313683D01*
X311144D01*
Y1266185D01*
X308605D01*
X326379Y1250950D02*
X328918D01*
X331458Y1253489D01*
Y1266185D01*
X323840D01*
X321301Y1263646D01*
Y1258568D01*
X323840Y1256028D01*
X331458D01*
X336536D02*
X341614D01*
X339075D01*
Y1266185D01*
X336536D01*
X351771Y1268724D02*
Y1266185D01*
X349232D01*
X354310D01*
X351771D01*
Y1258568D01*
X354310Y1256028D01*
X364467Y1266185D02*
X369545D01*
X372085Y1263646D01*
Y1256028D01*
X364467D01*
X361928Y1258568D01*
X364467Y1261107D01*
X372085D01*
X377163Y1256028D02*
X382241D01*
X379702D01*
Y1271263D01*
X377163D01*
D15*
X1846580Y552780D02*
D03*
X1563940Y201860D02*
D03*
X1830640Y196780D02*
D03*
D16*
X1246160Y978240D02*
D03*
X1314160Y900240D02*
D03*
Y893740D02*
D03*
Y913240D02*
D03*
Y919740D02*
D03*
Y926240D02*
D03*
Y932740D02*
D03*
Y939240D02*
D03*
Y945740D02*
D03*
Y952240D02*
D03*
Y958740D02*
D03*
Y965240D02*
D03*
Y971740D02*
D03*
Y978240D02*
D03*
X1246160Y893740D02*
D03*
Y900240D02*
D03*
Y906740D02*
D03*
Y913240D02*
D03*
Y919740D02*
D03*
Y926240D02*
D03*
Y932740D02*
D03*
Y939240D02*
D03*
Y945740D02*
D03*
Y952240D02*
D03*
Y958740D02*
D03*
Y971740D02*
D03*
Y965240D02*
D03*
X1314160Y906740D02*
D03*
D17*
X1016000Y743080D02*
D03*
X1003300D02*
D03*
X1028700D02*
D03*
X1041400D02*
D03*
X1003300Y791080D02*
D03*
X1016000D02*
D03*
X1028700D02*
D03*
X1041400D02*
D03*
D18*
X1555750Y549360D02*
D03*
Y575860D02*
D03*
X1703070Y783040D02*
D03*
Y809540D02*
D03*
X1376680Y348700D02*
D03*
Y375200D02*
D03*
X1668780Y1049740D02*
D03*
Y1076240D02*
D03*
X1708807Y542346D02*
D03*
Y568846D02*
D03*
X1515110Y1053550D02*
D03*
Y1080050D02*
D03*
X1540510Y777960D02*
D03*
Y804460D02*
D03*
X1362710Y612860D02*
D03*
Y639360D02*
D03*
D19*
X1669500Y1169670D02*
D03*
X1651000D02*
D03*
X1696720Y913130D02*
D03*
X1678220D02*
D03*
X1556110Y666750D02*
D03*
X1537610D02*
D03*
X1707296Y660323D02*
D03*
X1688796D02*
D03*
X1514560Y1174750D02*
D03*
X1496060D02*
D03*
X1539960Y900430D02*
D03*
X1521460D02*
D03*
X1362160Y736600D02*
D03*
X1343660D02*
D03*
X1376680Y469900D02*
D03*
X1358180D02*
D03*
D20*
X1830640Y296780D02*
D03*
Y246780D02*
D03*
Y346780D02*
D03*
X1846580Y702780D02*
D03*
X1563940Y351860D02*
D03*
Y251860D02*
D03*
Y301860D02*
D03*
X1846580Y602780D02*
D03*
Y652780D02*
D03*
D29*
X1967230Y1454150D02*
D03*
X916940D02*
D03*
X557530D02*
D03*
X1289050Y1457960D02*
D03*
X1633220Y1461770D02*
D03*
D30*
X1941830Y1454150D02*
D03*
X1916430D02*
D03*
X1891030D02*
D03*
X1865630D02*
D03*
X1840230D02*
D03*
X1814830D02*
D03*
X1738630D02*
D03*
X1967230Y1428750D02*
D03*
X1941830D02*
D03*
X1916430D02*
D03*
X1891030D02*
D03*
X1865630D02*
D03*
X1840230D02*
D03*
X1814830D02*
D03*
X1789430D02*
D03*
X1764030D02*
D03*
X1738630D02*
D03*
X1789430Y1454150D02*
D03*
X1764030D02*
D03*
X688340Y1428750D02*
D03*
X713740D02*
D03*
X739140D02*
D03*
X764540D02*
D03*
X789940D02*
D03*
X815340D02*
D03*
X840740D02*
D03*
X866140D02*
D03*
X891540D02*
D03*
X916940D02*
D03*
X688340Y1454150D02*
D03*
X713740D02*
D03*
X739140D02*
D03*
X764540D02*
D03*
X789940D02*
D03*
X815340D02*
D03*
X840740D02*
D03*
X866140D02*
D03*
X891540D02*
D03*
X328930Y1428750D02*
D03*
X354330D02*
D03*
X379730D02*
D03*
X405130D02*
D03*
X430530D02*
D03*
X455930D02*
D03*
X481330D02*
D03*
X506730D02*
D03*
X532130D02*
D03*
X557530D02*
D03*
X328930Y1454150D02*
D03*
X354330D02*
D03*
X379730D02*
D03*
X405130D02*
D03*
X430530D02*
D03*
X455930D02*
D03*
X481330D02*
D03*
X506730D02*
D03*
X532130D02*
D03*
X1060450Y1432560D02*
D03*
X1085850D02*
D03*
X1111250D02*
D03*
X1136650D02*
D03*
X1162050D02*
D03*
X1187450D02*
D03*
X1212850D02*
D03*
X1238250D02*
D03*
X1263650D02*
D03*
X1289050D02*
D03*
X1060450Y1457960D02*
D03*
X1085850D02*
D03*
X1111250D02*
D03*
X1136650D02*
D03*
X1162050D02*
D03*
X1187450D02*
D03*
X1212850D02*
D03*
X1238250D02*
D03*
X1263650D02*
D03*
X1742440Y1076960D02*
D03*
Y1051560D02*
D03*
Y1026160D02*
D03*
Y1000760D02*
D03*
Y975360D02*
D03*
Y949960D02*
D03*
Y924560D02*
D03*
Y899160D02*
D03*
Y873760D02*
D03*
Y848360D02*
D03*
X1767840Y1076960D02*
D03*
Y1051560D02*
D03*
Y1026160D02*
D03*
Y1000760D02*
D03*
Y975360D02*
D03*
Y949960D02*
D03*
Y924560D02*
D03*
Y899160D02*
D03*
Y873760D02*
D03*
X1404620Y1436370D02*
D03*
X1430020D02*
D03*
X1455420D02*
D03*
X1480820D02*
D03*
X1506220D02*
D03*
X1531620D02*
D03*
X1557020D02*
D03*
X1582420D02*
D03*
X1607820D02*
D03*
X1633220D02*
D03*
X1404620Y1461770D02*
D03*
X1430020D02*
D03*
X1455420D02*
D03*
X1480820D02*
D03*
X1506220D02*
D03*
X1531620D02*
D03*
X1557020D02*
D03*
X1582420D02*
D03*
X1607820D02*
D03*
D32*
X1073150Y333930D02*
D03*
D34*
X1859280Y962660D02*
D03*
Y1115060D02*
D03*
Y924560D02*
D03*
X1973280Y1248360D02*
D03*
Y1210260D02*
D03*
Y1172160D02*
D03*
Y1134060D02*
D03*
Y1095960D02*
D03*
Y1057860D02*
D03*
Y1019760D02*
D03*
Y981660D02*
D03*
Y943560D02*
D03*
Y905460D02*
D03*
X1859280Y1229360D02*
D03*
Y1191260D02*
D03*
Y1153160D02*
D03*
Y1076960D02*
D03*
Y1038860D02*
D03*
Y1000760D02*
D03*
D37*
Y886460D02*
D03*
D38*
X1073150Y129030D02*
D03*
D40*
X1767840Y848360D02*
D03*
D43*
X1024890Y450850D02*
D03*
Y603250D02*
D03*
X1101090D02*
D03*
D44*
Y450850D02*
D03*
D45*
X657860Y1065530D02*
D03*
X683260D02*
D03*
X759460D02*
D03*
X754360Y697230D02*
D03*
X632460Y989330D02*
D03*
X754360Y671830D02*
D03*
X632460Y608330D02*
D03*
X754360Y722630D02*
D03*
X784860Y633730D02*
D03*
Y963930D02*
D03*
X708660Y1065530D02*
D03*
X754360Y773430D02*
D03*
Y748030D02*
D03*
X632460Y963930D02*
D03*
X784860Y608330D02*
D03*
X632460Y633730D02*
D03*
X657860D02*
D03*
X632460Y659130D02*
D03*
X734060Y1065530D02*
D03*
X632460Y1014730D02*
D03*
Y1040130D02*
D03*
Y1065530D02*
D03*
Y1090930D02*
D03*
Y1116330D02*
D03*
Y1141730D02*
D03*
Y1167130D02*
D03*
Y1192530D02*
D03*
X784860D02*
D03*
Y1167130D02*
D03*
Y1141730D02*
D03*
Y1116330D02*
D03*
Y1090930D02*
D03*
Y1065530D02*
D03*
Y1040130D02*
D03*
Y1014730D02*
D03*
Y989330D02*
D03*
X632460Y684530D02*
D03*
Y709930D02*
D03*
Y735330D02*
D03*
Y760730D02*
D03*
Y786130D02*
D03*
Y811530D02*
D03*
Y836930D02*
D03*
Y862330D02*
D03*
Y887730D02*
D03*
Y913130D02*
D03*
Y938530D02*
D03*
X784860D02*
D03*
Y913130D02*
D03*
Y887730D02*
D03*
Y862330D02*
D03*
Y836930D02*
D03*
Y811530D02*
D03*
Y786130D02*
D03*
Y760730D02*
D03*
Y735330D02*
D03*
Y709930D02*
D03*
Y684530D02*
D03*
Y659130D02*
D03*
D46*
X440690Y677380D02*
D03*
X452120Y1128560D02*
D03*
X198120Y1142530D02*
D03*
X455930Y880910D02*
D03*
X200660Y877100D02*
D03*
X440690Y627380D02*
D03*
X201390Y593890D02*
D03*
X427450Y351320D02*
D03*
X197580Y333540D02*
D03*
X1882140Y158780D02*
D03*
Y384780D02*
D03*
X198120Y1242530D02*
D03*
X452120Y1228560D02*
D03*
X455930Y980910D02*
D03*
X200660Y977100D02*
D03*
X440690Y727380D02*
D03*
X201390Y693890D02*
D03*
X427450Y451320D02*
D03*
X197580Y433540D02*
D03*
X1615440Y389860D02*
D03*
Y163860D02*
D03*
X1898080Y740780D02*
D03*
Y514780D02*
D03*
X1596390Y1170140D02*
D03*
Y1120140D02*
D03*
Y1070140D02*
D03*
X1626330Y900900D02*
D03*
Y850900D02*
D03*
Y800900D02*
D03*
X1480280Y667220D02*
D03*
Y617220D02*
D03*
Y567220D02*
D03*
X1630680Y660070D02*
D03*
Y610070D02*
D03*
Y560070D02*
D03*
X1440180Y1173950D02*
D03*
Y1123950D02*
D03*
Y1073950D02*
D03*
X1468120Y900100D02*
D03*
Y850100D02*
D03*
Y800100D02*
D03*
X1283970Y737070D02*
D03*
Y687070D02*
D03*
Y637070D02*
D03*
X1302480Y470370D02*
D03*
Y420370D02*
D03*
Y370370D02*
D03*
X452120Y1178560D02*
D03*
X455930Y930910D02*
D03*
X427450Y401320D02*
D03*
X200660Y927100D02*
D03*
X201390Y643890D02*
D03*
X197580Y383540D02*
D03*
X198120Y1192530D02*
D03*
D47*
X1052830Y964800D02*
D03*
Y913800D02*
D03*
Y939800D02*
D03*
D48*
X1240790Y1182930D02*
D03*
X976860Y1194080D02*
D03*
D49*
X1240790Y1217930D02*
D03*
X976860Y1229080D02*
D03*
D50*
X1859280Y1210310D02*
D03*
X1540510Y920750D02*
D03*
X617220Y646430D02*
D03*
X765810Y1085850D02*
D03*
X800100Y900430D02*
D03*
X1789430Y1002030D02*
D03*
X586740Y951795D02*
D03*
X1437640Y508254D02*
D03*
X1229360Y996950D02*
D03*
X552450Y795020D02*
D03*
X816610Y1005840D02*
D03*
X1515110Y1134110D02*
D03*
X1460246Y996188D02*
D03*
X1552319Y1008001D02*
D03*
X961136Y596138D02*
D03*
X696468Y836930D02*
D03*
X1672844Y1109218D02*
D03*
X1719834Y892556D02*
D03*
X1159002Y893740D02*
D03*
X1211412D02*
D03*
X1342546Y926240D02*
D03*
X812292Y976122D02*
D03*
X1346200Y987044D02*
D03*
X1327150Y1021588D02*
D03*
X1435862Y824992D02*
D03*
X821436Y1398270D02*
D03*
X1700530Y1438148D02*
D03*
X1661160Y1348740D02*
D03*
X757428Y1010666D02*
D03*
X1672844Y1208786D02*
D03*
X701040Y1478788D02*
D03*
X1828546Y1012952D02*
D03*
X991362Y1317752D02*
D03*
X1178306Y1099820D02*
D03*
X1654260Y1114806D02*
D03*
X1425702Y802132D02*
D03*
X1547114Y750062D02*
D03*
X1174750Y1124204D02*
D03*
X1702308Y940308D02*
D03*
X1360424Y939800D02*
D03*
X953008Y901192D02*
D03*
X562610Y491744D02*
D03*
X601218Y783082D02*
D03*
X728980Y862330D02*
D03*
X670052Y951795D02*
D03*
X628396Y1423162D02*
D03*
X493776Y735330D02*
D03*
X1188466Y1064260D02*
D03*
X1228852Y1148334D02*
D03*
X1540510Y838670D02*
D03*
X1080008Y1004062D02*
D03*
X1159002Y925068D02*
D03*
X681228Y996188D02*
D03*
X1260348Y1030224D02*
D03*
X520170Y891772D02*
D03*
X671068Y858774D02*
D03*
X1287272Y927862D02*
D03*
X1295400Y1000252D02*
D03*
X1111556Y1182930D02*
D03*
X888238Y926338D02*
D03*
X1465072Y518668D02*
D03*
X1830745Y1503680D02*
D03*
X503428Y926338D02*
D03*
X548386Y875030D02*
D03*
X568706Y806450D02*
D03*
X497078Y897636D02*
D03*
X718820Y1043432D02*
D03*
X721360Y841756D02*
D03*
X1105408Y742188D02*
D03*
X586486Y874522D02*
D03*
X1205230Y860298D02*
D03*
X1846580Y574548D02*
D03*
X1876806Y534924D02*
D03*
X814832Y1053338D02*
D03*
X1207516Y1046226D02*
D03*
X801116Y1391920D02*
D03*
X888746Y1116330D02*
D03*
X1329182Y1337564D02*
D03*
X1709166Y1229360D02*
D03*
X1521968Y1397508D02*
D03*
X1691894Y1122172D02*
D03*
X1417320Y1323848D02*
D03*
X1376172Y1382268D02*
D03*
X872998Y1050544D02*
D03*
X759460Y1268222D02*
D03*
X1183386Y1011174D02*
D03*
X1195676Y950722D02*
D03*
X1542034D02*
D03*
X1326896Y876300D02*
D03*
D51*
X168910Y1445260D02*
D03*
X2125980Y143510D02*
D03*
X2131060Y1446530D02*
D03*
X144780Y134620D02*
D03*
M02*
