G04*
G04 #@! TF.GenerationSoftware,Altium Limited,Altium Designer,25.8.1 (18)*
G04*
G04 Layer_Physical_Order=2*
G04 Layer_Color=16711680*
%FSLAX44Y44*%
%MOMM*%
G71*
G04*
G04 #@! TF.SameCoordinates,B6236AAD-9B2A-438F-8993-29755F72C1A3*
G04*
G04*
G04 #@! TF.FilePolarity,Positive*
G04*
G01*
G75*
%ADD14C,0.2540*%
%ADD29R,1.1350X1.1350*%
%ADD30C,1.1350*%
%ADD32C,2.1450*%
%ADD34C,1.7000*%
%ADD37R,1.7000X1.7000*%
%ADD38R,2.1450X2.1450*%
%ADD40R,1.1350X1.1350*%
%ADD43C,1.1580*%
%ADD44R,1.1580X1.1580*%
%ADD45C,1.6650*%
%ADD46C,1.9000*%
%ADD47C,1.6000*%
G04:AMPARAMS|DCode=48|XSize=1.65mm|YSize=1.65mm|CornerRadius=0.4125mm|HoleSize=0mm|Usage=FLASHONLY|Rotation=90.000|XOffset=0mm|YOffset=0mm|HoleType=Round|Shape=RoundedRectangle|*
%AMROUNDEDRECTD48*
21,1,1.6500,0.8250,0,0,90.0*
21,1,0.8250,1.6500,0,0,90.0*
1,1,0.8250,0.4125,0.4125*
1,1,0.8250,0.4125,-0.4125*
1,1,0.8250,-0.4125,-0.4125*
1,1,0.8250,-0.4125,0.4125*
%
%ADD48ROUNDEDRECTD48*%
%ADD49C,1.6500*%
%ADD50C,1.2700*%
%ADD51C,20.0000*%
%ADD52C,0.5080*%
%ADD53C,0.6350*%
%ADD54C,0.3810*%
D14*
X1945640Y1463802D02*
X1951482Y1457960D01*
X1926082Y1463802D02*
X1945640D01*
X1951482Y1449324D02*
Y1457960D01*
X1916430Y1454150D02*
X1926082Y1463802D01*
X1940560Y1438402D02*
X1951482Y1449324D01*
X1733287Y1438402D02*
X1940560D01*
X1560821Y1265936D02*
X1733287Y1438402D01*
X933826Y1265936D02*
X1560821D01*
X847212Y1179322D02*
X933826Y1265936D01*
X772668Y1179322D02*
X847212D01*
X695960Y1102614D02*
X772668Y1179322D01*
X695960Y1057148D02*
Y1102614D01*
X690880Y1052068D02*
X695960Y1057148D01*
X657860Y1065530D02*
X671322Y1052068D01*
X690880D01*
X1932178Y1444498D02*
X1941830Y1454150D01*
X1724651Y1444498D02*
X1932178D01*
X1677153Y1397000D02*
X1724651Y1444498D01*
X1006602Y1397000D02*
X1677153D01*
X960882Y1351280D02*
X1006602Y1397000D01*
X693420Y1351280D02*
X960882D01*
X683260Y1341120D02*
X693420Y1351280D01*
X683260Y1065530D02*
Y1341120D01*
X1519174Y1016254D02*
X1727962D01*
X1485138Y1037590D02*
X1497838D01*
X1519174Y1016254D01*
X1480058Y1032510D02*
X1485138Y1037590D01*
X1289959Y1032510D02*
X1480058D01*
X1105590Y1027938D02*
X1110416Y1023112D01*
X1008126Y1027938D02*
X1105590D01*
X759460Y1035558D02*
Y1065530D01*
Y1035558D02*
X767080Y1027938D01*
X1008126D01*
X1280561Y1023112D02*
X1289959Y1032510D01*
X1110416Y1023112D02*
X1280561D01*
X1800352Y825500D02*
Y883802D01*
X993902Y763016D02*
X1700530D01*
X1711960Y751586D01*
X885444Y767080D02*
X989838D01*
X993902Y763016D01*
X1726438Y751586D02*
X1800352Y825500D01*
X815594Y697230D02*
X885444Y767080D01*
X1711960Y751586D02*
X1726438D01*
X754360Y697230D02*
X815594D01*
X1951482Y1438402D02*
X1967230Y1454150D01*
X1683512Y1143508D02*
X1951482Y1411478D01*
Y1438402D01*
X1427226Y1143508D02*
X1683512D01*
X1405636Y1121918D02*
X1427226Y1143508D01*
X1075182Y1078230D02*
X1118870Y1121918D01*
X1405636D01*
X746252Y1072642D02*
X751840Y1078230D01*
X1075182D01*
X746252Y1034970D02*
Y1072642D01*
X731520Y1020238D02*
X746252Y1034970D01*
X663368Y1020238D02*
X731520D01*
X632460Y989330D02*
X663368Y1020238D01*
X1356688Y1009613D02*
X1366955D01*
X1335389Y988314D02*
X1356688Y1009613D01*
X1366955D02*
X1374140Y1002428D01*
Y994012D02*
Y1002428D01*
X1314323Y997949D02*
Y1007635D01*
X1323958Y988314D02*
X1335389D01*
X1296272Y1017270D02*
X1304688D01*
X1314323Y1007635D01*
X1277222Y998220D02*
X1296272Y1017270D01*
X1256066Y998220D02*
X1277222D01*
X1413908Y962660D02*
X1727962D01*
X1314323Y997949D02*
X1323958Y988314D01*
X1374140Y1002428D02*
X1413908Y962660D01*
X1246160Y988314D02*
X1256066Y998220D01*
X1342788Y962660D02*
X1374140Y994012D01*
X1052830Y964800D02*
X1147794D01*
X1149934Y962660D02*
X1342788D01*
X1147794Y964800D02*
X1149934Y962660D01*
X335280Y880910D02*
X455930D01*
X331470Y877100D02*
X335280Y880910D01*
X200660Y877100D02*
X331470D01*
X927608Y646938D02*
X988060Y707390D01*
X754360Y671830D02*
X779252Y646938D01*
X927608D01*
X459740Y608330D02*
X632460D01*
X440690Y627380D02*
X459740Y608330D01*
X234880Y627380D02*
X440690D01*
X201390Y593890D02*
X234880Y627380D01*
X215360Y351320D02*
X427450D01*
X197580Y333540D02*
X215360Y351320D01*
X1721612Y1237234D02*
Y1387602D01*
X1706880Y1222502D02*
X1721612Y1237234D01*
X1240790Y1182930D02*
X1280362Y1222502D01*
X1706880D01*
X1140096Y913800D02*
X1153160Y926864D01*
X1052830Y913800D02*
X1140096D01*
X1881378Y1463802D02*
X1891030Y1454150D01*
X1729232Y1463802D02*
X1881378D01*
X1676146Y1410716D02*
X1729232Y1463802D01*
X1001522Y1410716D02*
X1676146D01*
X989076Y1398270D02*
X1001522Y1410716D01*
X1859280Y1115060D02*
X1881750Y1092590D01*
Y767198D02*
Y1092590D01*
X1452550Y641680D02*
X1756232D01*
X1065276Y664718D02*
X1429512D01*
X1452550Y641680D01*
X1756232D02*
X1881750Y767198D01*
X1034288Y633730D02*
X1065276Y664718D01*
X784860Y633730D02*
X1034288D01*
X827786Y963676D02*
X1021334D01*
X772668Y951738D02*
X784860Y963930D01*
X790448Y926338D02*
X827786Y963676D01*
X775970Y926338D02*
X790448D01*
X772668Y929640D02*
Y951738D01*
Y929640D02*
X775970Y926338D01*
X1037660Y488950D02*
X1903476D01*
X1024890Y501720D02*
X1037660Y488950D01*
X1024890Y450850D02*
Y501720D01*
X1184910Y916600D02*
Y923703D01*
Y916600D02*
X1189308Y912201D01*
X1377950Y687070D02*
X1427988D01*
X706026Y1002030D02*
X832866D01*
X632460Y786130D02*
X695960D01*
X1127760Y1028192D02*
X1166622D01*
X581152Y1545082D02*
X1802638D01*
X1753275Y935395D02*
X1767840Y949960D01*
X1493774Y935395D02*
X1753275D01*
X1493774Y906272D02*
Y935395D01*
X1186942Y1006204D02*
X1196738Y1016000D01*
X1280634D01*
X1292063Y1027430D01*
X1454150D01*
X1504696Y976884D01*
X1672336D01*
X1757680Y985520D02*
X1767840Y975360D01*
X1680972Y985520D02*
X1757680D01*
X1672336Y976884D02*
X1680972Y985520D01*
X1758188Y991108D02*
X1767840Y1000760D01*
X1573022Y991108D02*
X1758188D01*
X784860Y989330D02*
X1157842D01*
X1163320Y983852D01*
X1278382Y973582D02*
X1300480Y995680D01*
X1153668Y973582D02*
X1278382D01*
X1144016Y983234D02*
X1153668Y973582D01*
X811022Y983234D02*
X1144016D01*
X804418Y976630D02*
X811022Y983234D01*
X759206Y976630D02*
X804418D01*
X1110742Y705866D02*
X1433068D01*
X1558290Y847090D02*
X1573022Y832358D01*
X1660906D02*
X1711960Y883412D01*
X414020Y951230D02*
X638048D01*
X701548Y1014730D01*
X784860D01*
X935228Y1244092D02*
X1689354D01*
X858266Y1167130D02*
X935228Y1244092D01*
X784860Y1167130D02*
X858266D01*
X383540Y808482D02*
X389273Y814215D01*
X546717D01*
X561594Y799338D01*
X1322832D01*
X1325626Y802132D01*
X695960Y786130D02*
X764032D01*
X777240Y772922D02*
X1710436D01*
X764032Y786130D02*
X777240Y772922D01*
X1710436D02*
X1721612Y761746D01*
X1859280Y1038860D02*
X1876670Y1021470D01*
Y990600D02*
Y1021470D01*
X1869440Y983370D02*
X1876670Y990600D01*
X1813548Y983370D02*
X1869440D01*
X1810618Y980440D02*
X1813548Y983370D01*
X1810618Y825606D02*
Y980440D01*
X1731496Y746484D02*
X1810618Y825606D01*
X1706186Y746484D02*
X1731496D01*
X1699560Y753110D02*
X1706186Y746484D01*
X989690Y753110D02*
X1699560D01*
X980948Y761852D02*
X989690Y753110D01*
X887582Y761852D02*
X980948D01*
X784860Y659130D02*
X887582Y761852D01*
X1427988Y687070D02*
X1468298Y646760D01*
X1639900D01*
X1822450Y829310D01*
Y973074D01*
X1283970Y687070D02*
X1377950D01*
X1758188Y883412D02*
X1767840Y873760D01*
X1711960Y883412D02*
X1758188D01*
X1573022Y832358D02*
X1660906D01*
X1646428Y542346D02*
Y594322D01*
X1630680Y610070D02*
X1646428Y594322D01*
X1060450Y1457960D02*
X1067054D01*
X1069594Y1460500D01*
Y1465072D01*
X1081024Y1476502D01*
X1684020D01*
X1700276Y1460246D01*
X1288580Y850100D02*
X1468120D01*
X1271270Y867410D02*
X1288580Y850100D01*
X1271270Y867410D02*
Y882650D01*
X1757426Y1087374D02*
X1767840Y1076960D01*
X1284224Y1087374D02*
X1757426D01*
X1238338Y1041488D02*
X1284224Y1087374D01*
X1176020Y1041488D02*
X1238338D01*
X1225368Y892810D02*
X1277620D01*
X1301750Y860260D02*
Y868680D01*
X1222756Y890198D02*
X1225368Y892810D01*
X1277620D02*
X1301750Y868680D01*
X1468120Y900100D02*
X1479626D01*
X1483614Y896112D01*
X1542618D01*
X1547406Y900900D01*
X1626330D01*
X1483614Y916432D02*
X1493774Y906272D01*
X1426834Y916432D02*
X1483614D01*
X1412102Y901700D02*
X1426834Y916432D01*
X1352991Y901700D02*
X1412102D01*
X1349253Y905438D02*
X1352991Y901700D01*
X1211652Y905438D02*
X1349253D01*
X1200150Y916940D02*
X1211652Y905438D01*
X1200150Y916940D02*
Y942340D01*
X197580Y433540D02*
X215360Y451320D01*
X427450D01*
X201390Y693890D02*
X234880Y727380D01*
X440690D01*
X534340Y633730D01*
X632460D01*
X645668Y646938D01*
X746252D01*
X784860Y608330D01*
X455930Y980910D02*
X472910Y963930D01*
X632460D01*
X784860Y608330D02*
X973074Y420116D01*
Y229106D02*
Y420116D01*
Y229106D02*
X1073150Y129030D01*
X330200Y980910D02*
X455930D01*
X326390Y977100D02*
X330200Y980910D01*
X200660Y977100D02*
X326390D01*
X784860Y608330D02*
X904748D01*
X910336Y613918D01*
X1090422D01*
X1101090Y603250D01*
X455930Y980910D02*
X502958Y1027938D01*
X644652D01*
X662178Y1045464D01*
X697484D01*
X708660Y1056640D01*
Y1065530D01*
Y1089914D01*
X772668Y1153922D01*
X901702D01*
X976860Y1229080D01*
X988010Y1217930D01*
X1240790D01*
X198120Y1192530D02*
X211582Y1179068D01*
Y1077976D02*
Y1179068D01*
X187198Y1053592D02*
X211582Y1077976D01*
X187198Y969010D02*
Y1053592D01*
Y969010D02*
X244784Y911424D01*
X614903D01*
X616610Y913130D01*
X632460D01*
X198120Y1192530D02*
X336296Y1330706D01*
X547878D01*
X661837Y1444665D01*
X821603D01*
X831088Y1454150D01*
X840740D01*
X197580Y383540D02*
X454406D01*
X606806Y535940D01*
X187960Y657320D02*
X201390Y643890D01*
X187960Y657320D02*
Y711200D01*
X302006Y825246D01*
X554694D01*
X555710Y824230D01*
X643128D01*
X644652Y825754D01*
Y850138D01*
X632460Y862330D02*
X644652Y850138D01*
X200660Y927100D02*
X228700Y899060D01*
X550497D01*
X612628Y836930D01*
X632460D01*
X284226Y1390650D02*
X549402D01*
X622554Y1463802D01*
X754888D01*
X764540Y1454150D01*
X455930Y930910D02*
X605536D01*
X452120Y1178560D02*
X574040Y1300480D01*
Y1345946D01*
X666750Y1438656D01*
X827024D01*
X832612Y1444244D01*
X1275334D01*
X1289050Y1457960D01*
X478536Y768604D02*
X511810Y735330D01*
X632460D01*
X1283970Y637070D02*
X1410430D01*
X1480280Y567220D01*
X1487430Y560070D01*
X1630680D01*
X1468120Y800100D02*
X1547914Y800900D01*
X1626330D01*
X1720380D01*
X1767840Y848360D01*
X1520190Y1070140D02*
X1596390D01*
X1516380Y1073950D02*
X1520190Y1070140D01*
X1440180Y1073950D02*
X1516380D01*
X1433068Y835152D02*
X1468120Y800100D01*
X1247140Y835152D02*
X1433068D01*
X1189308Y892984D02*
X1247140Y835152D01*
X1189308Y892984D02*
Y912201D01*
X1248410Y1095756D02*
X1572006D01*
X1596390Y1120140D01*
X1759204D01*
X1871590Y1007754D01*
Y993140D02*
Y1007754D01*
X1866900Y988450D02*
X1871590Y993140D01*
X1807894Y988450D02*
X1866900D01*
X1804964Y985520D02*
X1807894Y988450D01*
X1804964Y936284D02*
Y985520D01*
X1767840Y899160D02*
X1804964Y936284D01*
X1283970Y737070D02*
X1430635D01*
X1480280Y687425D01*
Y667220D02*
Y687425D01*
Y667220D02*
X1487430Y660070D01*
X1630680D01*
X1520190Y1170140D02*
X1596390D01*
X1516380Y1173950D02*
X1520190Y1170140D01*
X1440180Y1173950D02*
X1516380D01*
X1342390D02*
X1440180D01*
X1329982Y1161542D02*
X1342390Y1173950D01*
X1220470Y1161542D02*
X1329982D01*
X976860Y1194080D02*
X1187932D01*
X1220470Y1161542D01*
X1200703Y900358D02*
X1305632D01*
X1338580Y867410D01*
X1609820D01*
X1626330Y850900D01*
X1687290Y911860D01*
X1755140D01*
X1767840Y924560D01*
X1212735Y919365D02*
X1227911Y934541D01*
X1327334D01*
X1355095Y906780D01*
X1371998D01*
X1405693Y940475D01*
X1747687D01*
X1752092Y944880D01*
Y957072D01*
X1760304Y965284D01*
X1774020D01*
X1779017Y970281D01*
Y989584D01*
X1767840Y1000760D02*
X1779017Y989584D01*
X1468120Y850100D02*
X1478064Y860044D01*
X1596390D01*
X1618844Y837590D01*
X1633880D01*
X1685798Y889508D01*
X1751838D01*
X1758188Y895858D01*
Y907034D01*
X1766229Y915075D01*
X1772920D01*
X1789176Y931331D01*
Y1004824D01*
X1767840Y1026160D02*
X1789176Y1004824D01*
X1032256Y687070D02*
X1283970D01*
X967740Y751586D02*
X1032256Y687070D01*
X345186Y1470406D02*
X825508D01*
X328930Y1454150D02*
X345186Y1470406D01*
X784860Y887730D02*
X823722Y926592D01*
X1119390D01*
X1145298Y952500D01*
X1337310D01*
X1367790Y922020D01*
X784860Y938530D02*
X824230Y977900D01*
X1141984D01*
X1151890Y967994D01*
X1329690D01*
X1360932Y999236D01*
X784860Y913130D02*
X824720Y952990D01*
X1068488D01*
X1073078Y957580D01*
X1355950D01*
X1362300Y951230D01*
X832866Y1002030D02*
X1010934D01*
X1017284Y995680D01*
X1190862D01*
X1206102Y1010920D01*
X1282738D01*
X1294168Y1022350D01*
X1306792D02*
X1328166Y1000976D01*
X632460Y938530D02*
X642526D01*
X706026Y1002030D01*
X1294168Y1022350D02*
X1306792D01*
X784860Y1014730D02*
X1081024D01*
X784860Y1141730D02*
X964692D01*
X758952Y685038D02*
X784860Y659130D01*
X722884Y685038D02*
X758952D01*
X685038Y722884D02*
X722884Y685038D01*
X506984Y722884D02*
X685038D01*
X442214Y787654D02*
X506984Y722884D01*
X396240Y787654D02*
X442214D01*
X395478Y1411732D02*
X406400Y1400810D01*
X395478Y1411732D02*
Y1435608D01*
X401320Y1441450D01*
X494030D01*
X506730Y1454150D01*
X513080Y787654D02*
X527304Y801878D01*
X513080Y779526D02*
Y787654D01*
Y779526D02*
X544068Y748538D01*
X677672D01*
X690880Y735330D01*
X784860D01*
X524256Y784098D02*
X534416Y773938D01*
X644652D01*
X657860Y760730D01*
X784860D01*
X570992Y901192D02*
X571246Y900938D01*
X656082D01*
X730250Y826770D01*
X378460Y953770D02*
X415544Y916686D01*
X611632D01*
X620776Y925830D01*
X670560D01*
X784860Y811530D01*
Y836930D02*
X819658Y802132D01*
X1325626D01*
X344170Y1443990D02*
X354330Y1454150D01*
X325120Y1443990D02*
X344170D01*
X319278Y1449832D02*
X325120Y1443990D01*
X319278Y1449832D02*
Y1475994D01*
X335280Y1491996D01*
X912622D01*
X926592Y1478026D01*
X557276Y811530D02*
X632460D01*
X548640Y820166D02*
X557276Y811530D01*
X380746Y820166D02*
X548640D01*
X368300Y807720D02*
X380746Y820166D01*
X368300Y794911D02*
Y807720D01*
Y794911D02*
X404005Y759206D01*
X460756D01*
X522732Y697230D01*
X649224D01*
X693928Y652526D01*
X748538D01*
X780034Y621030D01*
X1063244D01*
X1094486Y652272D01*
X1426718D01*
X1443990Y635000D01*
X1798320D01*
X632460Y811530D02*
X659638D01*
X671068Y822960D01*
X1575816Y1123950D02*
X1585316Y1133450D01*
X1802790D01*
X1859280Y1076960D01*
X1112520Y1082294D02*
X1166622Y1028192D01*
X1278457D01*
X1292935Y1042670D01*
X1519335D01*
X1524287Y1037718D01*
X1822322D02*
X1859280Y1000760D01*
X784860Y1065530D02*
X1097280D01*
X1112520Y1050290D01*
Y1043432D02*
Y1050290D01*
Y1043432D02*
X1127760Y1028192D01*
X1524287Y1037718D02*
X1822322D01*
X784860Y1090930D02*
X1044702D01*
X784860Y1116330D02*
X992378D01*
X1001268Y1125220D01*
X784860Y1192530D02*
X898398Y1306068D01*
X1564132D01*
X649675Y1481582D02*
X887222D01*
X902970Y1465834D01*
X978154D01*
X999490Y1487170D01*
X1506220D01*
X1897888Y1545082D02*
X1986280Y1456690D01*
Y1280160D02*
Y1456690D01*
X1859280Y1153160D02*
X1986280Y1280160D01*
X1506220Y1461770D02*
X1517904Y1450086D01*
X1707642D01*
X1802638Y1545082D01*
X1897888D01*
X620268Y1103122D02*
X632460Y1090930D01*
X620268Y1103122D02*
Y1352941D01*
X678297Y1410970D01*
X844804D01*
X856488Y1422654D01*
Y1432560D01*
X862330Y1438402D01*
X930275D01*
X947547Y1421130D01*
X1304544D01*
X1330619Y1447205D01*
X1466255D01*
X1480820Y1461770D01*
X632460Y1040130D02*
X644652Y1052322D01*
Y1351280D01*
X658622Y1365250D01*
X890778D01*
X941578Y1416050D01*
X1476756D01*
X1490472Y1429766D01*
Y1468120D01*
X1487337Y1471255D02*
X1490472Y1468120D01*
X1439505Y1471255D02*
X1487337D01*
X1430020Y1461770D02*
X1439505Y1471255D01*
X632460Y1014730D02*
X641096D01*
X663956Y1037590D01*
X711200D01*
X721360Y1047750D01*
Y1077214D01*
X772668Y1128522D01*
X984291D01*
X1001817Y1146048D01*
X1378966D01*
X1388872Y1155954D01*
X1220470Y35558D02*
Y30480D01*
Y33019D01*
X1223856D01*
Y35558D01*
Y30480D01*
X1228087D02*
X1226395D01*
X1225548Y31326D01*
Y33019D01*
X1226395Y33866D01*
X1228087D01*
X1228934Y33019D01*
Y32173D01*
X1225548D01*
X1230627Y30480D02*
X1232319D01*
X1231473D01*
Y35558D01*
X1230627D01*
X1234859Y30480D02*
X1236552D01*
X1235705D01*
Y35558D01*
X1234859D01*
X1239937Y30480D02*
X1241630D01*
X1242476Y31326D01*
Y33019D01*
X1241630Y33866D01*
X1239937D01*
X1239091Y33019D01*
Y31326D01*
X1239937Y30480D01*
X1249247Y33866D02*
X1250094D01*
Y33019D01*
X1249247D01*
Y33866D01*
Y31326D02*
X1250094D01*
Y30480D01*
X1249247D01*
Y31326D01*
X1253479Y30480D02*
X1255172Y32173D01*
Y33866D01*
X1253479Y35558D01*
D29*
X1967230Y1454150D02*
D03*
X916940D02*
D03*
X557530D02*
D03*
X1289050Y1457960D02*
D03*
X1633220Y1461770D02*
D03*
D30*
X1941830Y1454150D02*
D03*
X1916430D02*
D03*
X1891030D02*
D03*
X1865630D02*
D03*
X1840230D02*
D03*
X1814830D02*
D03*
X1738630D02*
D03*
X1967230Y1428750D02*
D03*
X1941830D02*
D03*
X1916430D02*
D03*
X1891030D02*
D03*
X1865630D02*
D03*
X1840230D02*
D03*
X1814830D02*
D03*
X1789430D02*
D03*
X1764030D02*
D03*
X1738630D02*
D03*
X1789430Y1454150D02*
D03*
X1764030D02*
D03*
X688340Y1428750D02*
D03*
X713740D02*
D03*
X739140D02*
D03*
X764540D02*
D03*
X789940D02*
D03*
X815340D02*
D03*
X840740D02*
D03*
X866140D02*
D03*
X891540D02*
D03*
X916940D02*
D03*
X688340Y1454150D02*
D03*
X713740D02*
D03*
X739140D02*
D03*
X764540D02*
D03*
X789940D02*
D03*
X815340D02*
D03*
X840740D02*
D03*
X866140D02*
D03*
X891540D02*
D03*
X328930Y1428750D02*
D03*
X354330D02*
D03*
X379730D02*
D03*
X405130D02*
D03*
X430530D02*
D03*
X455930D02*
D03*
X481330D02*
D03*
X506730D02*
D03*
X532130D02*
D03*
X557530D02*
D03*
X328930Y1454150D02*
D03*
X354330D02*
D03*
X379730D02*
D03*
X405130D02*
D03*
X430530D02*
D03*
X455930D02*
D03*
X481330D02*
D03*
X506730D02*
D03*
X532130D02*
D03*
X1060450Y1432560D02*
D03*
X1085850D02*
D03*
X1111250D02*
D03*
X1136650D02*
D03*
X1162050D02*
D03*
X1187450D02*
D03*
X1212850D02*
D03*
X1238250D02*
D03*
X1263650D02*
D03*
X1289050D02*
D03*
X1060450Y1457960D02*
D03*
X1085850D02*
D03*
X1111250D02*
D03*
X1136650D02*
D03*
X1162050D02*
D03*
X1187450D02*
D03*
X1212850D02*
D03*
X1238250D02*
D03*
X1263650D02*
D03*
X1742440Y1076960D02*
D03*
Y1051560D02*
D03*
Y1026160D02*
D03*
Y1000760D02*
D03*
Y975360D02*
D03*
Y949960D02*
D03*
Y924560D02*
D03*
Y899160D02*
D03*
Y873760D02*
D03*
Y848360D02*
D03*
X1767840Y1076960D02*
D03*
Y1051560D02*
D03*
Y1026160D02*
D03*
Y1000760D02*
D03*
Y975360D02*
D03*
Y949960D02*
D03*
Y924560D02*
D03*
Y899160D02*
D03*
Y873760D02*
D03*
X1404620Y1436370D02*
D03*
X1430020D02*
D03*
X1455420D02*
D03*
X1480820D02*
D03*
X1506220D02*
D03*
X1531620D02*
D03*
X1557020D02*
D03*
X1582420D02*
D03*
X1607820D02*
D03*
X1633220D02*
D03*
X1404620Y1461770D02*
D03*
X1430020D02*
D03*
X1455420D02*
D03*
X1480820D02*
D03*
X1506220D02*
D03*
X1531620D02*
D03*
X1557020D02*
D03*
X1582420D02*
D03*
X1607820D02*
D03*
D32*
X1073150Y333930D02*
D03*
D34*
X1859280Y962660D02*
D03*
Y1115060D02*
D03*
Y924560D02*
D03*
X1973280Y1248360D02*
D03*
Y1210260D02*
D03*
Y1172160D02*
D03*
Y1134060D02*
D03*
Y1095960D02*
D03*
Y1057860D02*
D03*
Y1019760D02*
D03*
Y981660D02*
D03*
Y943560D02*
D03*
Y905460D02*
D03*
X1859280Y1229360D02*
D03*
Y1191260D02*
D03*
Y1153160D02*
D03*
Y1076960D02*
D03*
Y1038860D02*
D03*
Y1000760D02*
D03*
D37*
Y886460D02*
D03*
D38*
X1073150Y129030D02*
D03*
D40*
X1767840Y848360D02*
D03*
D43*
X1024890Y450850D02*
D03*
Y603250D02*
D03*
X1101090D02*
D03*
D44*
Y450850D02*
D03*
D45*
X657860Y1065530D02*
D03*
X683260D02*
D03*
X759460D02*
D03*
X754360Y697230D02*
D03*
X632460Y989330D02*
D03*
X754360Y671830D02*
D03*
X632460Y608330D02*
D03*
X754360Y722630D02*
D03*
X784860Y633730D02*
D03*
Y963930D02*
D03*
X708660Y1065530D02*
D03*
X754360Y773430D02*
D03*
Y748030D02*
D03*
X632460Y963930D02*
D03*
X784860Y608330D02*
D03*
X632460Y633730D02*
D03*
X657860D02*
D03*
X632460Y659130D02*
D03*
X734060Y1065530D02*
D03*
X632460Y1014730D02*
D03*
Y1040130D02*
D03*
Y1065530D02*
D03*
Y1090930D02*
D03*
Y1116330D02*
D03*
Y1141730D02*
D03*
Y1167130D02*
D03*
Y1192530D02*
D03*
X784860D02*
D03*
Y1167130D02*
D03*
Y1141730D02*
D03*
Y1116330D02*
D03*
Y1090930D02*
D03*
Y1065530D02*
D03*
Y1040130D02*
D03*
Y1014730D02*
D03*
Y989330D02*
D03*
X632460Y684530D02*
D03*
Y709930D02*
D03*
Y735330D02*
D03*
Y760730D02*
D03*
Y786130D02*
D03*
Y811530D02*
D03*
Y836930D02*
D03*
Y862330D02*
D03*
Y887730D02*
D03*
Y913130D02*
D03*
Y938530D02*
D03*
X784860D02*
D03*
Y913130D02*
D03*
Y887730D02*
D03*
Y862330D02*
D03*
Y836930D02*
D03*
Y811530D02*
D03*
Y786130D02*
D03*
Y760730D02*
D03*
Y735330D02*
D03*
Y709930D02*
D03*
Y684530D02*
D03*
Y659130D02*
D03*
D46*
X440690Y677380D02*
D03*
X452120Y1128560D02*
D03*
X198120Y1142530D02*
D03*
X455930Y880910D02*
D03*
X200660Y877100D02*
D03*
X440690Y627380D02*
D03*
X201390Y593890D02*
D03*
X427450Y351320D02*
D03*
X197580Y333540D02*
D03*
X1882140Y158780D02*
D03*
Y384780D02*
D03*
X198120Y1242530D02*
D03*
X452120Y1228560D02*
D03*
X455930Y980910D02*
D03*
X200660Y977100D02*
D03*
X440690Y727380D02*
D03*
X201390Y693890D02*
D03*
X427450Y451320D02*
D03*
X197580Y433540D02*
D03*
X1615440Y389860D02*
D03*
Y163860D02*
D03*
X1898080Y740780D02*
D03*
Y514780D02*
D03*
X1596390Y1170140D02*
D03*
Y1120140D02*
D03*
Y1070140D02*
D03*
X1626330Y900900D02*
D03*
Y850900D02*
D03*
Y800900D02*
D03*
X1480280Y667220D02*
D03*
Y617220D02*
D03*
Y567220D02*
D03*
X1630680Y660070D02*
D03*
Y610070D02*
D03*
Y560070D02*
D03*
X1440180Y1173950D02*
D03*
Y1123950D02*
D03*
Y1073950D02*
D03*
X1468120Y900100D02*
D03*
Y850100D02*
D03*
Y800100D02*
D03*
X1283970Y737070D02*
D03*
Y687070D02*
D03*
Y637070D02*
D03*
X1302480Y470370D02*
D03*
Y420370D02*
D03*
Y370370D02*
D03*
X452120Y1178560D02*
D03*
X455930Y930910D02*
D03*
X427450Y401320D02*
D03*
X200660Y927100D02*
D03*
X201390Y643890D02*
D03*
X197580Y383540D02*
D03*
X198120Y1192530D02*
D03*
D47*
X1052830Y964800D02*
D03*
Y913800D02*
D03*
Y939800D02*
D03*
D48*
X1240790Y1182930D02*
D03*
X976860Y1194080D02*
D03*
D49*
X1240790Y1217930D02*
D03*
X976860Y1229080D02*
D03*
D50*
X1727962Y1016254D02*
D03*
X1008126Y1027938D02*
D03*
X1800352Y883802D02*
D03*
X1727962Y962660D02*
D03*
X1246160Y988314D02*
D03*
X988060Y707390D02*
D03*
X1721612Y1387602D02*
D03*
X1153160Y926864D02*
D03*
X989076Y1398270D02*
D03*
X1903476Y488950D02*
D03*
X1021334Y963676D02*
D03*
X1024890Y501720D02*
D03*
X1184910Y923703D02*
D03*
X1186942Y1006204D02*
D03*
X1672336Y976884D02*
D03*
X1573022Y991108D02*
D03*
X1163320Y983852D02*
D03*
X1300480Y995680D02*
D03*
X759206Y976630D02*
D03*
X1110742Y705866D02*
D03*
X1433068D02*
D03*
X1558290Y847090D02*
D03*
X414020Y951230D02*
D03*
X1689354Y1244092D02*
D03*
X383540Y808482D02*
D03*
X695960Y786130D02*
D03*
X1721612Y761746D02*
D03*
X1822450Y973074D02*
D03*
X1377950Y687070D02*
D03*
X1646428Y542346D02*
D03*
X1700276Y1460246D02*
D03*
X1271270Y882650D02*
D03*
X1176020Y1041488D02*
D03*
X1301750Y860260D02*
D03*
X1222756Y890198D02*
D03*
X1493774Y906272D02*
D03*
X1200150Y942340D02*
D03*
X606806Y535940D02*
D03*
X284226Y1390650D02*
D03*
X605536Y930910D02*
D03*
X478536Y768604D02*
D03*
X1248410Y1095756D02*
D03*
X1220470Y1161542D02*
D03*
X1200703Y900358D02*
D03*
X1212735Y919365D02*
D03*
X967740Y751586D02*
D03*
X825508Y1470406D02*
D03*
X1367790Y922020D02*
D03*
X1360932Y999236D02*
D03*
X1362300Y951230D02*
D03*
X832866Y1002030D02*
D03*
X1328166Y1000976D02*
D03*
X1081024Y1014730D02*
D03*
X964692Y1141730D02*
D03*
X396240Y787654D02*
D03*
X406400Y1400810D02*
D03*
X527304Y801878D02*
D03*
X524256Y784098D02*
D03*
X570992Y901192D02*
D03*
X730250Y826770D02*
D03*
X378460Y953770D02*
D03*
X1325626Y802132D02*
D03*
X926592Y1478026D02*
D03*
X1798320Y635000D02*
D03*
X671068Y822960D02*
D03*
X1575816Y1123950D02*
D03*
X1112520Y1082294D02*
D03*
X1044702Y1090930D02*
D03*
X1001268Y1125220D02*
D03*
X1564132Y1306068D02*
D03*
X649675Y1481582D02*
D03*
X1506220Y1487170D02*
D03*
X581152Y1545082D02*
D03*
X1388872Y1155954D02*
D03*
D51*
X168910Y1445260D02*
D03*
X2125980Y143510D02*
D03*
X2131060Y1446530D02*
D03*
X144780Y134620D02*
D03*
D52*
X2136555Y1287780D02*
X2116241D01*
Y1277623D01*
X2119627Y1274238D01*
X2133169D01*
X2136555Y1277623D01*
Y1287780D01*
X2116241Y1257310D02*
Y1264081D01*
X2119627Y1267467D01*
X2126398D01*
X2129783Y1264081D01*
Y1257310D01*
X2126398Y1253924D01*
X2123012D01*
Y1267467D01*
X2116241Y1247153D02*
Y1236996D01*
X2119627Y1233611D01*
X2123012Y1236996D01*
Y1243768D01*
X2126398Y1247153D01*
X2129783Y1243768D01*
Y1233611D01*
X2116241Y1226840D02*
Y1220069D01*
Y1223454D01*
X2129783D01*
Y1226840D01*
X2109470Y1203141D02*
Y1199755D01*
X2112856Y1196370D01*
X2129783D01*
Y1206526D01*
X2126398Y1209912D01*
X2119627D01*
X2116241Y1206526D01*
Y1196370D01*
Y1189598D02*
X2129783D01*
Y1179442D01*
X2126398Y1176056D01*
X2116241D01*
Y1159128D02*
Y1165900D01*
X2119627Y1169285D01*
X2126398D01*
X2129783Y1165900D01*
Y1159128D01*
X2126398Y1155743D01*
X2123012D01*
Y1169285D01*
X2136555Y1135429D02*
X2116241D01*
Y1145586D01*
X2119627Y1148972D01*
X2126398D01*
X2129783Y1145586D01*
Y1135429D01*
X2136555Y1108345D02*
X2116241D01*
Y1098188D01*
X2119627Y1094802D01*
X2123012D01*
X2126398D01*
X2129783Y1098188D01*
Y1108345D01*
Y1088031D02*
X2119627D01*
X2116241Y1084646D01*
Y1074489D01*
X2112856D01*
X2109470Y1077875D01*
Y1081260D01*
X2116241Y1074489D02*
X2129783D01*
X2116241Y1047404D02*
X2129783D01*
X2136555Y1040633D01*
X2129783Y1033862D01*
X2116241D01*
X2126398D01*
Y1047404D01*
X2116241Y1027091D02*
X2129783D01*
Y1016934D01*
X2126398Y1013549D01*
X2116241D01*
X2136555Y993235D02*
X2116241D01*
Y1003392D01*
X2119627Y1006778D01*
X2126398D01*
X2129783Y1003392D01*
Y993235D01*
Y986464D02*
X2116241D01*
X2123012D01*
X2126398Y983079D01*
X2129783Y979693D01*
Y976308D01*
X2116241Y955994D02*
Y962765D01*
X2119627Y966151D01*
X2126398D01*
X2129783Y962765D01*
Y955994D01*
X2126398Y952608D01*
X2123012D01*
Y966151D01*
X2129783Y945837D02*
X2119627D01*
X2116241Y942452D01*
X2119627Y939066D01*
X2116241Y935681D01*
X2119627Y932295D01*
X2129783D01*
X2116241Y891668D02*
X2119627Y895054D01*
X2116241Y898439D01*
Y901825D01*
X2119627Y905211D01*
X2123012D01*
X2126398Y901825D01*
X2129783Y905211D01*
X2133169D01*
X2136555Y901825D01*
Y898439D01*
X2133169Y895054D01*
X2129783D01*
X2126398Y898439D01*
X2123012Y895054D01*
X2119627D01*
X2126398Y891668D02*
X2123012Y895054D01*
X2126398Y901825D02*
Y898439D01*
X2136555Y864584D02*
X2116241D01*
X2123012D01*
X2136555Y851041D01*
X2126398Y861198D01*
X2116241Y851041D01*
X2129783Y844270D02*
X2119627D01*
X2116241Y840885D01*
Y830728D01*
X2112856D01*
X2109470Y834114D01*
Y837499D01*
X2116241Y830728D02*
X2129783D01*
X2116241Y823957D02*
Y817186D01*
Y820571D01*
X2136555D01*
Y823957D01*
X2116241Y796872D02*
Y803643D01*
X2119627Y807029D01*
X2126398D01*
X2129783Y803643D01*
Y796872D01*
X2126398Y793487D01*
X2123012D01*
Y807029D01*
D53*
X349245Y100320D02*
X339088D01*
X334010Y95242D01*
Y74928D01*
X339088Y69850D01*
X349245D01*
X354323Y74928D01*
Y95242D01*
X349245Y100320D01*
X384794D02*
X364480D01*
Y85085D01*
X374637D01*
X364480D01*
Y69850D01*
X415264Y100320D02*
X394950D01*
Y85085D01*
X405107D01*
X394950D01*
Y69850D01*
X455891D02*
Y100320D01*
X471126D01*
X476204Y95242D01*
Y85085D01*
X471126Y80007D01*
X455891D01*
X466047D02*
X476204Y69850D01*
X501596Y100320D02*
X491439D01*
X486361Y95242D01*
Y74928D01*
X491439Y69850D01*
X501596D01*
X506674Y74928D01*
Y95242D01*
X501596Y100320D01*
X516831Y69850D02*
Y90163D01*
X526988Y100320D01*
X537144Y90163D01*
Y69850D01*
Y85085D01*
X516831D01*
X547301Y100320D02*
Y69850D01*
X562536D01*
X567614Y74928D01*
Y95242D01*
X562536Y100320D01*
X547301D01*
D54*
X344166Y136518D02*
X340992Y139692D01*
X334644D01*
X331470Y136518D01*
Y123822D01*
X334644Y120648D01*
X340992D01*
X344166Y123822D01*
Y130170D01*
X337818D01*
X360036Y120648D02*
X353688D01*
X350514Y123822D01*
Y130170D01*
X353688Y133344D01*
X360036D01*
X363210Y130170D01*
Y126996D01*
X350514D01*
X372732Y120648D02*
X379080D01*
X382254Y123822D01*
Y130170D01*
X379080Y133344D01*
X372732D01*
X369558Y130170D01*
Y123822D01*
X372732Y120648D01*
X388602Y133344D02*
Y120648D01*
Y126996D01*
X391776Y130170D01*
X394949Y133344D01*
X398124D01*
X413993Y114300D02*
X417167D01*
X420341Y117474D01*
Y133344D01*
X410819D01*
X407645Y130170D01*
Y123822D01*
X410819Y120648D01*
X420341D01*
X426689D02*
X433037D01*
X429863D01*
Y133344D01*
X426689D01*
X445733D02*
X452081D01*
X455255Y130170D01*
Y120648D01*
X445733D01*
X442559Y123822D01*
X445733Y126996D01*
X455255D01*
X480647Y139692D02*
X493343D01*
X486995D01*
Y120648D01*
X509213D02*
X502865D01*
X499691Y123822D01*
Y130170D01*
X502865Y133344D01*
X509213D01*
X512387Y130170D01*
Y126996D01*
X499691D01*
X531430Y133344D02*
X521908D01*
X518735Y130170D01*
Y123822D01*
X521908Y120648D01*
X531430D01*
X537778Y139692D02*
Y120648D01*
Y130170D01*
X540952Y133344D01*
X547300D01*
X550474Y130170D01*
Y120648D01*
M02*
