M48
;Layer_Color=9474304
;FILE_FORMAT=4:4
METRIC
;TYPE=PLATED
T01F00S00C0.6350
T02F00S00C0.6500
T03F00S00C0.7112
T04F00S00C1.1000
T05F00S00C1.1100
T06F00S00C1.3000
T07F00S00C1.3950
T08F00S00C10.0000
%
T01
X01742440Y00848360
Y00873760
Y00899160
Y00924560
Y00949960
Y00975360
Y01000760
Y01026160
Y01051560
Y01076960
X01767840
Y01051560
Y01026160
Y01000760
Y00975360
Y00949960
Y00924560
Y00899160
Y00873760
Y00848360
X01764030Y01428750
X01789430
X01814830
Y01454150
X01840230
X01865630
X01891030
X01916430
X01941830
X01967230
Y01428750
X01941830
X01916430
X01891030
X01865630
X01840230
X01789430Y01454150
X01764030
X01738630
Y01428750
X01633220Y01436370
X01607820
Y01461770
X01633220
X01582420
Y01436370
X01557020
X01531620
X01506220
X01480820
X01455420
X01430020
X01404620
Y01461770
X01430020
X01455420
X01480820
X01506220
X01531620
X01557020
X01289050Y01457960
Y01432560
X01263650
X01238250
X01212850
Y01457960
X01238250
X01263650
X01187450
Y01432560
X01162050
X01136650
X01111250
X01085850
X01060450
Y01457960
X01085850
X01111250
X01136650
X01162050
X00916940Y01454150
Y01428750
X00891540
X00866140
X00840740
X00815340
Y01454150
X00840740
X00866140
X00891540
X00789940
Y01428750
X00764540
X00739140
X00713740
X00688340
Y01454150
X00713740
X00739140
X00764540
X00557530
Y01428750
X00532130
X00506730
X00481330
X00455930
X00430530
X00405130
Y01454150
X00430530
X00455930
X00481330
X00506730
X00532130
X00379730
Y01428750
X00354330
X00328930
Y01454150
X00354330
T02
X01024890Y00450850
X01101090
Y00603250
X01024890
T03
X01876806Y00534924
X01846580Y00574548
X01465072Y00518668
X01437640Y00508254
X01547114Y00750062
X01105408Y00742188
X00961136Y00596138
X00617220Y00646430
X00601218Y00783082
X00493776Y00735330
X00562610Y00491744
X00552450Y00795020
X00568706Y00806450
X00586486Y00874522
X00548386Y00875030
X00520170Y00891772
X00497078Y00897636
X00503428Y00926338
X00586740Y00951795
X00670052
X00681228Y00996188
X00718820Y01043432
X00757428Y01010666
X00765810Y01085850
X00728980Y00862330
X00721360Y00841756
X00696468Y00836930
X00671068Y00858774
X00800100Y00900430
X00812292Y00976122
X00816610Y01005840
X00814832Y01053338
X00872998Y01050544
X00888746Y01116330
X00888238Y00926338
X00953008Y00901192
X01159002Y00893740
Y00925068
X01183386Y01011174
X01188466Y01064260
X01178306Y01099820
X01174750Y01124204
X01111556Y01182930
X01080008Y01004062
X01229360Y00996950
X01260348Y01030224
X01295400Y01000252
X01327150Y01021588
X01346200Y00987044
X01360424Y00939800
X01342546Y00926240
X01287272Y00927862
X01326896Y00876300
X01211412Y00893740
X01205230Y00860298
X01195676Y00950722
X01207516Y01046226
X01228852Y01148334
X01515110Y01134110
X01552319Y01008001
X01542034Y00950722
X01540510Y00920750
Y00838670
X01435862Y00824992
X01425702Y00802132
X01460246Y00996188
X01702308Y00940308
X01719834Y00892556
X01789430Y01002030
X01828546Y01012952
X01691894Y01122172
X01672844Y01109218
X01654260Y01114806
X01672844Y01208786
X01709166Y01229360
X01661160Y01348740
X01700530Y01438148
X01830745Y01503680
X01859280Y01210310
X01521968Y01397508
X01376172Y01382268
X01329182Y01337564
X01417320Y01323848
X00991362Y01317752
X00821436Y01398270
X00801116Y01391920
X00759460Y01268222
X00701040Y01478788
X00628396Y01423162
T04
X01052830Y00913800
Y00939800
Y00964800
X01240790Y01182930
X01859280Y01153160
Y01115060
Y01076960
Y01038860
Y01000760
Y00962660
Y00924560
Y00886460
X01973280Y00905460
Y00943560
Y00981660
Y01019760
Y01057860
Y01095960
Y01134060
Y01172160
Y01210260
Y01248360
X01859280Y01229360
Y01191260
X01240790Y01217930
X00976860Y01229080
Y01194080
T05
X00632460Y00608330
Y00633730
X00657860
X00632460Y00659130
Y00684530
Y00709930
Y00735330
Y00760730
Y00786130
X00754360Y00773430
Y00748030
Y00722630
Y00697230
Y00671830
X00784860Y00684530
Y00709930
Y00735330
Y00760730
Y00786130
Y00659130
Y00633730
Y00608330
Y00811530
Y00836930
Y00862330
Y00887730
Y00913130
Y00938530
Y00963930
Y00989330
Y01014730
Y01040130
Y01065530
X00759460
X00734060
X00708660
X00683260
X00657860
X00632460
Y01040130
Y01014730
Y00989330
Y00963930
Y00938530
Y00913130
Y00887730
Y00862330
Y00836930
Y00811530
Y01090930
Y01116330
Y01141730
Y01167130
X00784860
Y01141730
Y01116330
Y01090930
Y01192530
X00632460
T06
X00197580Y00333540
Y00383540
X00427450Y00351320
X01302480Y00370370
X01630680Y00560070
Y00610070
Y00660070
X01480280Y00667220
Y00617220
Y00567220
X01283970Y00637070
Y00687070
Y00737070
X01302480Y00470370
Y00420370
X00427450Y00401320
Y00451320
X00440690Y00627380
Y00677380
Y00727380
X00201390Y00693890
Y00643890
Y00593890
X00197580Y00433540
X00200660Y00877100
Y00927100
Y00977100
X00198120Y01142530
X00452120Y01128560
Y01178560
X00455930Y00980910
Y00930910
Y00880910
X01468120Y00900100
Y00850100
Y00800100
X01440180Y01073950
Y01123950
Y01173950
X01596390Y01170140
Y01120140
Y01070140
X01626330Y00900900
Y00850900
Y00800900
X00452120Y01228560
X00198120Y01242530
Y01192530
T07
X01073150Y00129030
Y00333930
T08
X00144780Y00134620
X02125980Y00143510
X02131060Y01446530
X00168910Y01445260
M30
