M48
;Layer_Color=9474304
;FILE_FORMAT=4:4
METRIC,LZ
;TYPE=PLATED
T01F00S00C0.6350
T02F00S00C0.6500
T03F00S00C0.7112
T04F00S00C1.1000
T05F00S00C1.1100
T06F00S00C1.3000
T07F00S00C1.3950
T08F00S00C10.0000
;TYPE=NON_PLATED
T09F00S00C1.9000
%
T01
X0174244Y0084836
Y0087376
Y0089916
Y0092456
Y0094996
Y0097536
Y0100076
Y0102616
Y0105156
Y0107696
X0176784
Y0105156
Y0102616
Y0100076
Y0097536
Y0094996
Y0092456
Y0089916
Y0087376
Y0084836
X0176403Y0142875
X0178943
X0181483
Y0145415
X0184023
X0186563
X0189103
X0191643
X0194183
X0196723
Y0142875
X0194183
X0191643
X0189103
X0186563
X0184023
X0178943Y0145415
X0176403
X0173863
Y0142875
X0163322Y0143637
X0160782
Y0146177
X0163322
X0158242
Y0143637
X0155702
X0153162
X0150622
X0148082
X0145542
X0143002
X0140462
Y0146177
X0143002
X0145542
X0148082
X0150622
X0153162
X0155702
X0128905Y0145796
Y0143256
X0126365
X0123825
X0121285
Y0145796
X0123825
X0126365
X0118745
Y0143256
X0116205
X0113665
X0111125
X0108585
X0106045
Y0145796
X0108585
X0111125
X0113665
X0116205
X0091694Y0145415
Y0142875
X0089154
X0086614
X0084074
X0081534
Y0145415
X0084074
X0086614
X0089154
X0078994
Y0142875
X0076454
X0073914
X0071374
X0068834
Y0145415
X0071374
X0073914
X0076454
X0055753
Y0142875
X0053213
X0050673
X0048133
X0045593
X0043053
X0040513
Y0145415
X0043053
X0045593
X0048133
X0050673
X0053213
X0037973
Y0142875
X0035433
X0032893
Y0145415
X0035433
T02
X0102489Y0045085
X0110109
Y0060325
X0102489
T03
X01646428Y00542346
X0179832Y00635
X01721612Y00761746
X01903476Y0048895
X01433068Y00705866
X0137795Y0068707
X01110742Y00705866
X0098806Y0070739
X0096774Y00751586
X0102489Y0050172
X00606806Y0053594
X00524256Y00784098
X00478536Y00768604
X0069596Y0078613
X0039624Y00787654
X0038354Y00808482
X0037846Y0095377
X0041402Y0095123
X00570992Y00901192
X00605536Y0093091
X00671068Y0082296
X0073025Y0082677
X00759206Y0097663
X00527304Y00801878
X00832866Y0100203
X01008126Y01027938
X01021334Y00963676
X01081024Y0101473
X0111252Y01082294
X01044702Y0109093
X01001268Y0112522
X00964692Y0114173
X0117602Y01041488
X01186942Y01006204
X0116332Y00983852
X0115316Y00926864
X0118491Y00923703
X01212735Y00919365
X01200703Y00900358
X01222756Y00890198
X0127127Y0088265
X0130175Y0086026
X01325626Y00802132
X0136779Y0092202
X013623Y0095123
X01360932Y00999236
X01328166Y01000976
X0130048Y0099568
X0124616Y00988314
X0120015Y0094234
X0124841Y01095756
X0122047Y01161542
X01388872Y01155954
X01575816Y0112395
X01573022Y00991108
X0155829Y0084709
X01493774Y00906272
X01672336Y00976884
X01727962Y0096266
Y01016254
X0182245Y00973074
X01800352Y00883802
X01689354Y01244092
X01721612Y01387602
X01700276Y01460246
X0150622Y0148717
X01564132Y01306068
X00989076Y0139827
X00926592Y01478026
X00825508Y01470406
X00649675Y01481582
X00581152Y01545082
X004064Y0140081
X00284226Y0139065
T04
X0105283Y009138
Y009398
Y009648
X0124079Y0118293
X0185928Y0115316
Y0111506
Y0107696
Y0103886
Y0100076
Y0096266
Y0092456
Y0088646
X0197328Y0090546
Y0094356
Y0098166
Y0101976
Y0105786
Y0109596
Y0113406
Y0117216
Y0121026
Y0124836
X0185928Y0122936
Y0119126
X0124079Y0121793
X0097686Y0122908
Y0119408
T05
X0063246Y0060833
Y0063373
X0065786
X0063246Y0065913
Y0068453
Y0070993
Y0073533
Y0076073
Y0078613
X0075436Y0077343
Y0074803
Y0072263
Y0069723
Y0067183
X0078486Y0068453
Y0070993
Y0073533
Y0076073
Y0078613
Y0065913
Y0063373
Y0060833
Y0081153
Y0083693
Y0086233
Y0088773
Y0091313
Y0093853
Y0096393
Y0098933
Y0101473
Y0104013
Y0106553
X0075946
X0073406
X0070866
X0068326
X0065786
X0063246
Y0104013
Y0101473
Y0098933
Y0096393
Y0093853
Y0091313
Y0088773
Y0086233
Y0083693
Y0081153
Y0109093
Y0111633
Y0114173
Y0116713
X0078486
Y0114173
Y0111633
Y0109093
Y0119253
X0063246
T06
X0019758Y0033354
Y0038354
X0042745Y0035132
X0130248Y0037037
X0163068Y0056007
Y0061007
Y0066007
X0148028Y0066722
Y0061722
Y0056722
X0128397Y0063707
Y0068707
Y0073707
X0130248Y0047037
Y0042037
X0042745Y0040132
Y0045132
X0044069Y0062738
Y0067738
Y0072738
X0020139Y0069389
Y0064389
Y0059389
X0019758Y0043354
X0020066Y008771
Y009271
Y009771
X0019812Y0114253
X0045212Y0112856
Y0117856
X0045593Y0098091
Y0093091
Y0088091
X0146812Y009001
Y008501
Y008001
X0144018Y0107395
Y0112395
Y0117395
X0159639Y0117014
Y0112014
Y0107014
X0162633Y009009
Y008509
Y008009
X0045212Y0122856
X0019812Y0124253
Y0119253
T07
X0107315Y0012903
Y0033393
T08
X0014478Y0013462
X0212598Y0014351
X0213106Y0144653
X0016891Y0144526
T09
X0161544Y0016386
Y0038986
X0188214Y0038478
Y0015878
X0189808Y0051478
Y0074078
M30
