G04*
G04 #@! TF.GenerationSoftware,Altium Limited,Altium Designer,25.8.1 (18)*
G04*
G04 Layer_Color=16711935*
%FSLAX44Y44*%
%MOMM*%
G71*
G04*
G04 #@! TF.SameCoordinates,19703CB6-802F-4BDA-AB5A-024942CB4A5B*
G04*
G04*
G04 #@! TF.FilePolarity,Negative*
G04*
G01*
G75*
%ADD27C,1.3612*%
%ADD28R,1.3612X1.3612*%
%ADD29R,1.1350X1.1350*%
%ADD30C,1.1350*%
%ADD31C,1.8682*%
%ADD32C,2.1450*%
%ADD33C,2.1032*%
%ADD34C,1.7000*%
%ADD35C,1.8032*%
G04:AMPARAMS|DCode=36|XSize=1.8532mm|YSize=1.8532mm|CornerRadius=0.5141mm|HoleSize=0mm|Usage=FLASHONLY|Rotation=90.000|XOffset=0mm|YOffset=0mm|HoleType=Round|Shape=RoundedRectangle|*
%AMROUNDEDRECTD36*
21,1,1.8532,0.8250,0,0,90.0*
21,1,0.8250,1.8532,0,0,90.0*
1,1,1.0282,0.4125,0.4125*
1,1,1.0282,0.4125,-0.4125*
1,1,1.0282,-0.4125,-0.4125*
1,1,1.0282,-0.4125,0.4125*
%
%ADD36ROUNDEDRECTD36*%
%ADD37R,1.7000X1.7000*%
%ADD38R,2.1450X2.1450*%
%ADD39C,1.8532*%
%ADD40R,1.1350X1.1350*%
%ADD41C,1.4732*%
%ADD42C,20.2032*%
D27*
X1024890Y450850D02*
D03*
Y603250D02*
D03*
X1101090D02*
D03*
D28*
Y450850D02*
D03*
D29*
X1967230Y1454150D02*
D03*
X916940D02*
D03*
X557530D02*
D03*
X1289050Y1457960D02*
D03*
X1633220Y1461770D02*
D03*
D30*
X1941830Y1454150D02*
D03*
X1916430D02*
D03*
X1891030D02*
D03*
X1865630D02*
D03*
X1840230D02*
D03*
X1814830D02*
D03*
X1738630D02*
D03*
X1967230Y1428750D02*
D03*
X1941830D02*
D03*
X1916430D02*
D03*
X1891030D02*
D03*
X1865630D02*
D03*
X1840230D02*
D03*
X1814830D02*
D03*
X1789430D02*
D03*
X1764030D02*
D03*
X1738630D02*
D03*
X1789430Y1454150D02*
D03*
X1764030D02*
D03*
X688340Y1428750D02*
D03*
X713740D02*
D03*
X739140D02*
D03*
X764540D02*
D03*
X789940D02*
D03*
X815340D02*
D03*
X840740D02*
D03*
X866140D02*
D03*
X891540D02*
D03*
X916940D02*
D03*
X688340Y1454150D02*
D03*
X713740D02*
D03*
X739140D02*
D03*
X764540D02*
D03*
X789940D02*
D03*
X815340D02*
D03*
X840740D02*
D03*
X866140D02*
D03*
X891540D02*
D03*
X328930Y1428750D02*
D03*
X354330D02*
D03*
X379730D02*
D03*
X405130D02*
D03*
X430530D02*
D03*
X455930D02*
D03*
X481330D02*
D03*
X506730D02*
D03*
X532130D02*
D03*
X557530D02*
D03*
X328930Y1454150D02*
D03*
X354330D02*
D03*
X379730D02*
D03*
X405130D02*
D03*
X430530D02*
D03*
X455930D02*
D03*
X481330D02*
D03*
X506730D02*
D03*
X532130D02*
D03*
X1060450Y1432560D02*
D03*
X1085850D02*
D03*
X1111250D02*
D03*
X1136650D02*
D03*
X1162050D02*
D03*
X1187450D02*
D03*
X1212850D02*
D03*
X1238250D02*
D03*
X1263650D02*
D03*
X1289050D02*
D03*
X1060450Y1457960D02*
D03*
X1085850D02*
D03*
X1111250D02*
D03*
X1136650D02*
D03*
X1162050D02*
D03*
X1187450D02*
D03*
X1212850D02*
D03*
X1238250D02*
D03*
X1263650D02*
D03*
X1742440Y1076960D02*
D03*
Y1051560D02*
D03*
Y1026160D02*
D03*
Y1000760D02*
D03*
Y975360D02*
D03*
Y949960D02*
D03*
Y924560D02*
D03*
Y899160D02*
D03*
Y873760D02*
D03*
Y848360D02*
D03*
X1767840Y1076960D02*
D03*
Y1051560D02*
D03*
Y1026160D02*
D03*
Y1000760D02*
D03*
Y975360D02*
D03*
Y949960D02*
D03*
Y924560D02*
D03*
Y899160D02*
D03*
Y873760D02*
D03*
X1404620Y1436370D02*
D03*
X1430020D02*
D03*
X1455420D02*
D03*
X1480820D02*
D03*
X1506220D02*
D03*
X1531620D02*
D03*
X1557020D02*
D03*
X1582420D02*
D03*
X1607820D02*
D03*
X1633220D02*
D03*
X1404620Y1461770D02*
D03*
X1430020D02*
D03*
X1455420D02*
D03*
X1480820D02*
D03*
X1506220D02*
D03*
X1531620D02*
D03*
X1557020D02*
D03*
X1582420D02*
D03*
X1607820D02*
D03*
D31*
X657860Y1065530D02*
D03*
X683260D02*
D03*
X759460D02*
D03*
X754360Y697230D02*
D03*
X632460Y989330D02*
D03*
X754360Y671830D02*
D03*
X632460Y608330D02*
D03*
X754360Y722630D02*
D03*
X784860Y633730D02*
D03*
Y963930D02*
D03*
X708660Y1065530D02*
D03*
X754360Y773430D02*
D03*
Y748030D02*
D03*
X632460Y963930D02*
D03*
X784860Y608330D02*
D03*
X632460Y633730D02*
D03*
X657860D02*
D03*
X632460Y659130D02*
D03*
X734060Y1065530D02*
D03*
X632460Y1014730D02*
D03*
Y1040130D02*
D03*
Y1065530D02*
D03*
Y1090930D02*
D03*
Y1116330D02*
D03*
Y1141730D02*
D03*
Y1167130D02*
D03*
Y1192530D02*
D03*
X784860D02*
D03*
Y1167130D02*
D03*
Y1141730D02*
D03*
Y1116330D02*
D03*
Y1090930D02*
D03*
Y1065530D02*
D03*
Y1040130D02*
D03*
Y1014730D02*
D03*
Y989330D02*
D03*
X632460Y684530D02*
D03*
Y709930D02*
D03*
Y735330D02*
D03*
Y760730D02*
D03*
Y786130D02*
D03*
Y811530D02*
D03*
Y836930D02*
D03*
Y862330D02*
D03*
Y887730D02*
D03*
Y913130D02*
D03*
Y938530D02*
D03*
X784860D02*
D03*
Y913130D02*
D03*
Y887730D02*
D03*
Y862330D02*
D03*
Y836930D02*
D03*
Y811530D02*
D03*
Y786130D02*
D03*
Y760730D02*
D03*
Y735330D02*
D03*
Y709930D02*
D03*
Y684530D02*
D03*
Y659130D02*
D03*
D32*
X1073150Y333930D02*
D03*
D33*
X440690Y677380D02*
D03*
X452120Y1128560D02*
D03*
X198120Y1142530D02*
D03*
X455930Y880910D02*
D03*
X200660Y877100D02*
D03*
X440690Y627380D02*
D03*
X201390Y593890D02*
D03*
X427450Y351320D02*
D03*
X197580Y333540D02*
D03*
X1882140Y158780D02*
D03*
Y384780D02*
D03*
X198120Y1242530D02*
D03*
X452120Y1228560D02*
D03*
X455930Y980910D02*
D03*
X200660Y977100D02*
D03*
X440690Y727380D02*
D03*
X201390Y693890D02*
D03*
X427450Y451320D02*
D03*
X197580Y433540D02*
D03*
X1615440Y389860D02*
D03*
Y163860D02*
D03*
X1898080Y740780D02*
D03*
Y514780D02*
D03*
X1596390Y1170140D02*
D03*
Y1120140D02*
D03*
Y1070140D02*
D03*
X1626330Y900900D02*
D03*
Y850900D02*
D03*
Y800900D02*
D03*
X1480280Y667220D02*
D03*
Y617220D02*
D03*
Y567220D02*
D03*
X1630680Y660070D02*
D03*
Y610070D02*
D03*
Y560070D02*
D03*
X1440180Y1173950D02*
D03*
Y1123950D02*
D03*
Y1073950D02*
D03*
X1468120Y900100D02*
D03*
Y850100D02*
D03*
Y800100D02*
D03*
X1283970Y737070D02*
D03*
Y687070D02*
D03*
Y637070D02*
D03*
X1302480Y470370D02*
D03*
Y420370D02*
D03*
Y370370D02*
D03*
X452120Y1178560D02*
D03*
X455930Y930910D02*
D03*
X427450Y401320D02*
D03*
X200660Y927100D02*
D03*
X201390Y643890D02*
D03*
X197580Y383540D02*
D03*
X198120Y1192530D02*
D03*
D34*
X1859280Y962660D02*
D03*
Y1115060D02*
D03*
Y924560D02*
D03*
X1973280Y1248360D02*
D03*
Y1210260D02*
D03*
Y1172160D02*
D03*
Y1134060D02*
D03*
Y1095960D02*
D03*
Y1057860D02*
D03*
Y1019760D02*
D03*
Y981660D02*
D03*
Y943560D02*
D03*
Y905460D02*
D03*
X1859280Y1229360D02*
D03*
Y1191260D02*
D03*
Y1153160D02*
D03*
Y1076960D02*
D03*
Y1038860D02*
D03*
Y1000760D02*
D03*
D35*
X1052830Y964800D02*
D03*
Y913800D02*
D03*
Y939800D02*
D03*
D36*
X1240790Y1182930D02*
D03*
X976860Y1194080D02*
D03*
D37*
X1859280Y886460D02*
D03*
D38*
X1073150Y129030D02*
D03*
D39*
X1240790Y1217930D02*
D03*
X976860Y1229080D02*
D03*
D40*
X1767840Y848360D02*
D03*
D41*
X1727962Y1016254D02*
D03*
X1008126Y1027938D02*
D03*
X1800352Y883802D02*
D03*
X1727962Y962660D02*
D03*
X1246160Y988314D02*
D03*
X988060Y707390D02*
D03*
X1721612Y1387602D02*
D03*
X1153160Y926864D02*
D03*
X989076Y1398270D02*
D03*
X1903476Y488950D02*
D03*
X1021334Y963676D02*
D03*
X1024890Y501720D02*
D03*
X1184910Y923703D02*
D03*
X1186942Y1006204D02*
D03*
X1672336Y976884D02*
D03*
X1573022Y991108D02*
D03*
X1163320Y983852D02*
D03*
X1300480Y995680D02*
D03*
X759206Y976630D02*
D03*
X1110742Y705866D02*
D03*
X1433068D02*
D03*
X1558290Y847090D02*
D03*
X414020Y951230D02*
D03*
X1689354Y1244092D02*
D03*
X383540Y808482D02*
D03*
X695960Y786130D02*
D03*
X1721612Y761746D02*
D03*
X1822450Y973074D02*
D03*
X1377950Y687070D02*
D03*
X1646428Y542346D02*
D03*
X1700276Y1460246D02*
D03*
X1271270Y882650D02*
D03*
X1176020Y1041488D02*
D03*
X1301750Y860260D02*
D03*
X1222756Y890198D02*
D03*
X1493774Y906272D02*
D03*
X1200150Y942340D02*
D03*
X606806Y535940D02*
D03*
X284226Y1390650D02*
D03*
X605536Y930910D02*
D03*
X478536Y768604D02*
D03*
X1248410Y1095756D02*
D03*
X1220470Y1161542D02*
D03*
X1200703Y900358D02*
D03*
X1212735Y919365D02*
D03*
X967740Y751586D02*
D03*
X825508Y1470406D02*
D03*
X1367790Y922020D02*
D03*
X1360932Y999236D02*
D03*
X1362300Y951230D02*
D03*
X832866Y1002030D02*
D03*
X1328166Y1000976D02*
D03*
X1081024Y1014730D02*
D03*
X964692Y1141730D02*
D03*
X396240Y787654D02*
D03*
X406400Y1400810D02*
D03*
X527304Y801878D02*
D03*
X524256Y784098D02*
D03*
X570992Y901192D02*
D03*
X730250Y826770D02*
D03*
X378460Y953770D02*
D03*
X1325626Y802132D02*
D03*
X926592Y1478026D02*
D03*
X1798320Y635000D02*
D03*
X671068Y822960D02*
D03*
X1575816Y1123950D02*
D03*
X1112520Y1082294D02*
D03*
X1044702Y1090930D02*
D03*
X1001268Y1125220D02*
D03*
X1564132Y1306068D02*
D03*
X649675Y1481582D02*
D03*
X1506220Y1487170D02*
D03*
X581152Y1545082D02*
D03*
X1388872Y1155954D02*
D03*
D42*
X168910Y1445260D02*
D03*
X2125980Y143510D02*
D03*
X2131060Y1446530D02*
D03*
X144780Y134620D02*
D03*
M02*
