G04*
G04 #@! TF.GenerationSoftware,Altium Limited,Altium Designer,25.8.1 (18)*
G04*
G04 Layer_Color=65535*
%FSLAX44Y44*%
%MOMM*%
G71*
G04*
G04 #@! TF.SameCoordinates,1CB4CA92-3C3F-48A4-B028-BF96C05B1928*
G04*
G04*
G04 #@! TF.FilePolarity,Positive*
G04*
G01*
G75*
%ADD10C,0.1270*%
%ADD11C,0.2000*%
%ADD12C,0.2500*%
%ADD13C,0.6000*%
%ADD14C,0.2540*%
D10*
X1009890Y631350D02*
G03*
X996990Y618450I0J-12900D01*
G01*
X1128990D02*
G03*
X1116090Y631350I-12900J0D01*
G01*
X996990Y435650D02*
G03*
X1009890Y422750I12900J0D01*
G01*
X1009990Y631350D02*
X1037590D01*
X996990Y590550D02*
Y618550D01*
X1088390Y631350D02*
X1115990D01*
X1128990Y590550D02*
Y618550D01*
Y422750D02*
Y450850D01*
X1101090Y422750D02*
X1128990D01*
X1009990D02*
X1037590D01*
X996990Y435550D02*
Y463550D01*
D11*
X1103990Y417050D02*
G03*
X1103990Y417050I-1000J0D01*
G01*
X1041400Y289280D02*
G03*
X1104900Y289280I31750J-110582D01*
G01*
X803860Y659130D02*
G03*
X803860Y660130I0J500D01*
G01*
D02*
G03*
X803860Y659130I0J-500D01*
G01*
D02*
G03*
X803860Y660130I0J500D01*
G01*
X1616890Y1170140D02*
G03*
X1616890Y1170140I-20500J0D01*
G01*
Y1120140D02*
G03*
X1616890Y1120140I-20500J0D01*
G01*
Y1070140D02*
G03*
X1616890Y1070140I-20500J0D01*
G01*
X1608358Y1045140D02*
G03*
X1609224Y1046640I0J1000D01*
G01*
X1608935Y1050140D02*
G03*
X1608069Y1048640I0J-1000D01*
G01*
X1618411D02*
G03*
X1617545Y1050140I-866J500D01*
G01*
X1617256Y1046640D02*
G03*
X1618122Y1045140I866J-500D01*
G01*
X1618411Y1198640D02*
G03*
X1617545Y1200140I-866J500D01*
G01*
X1608935D02*
G03*
X1608069Y1198640I0J-1000D01*
G01*
X1561719Y1191640D02*
G03*
X1562585Y1190140I866J-500D01*
G01*
X1562874Y1193640D02*
G03*
X1562008Y1195140I-866J500D01*
G01*
X1571772D02*
G03*
X1570906Y1193640I0J-1000D01*
G01*
X1571195Y1190140D02*
G03*
X1572061Y1191640I0J1000D01*
G01*
X1571195Y1040140D02*
G03*
X1572061Y1041640I0J1000D01*
G01*
X1561719D02*
G03*
X1562585Y1040140I866J-500D01*
G01*
X1646830Y900900D02*
G03*
X1646830Y900900I-20500J0D01*
G01*
Y850900D02*
G03*
X1646830Y850900I-20500J0D01*
G01*
Y800900D02*
G03*
X1646830Y800900I-20500J0D01*
G01*
X1638298Y775900D02*
G03*
X1639164Y777400I0J1000D01*
G01*
X1638875Y780900D02*
G03*
X1638009Y779400I0J-1000D01*
G01*
X1648351D02*
G03*
X1647485Y780900I-866J500D01*
G01*
X1647196Y777400D02*
G03*
X1648062Y775900I866J-500D01*
G01*
X1648351Y929400D02*
G03*
X1647485Y930900I-866J500D01*
G01*
X1638875D02*
G03*
X1638009Y929400I0J-1000D01*
G01*
X1591659Y922400D02*
G03*
X1592525Y920900I866J-500D01*
G01*
X1592814Y924400D02*
G03*
X1591948Y925900I-866J500D01*
G01*
X1601712D02*
G03*
X1600846Y924400I0J-1000D01*
G01*
X1601135Y920900D02*
G03*
X1602001Y922400I0J1000D01*
G01*
X1601135Y770900D02*
G03*
X1602001Y772400I0J1000D01*
G01*
X1591659D02*
G03*
X1592525Y770900I866J-500D01*
G01*
X1500780Y667220D02*
G03*
X1500780Y667220I-20500J0D01*
G01*
Y617220D02*
G03*
X1500780Y617220I-20500J0D01*
G01*
Y567220D02*
G03*
X1500780Y567220I-20500J0D01*
G01*
X1492248Y542220D02*
G03*
X1493114Y543720I0J1000D01*
G01*
X1492825Y547220D02*
G03*
X1491959Y545720I0J-1000D01*
G01*
X1502301D02*
G03*
X1501435Y547220I-866J500D01*
G01*
X1501146Y543720D02*
G03*
X1502012Y542220I866J-500D01*
G01*
X1502301Y695720D02*
G03*
X1501435Y697220I-866J500D01*
G01*
X1492825D02*
G03*
X1491959Y695720I0J-1000D01*
G01*
X1445609Y688720D02*
G03*
X1446475Y687220I866J-500D01*
G01*
X1446764Y690720D02*
G03*
X1445898Y692220I-866J500D01*
G01*
X1455662D02*
G03*
X1454796Y690720I0J-1000D01*
G01*
X1455085Y687220D02*
G03*
X1455951Y688720I0J1000D01*
G01*
X1455085Y537220D02*
G03*
X1455951Y538720I0J1000D01*
G01*
X1445609D02*
G03*
X1446475Y537220I866J-500D01*
G01*
X1651180Y660070D02*
G03*
X1651180Y660070I-20500J0D01*
G01*
Y610070D02*
G03*
X1651180Y610070I-20500J0D01*
G01*
Y560070D02*
G03*
X1651180Y560070I-20500J0D01*
G01*
X1642648Y535070D02*
G03*
X1643514Y536570I0J1000D01*
G01*
X1643225Y540070D02*
G03*
X1642359Y538570I0J-1000D01*
G01*
X1652701D02*
G03*
X1651835Y540070I-866J500D01*
G01*
X1651546Y536570D02*
G03*
X1652412Y535070I866J-500D01*
G01*
X1652701Y688570D02*
G03*
X1651835Y690070I-866J500D01*
G01*
X1643225D02*
G03*
X1642359Y688570I0J-1000D01*
G01*
X1596009Y681570D02*
G03*
X1596875Y680070I866J-500D01*
G01*
X1597164Y683570D02*
G03*
X1596298Y685070I-866J500D01*
G01*
X1606062D02*
G03*
X1605196Y683570I0J-1000D01*
G01*
X1605485Y680070D02*
G03*
X1606351Y681570I0J1000D01*
G01*
X1605485Y530070D02*
G03*
X1606351Y531570I0J1000D01*
G01*
X1596009D02*
G03*
X1596875Y530070I866J-500D01*
G01*
X1460680Y1173950D02*
G03*
X1460680Y1173950I-20500J0D01*
G01*
Y1123950D02*
G03*
X1460680Y1123950I-20500J0D01*
G01*
Y1073950D02*
G03*
X1460680Y1073950I-20500J0D01*
G01*
X1452148Y1048950D02*
G03*
X1453014Y1050450I0J1000D01*
G01*
X1452725Y1053950D02*
G03*
X1451859Y1052450I0J-1000D01*
G01*
X1462201D02*
G03*
X1461335Y1053950I-866J500D01*
G01*
X1461046Y1050450D02*
G03*
X1461912Y1048950I866J-500D01*
G01*
X1462201Y1202450D02*
G03*
X1461335Y1203950I-866J500D01*
G01*
X1452725D02*
G03*
X1451859Y1202450I0J-1000D01*
G01*
X1405509Y1195450D02*
G03*
X1406375Y1193950I866J-500D01*
G01*
X1406664Y1197450D02*
G03*
X1405798Y1198950I-866J500D01*
G01*
X1415562D02*
G03*
X1414696Y1197450I0J-1000D01*
G01*
X1414985Y1193950D02*
G03*
X1415851Y1195450I0J1000D01*
G01*
X1414985Y1043950D02*
G03*
X1415851Y1045450I0J1000D01*
G01*
X1405509D02*
G03*
X1406375Y1043950I866J-500D01*
G01*
X1488620Y900100D02*
G03*
X1488620Y900100I-20500J0D01*
G01*
Y850100D02*
G03*
X1488620Y850100I-20500J0D01*
G01*
Y800100D02*
G03*
X1488620Y800100I-20500J0D01*
G01*
X1480088Y775100D02*
G03*
X1480954Y776600I0J1000D01*
G01*
X1480665Y780100D02*
G03*
X1479799Y778600I0J-1000D01*
G01*
X1490141D02*
G03*
X1489275Y780100I-866J500D01*
G01*
X1488986Y776600D02*
G03*
X1489852Y775100I866J-500D01*
G01*
X1490141Y928600D02*
G03*
X1489275Y930100I-866J500D01*
G01*
X1480665D02*
G03*
X1479799Y928600I0J-1000D01*
G01*
X1433449Y921600D02*
G03*
X1434315Y920100I866J-500D01*
G01*
X1434604Y923600D02*
G03*
X1433738Y925100I-866J500D01*
G01*
X1443502D02*
G03*
X1442636Y923600I0J-1000D01*
G01*
X1442925Y920100D02*
G03*
X1443791Y921600I0J1000D01*
G01*
X1442925Y770100D02*
G03*
X1443791Y771600I0J1000D01*
G01*
X1433449D02*
G03*
X1434315Y770100I866J-500D01*
G01*
X1304470Y737070D02*
G03*
X1304470Y737070I-20500J0D01*
G01*
Y687070D02*
G03*
X1304470Y687070I-20500J0D01*
G01*
Y637070D02*
G03*
X1304470Y637070I-20500J0D01*
G01*
X1295938Y612070D02*
G03*
X1296804Y613570I0J1000D01*
G01*
X1296515Y617070D02*
G03*
X1295649Y615570I0J-1000D01*
G01*
X1305991D02*
G03*
X1305125Y617070I-866J500D01*
G01*
X1304836Y613570D02*
G03*
X1305702Y612070I866J-500D01*
G01*
X1305991Y765570D02*
G03*
X1305125Y767070I-866J500D01*
G01*
X1296515D02*
G03*
X1295649Y765570I0J-1000D01*
G01*
X1249299Y758570D02*
G03*
X1250165Y757070I866J-500D01*
G01*
X1250454Y760570D02*
G03*
X1249588Y762070I-866J500D01*
G01*
X1259352D02*
G03*
X1258486Y760570I0J-1000D01*
G01*
X1258775Y757070D02*
G03*
X1259641Y758570I0J1000D01*
G01*
X1258775Y607070D02*
G03*
X1259641Y608570I0J1000D01*
G01*
X1249299D02*
G03*
X1250165Y607070I866J-500D01*
G01*
X1322980Y470370D02*
G03*
X1322980Y470370I-20500J0D01*
G01*
Y420370D02*
G03*
X1322980Y420370I-20500J0D01*
G01*
Y370370D02*
G03*
X1322980Y370370I-20500J0D01*
G01*
X1314448Y345370D02*
G03*
X1315314Y346870I0J1000D01*
G01*
X1315025Y350370D02*
G03*
X1314159Y348870I0J-1000D01*
G01*
X1324501D02*
G03*
X1323635Y350370I-866J500D01*
G01*
X1323346Y346870D02*
G03*
X1324212Y345370I866J-500D01*
G01*
X1324501Y498870D02*
G03*
X1323635Y500370I-866J500D01*
G01*
X1315025D02*
G03*
X1314159Y498870I0J-1000D01*
G01*
X1267809Y491870D02*
G03*
X1268675Y490370I866J-500D01*
G01*
X1268964Y493870D02*
G03*
X1268098Y495370I-866J500D01*
G01*
X1277862D02*
G03*
X1276996Y493870I0J-1000D01*
G01*
X1277285Y490370D02*
G03*
X1278151Y491870I0J1000D01*
G01*
X1277285Y340370D02*
G03*
X1278151Y341870I0J1000D01*
G01*
X1267809D02*
G03*
X1268675Y340370I866J-500D01*
G01*
X472620Y1228560D02*
G03*
X472620Y1228560I-20500J0D01*
G01*
Y1178560D02*
G03*
X472620Y1178560I-20500J0D01*
G01*
Y1128560D02*
G03*
X472620Y1128560I-20500J0D01*
G01*
X464088Y1103560D02*
G03*
X464954Y1105060I0J1000D01*
G01*
X464665Y1108560D02*
G03*
X463799Y1107060I0J-1000D01*
G01*
X474141D02*
G03*
X473275Y1108560I-866J500D01*
G01*
X472986Y1105060D02*
G03*
X473852Y1103560I866J-500D01*
G01*
X474141Y1257060D02*
G03*
X473275Y1258560I-866J500D01*
G01*
X464665D02*
G03*
X463799Y1257060I0J-1000D01*
G01*
X417449Y1250060D02*
G03*
X418315Y1248560I866J-500D01*
G01*
X418604Y1252060D02*
G03*
X417738Y1253560I-866J500D01*
G01*
X427502D02*
G03*
X426636Y1252060I0J-1000D01*
G01*
X426925Y1248560D02*
G03*
X427791Y1250060I0J1000D01*
G01*
X426925Y1098560D02*
G03*
X427791Y1100060I0J1000D01*
G01*
X417449D02*
G03*
X418315Y1098560I866J-500D01*
G01*
X476430Y980910D02*
G03*
X476430Y980910I-20500J0D01*
G01*
Y930910D02*
G03*
X476430Y930910I-20500J0D01*
G01*
Y880910D02*
G03*
X476430Y880910I-20500J0D01*
G01*
X467898Y855910D02*
G03*
X468764Y857410I0J1000D01*
G01*
X468475Y860910D02*
G03*
X467609Y859410I0J-1000D01*
G01*
X477951D02*
G03*
X477085Y860910I-866J500D01*
G01*
X476796Y857410D02*
G03*
X477662Y855910I866J-500D01*
G01*
X477951Y1009410D02*
G03*
X477085Y1010910I-866J500D01*
G01*
X468475D02*
G03*
X467609Y1009410I0J-1000D01*
G01*
X421259Y1002410D02*
G03*
X422125Y1000910I866J-500D01*
G01*
X422414Y1004410D02*
G03*
X421548Y1005910I-866J500D01*
G01*
X431312D02*
G03*
X430446Y1004410I0J-1000D01*
G01*
X430735Y1000910D02*
G03*
X431601Y1002410I0J1000D01*
G01*
X430735Y850910D02*
G03*
X431601Y852410I0J1000D01*
G01*
X421259D02*
G03*
X422125Y850910I866J-500D01*
G01*
X461190Y727380D02*
G03*
X461190Y727380I-20500J0D01*
G01*
Y677380D02*
G03*
X461190Y677380I-20500J0D01*
G01*
Y627380D02*
G03*
X461190Y627380I-20500J0D01*
G01*
X452658Y602380D02*
G03*
X453524Y603880I0J1000D01*
G01*
X453235Y607380D02*
G03*
X452369Y605880I0J-1000D01*
G01*
X462711D02*
G03*
X461845Y607380I-866J500D01*
G01*
X461556Y603880D02*
G03*
X462422Y602380I866J-500D01*
G01*
X462711Y755880D02*
G03*
X461845Y757380I-866J500D01*
G01*
X453235D02*
G03*
X452369Y755880I0J-1000D01*
G01*
X406019Y748880D02*
G03*
X406885Y747380I866J-500D01*
G01*
X407174Y750880D02*
G03*
X406308Y752380I-866J500D01*
G01*
X416072D02*
G03*
X415206Y750880I0J-1000D01*
G01*
X415495Y747380D02*
G03*
X416361Y748880I0J1000D01*
G01*
X415495Y597380D02*
G03*
X416361Y598880I0J1000D01*
G01*
X406019D02*
G03*
X406885Y597380I866J-500D01*
G01*
X447950Y451320D02*
G03*
X447950Y451320I-20500J0D01*
G01*
Y401320D02*
G03*
X447950Y401320I-20500J0D01*
G01*
Y351320D02*
G03*
X447950Y351320I-20500J0D01*
G01*
X439418Y326320D02*
G03*
X440284Y327820I0J1000D01*
G01*
X439995Y331320D02*
G03*
X439129Y329820I0J-1000D01*
G01*
X449471D02*
G03*
X448605Y331320I-866J500D01*
G01*
X448316Y327820D02*
G03*
X449182Y326320I866J-500D01*
G01*
X449471Y479820D02*
G03*
X448605Y481320I-866J500D01*
G01*
X439995D02*
G03*
X439129Y479820I0J-1000D01*
G01*
X392779Y472820D02*
G03*
X393645Y471320I866J-500D01*
G01*
X393934Y474820D02*
G03*
X393068Y476320I-866J500D01*
G01*
X402832D02*
G03*
X401966Y474820I0J-1000D01*
G01*
X402255Y471320D02*
G03*
X403121Y472820I0J1000D01*
G01*
X402255Y321320D02*
G03*
X403121Y322820I0J1000D01*
G01*
X392779D02*
G03*
X393645Y321320I866J-500D01*
G01*
X221160Y977100D02*
G03*
X221160Y977100I-20500J0D01*
G01*
Y927100D02*
G03*
X221160Y927100I-20500J0D01*
G01*
Y877100D02*
G03*
X221160Y877100I-20500J0D01*
G01*
X212628Y852100D02*
G03*
X213494Y853600I0J1000D01*
G01*
X213205Y857100D02*
G03*
X212339Y855600I0J-1000D01*
G01*
X222681D02*
G03*
X221815Y857100I-866J500D01*
G01*
X221526Y853600D02*
G03*
X222392Y852100I866J-500D01*
G01*
X222681Y1005600D02*
G03*
X221815Y1007100I-866J500D01*
G01*
X213205D02*
G03*
X212339Y1005600I0J-1000D01*
G01*
X165989Y998600D02*
G03*
X166855Y997100I866J-500D01*
G01*
X167144Y1000600D02*
G03*
X166278Y1002100I-866J500D01*
G01*
X176042D02*
G03*
X175176Y1000600I0J-1000D01*
G01*
X175465Y997100D02*
G03*
X176331Y998600I0J1000D01*
G01*
X175465Y847100D02*
G03*
X176331Y848600I0J1000D01*
G01*
X165989D02*
G03*
X166855Y847100I866J-500D01*
G01*
X221890Y693890D02*
G03*
X221890Y693890I-20500J0D01*
G01*
Y643890D02*
G03*
X221890Y643890I-20500J0D01*
G01*
Y593890D02*
G03*
X221890Y593890I-20500J0D01*
G01*
X213358Y568890D02*
G03*
X214224Y570390I0J1000D01*
G01*
X213935Y573890D02*
G03*
X213069Y572390I0J-1000D01*
G01*
X223411D02*
G03*
X222545Y573890I-866J500D01*
G01*
X222256Y570390D02*
G03*
X223122Y568890I866J-500D01*
G01*
X223411Y722390D02*
G03*
X222545Y723890I-866J500D01*
G01*
X213935D02*
G03*
X213069Y722390I0J-1000D01*
G01*
X166719Y715390D02*
G03*
X167585Y713890I866J-500D01*
G01*
X167874Y717390D02*
G03*
X167008Y718890I-866J500D01*
G01*
X176772D02*
G03*
X175906Y717390I0J-1000D01*
G01*
X176195Y713890D02*
G03*
X177061Y715390I0J1000D01*
G01*
X176195Y563890D02*
G03*
X177061Y565390I0J1000D01*
G01*
X166719D02*
G03*
X167585Y563890I866J-500D01*
G01*
X218080Y433540D02*
G03*
X218080Y433540I-20500J0D01*
G01*
Y383540D02*
G03*
X218080Y383540I-20500J0D01*
G01*
Y333540D02*
G03*
X218080Y333540I-20500J0D01*
G01*
X209548Y308540D02*
G03*
X210414Y310040I0J1000D01*
G01*
X210125Y313540D02*
G03*
X209259Y312040I0J-1000D01*
G01*
X219601D02*
G03*
X218735Y313540I-866J500D01*
G01*
X218446Y310040D02*
G03*
X219312Y308540I866J-500D01*
G01*
X219601Y462040D02*
G03*
X218735Y463540I-866J500D01*
G01*
X210125D02*
G03*
X209259Y462040I0J-1000D01*
G01*
X162909Y455040D02*
G03*
X163775Y453540I866J-500D01*
G01*
X164064Y457040D02*
G03*
X163198Y458540I-866J500D01*
G01*
X172962D02*
G03*
X172096Y457040I0J-1000D01*
G01*
X172385Y453540D02*
G03*
X173251Y455040I0J1000D01*
G01*
X172385Y303540D02*
G03*
X173251Y305040I0J1000D01*
G01*
X162909D02*
G03*
X163775Y303540I866J-500D01*
G01*
X218620Y1242530D02*
G03*
X218620Y1242530I-20500J0D01*
G01*
Y1192530D02*
G03*
X218620Y1192530I-20500J0D01*
G01*
Y1142530D02*
G03*
X218620Y1142530I-20500J0D01*
G01*
X210088Y1117530D02*
G03*
X210954Y1119030I0J1000D01*
G01*
X210665Y1122530D02*
G03*
X209799Y1121030I0J-1000D01*
G01*
X220141D02*
G03*
X219275Y1122530I-866J500D01*
G01*
X218986Y1119030D02*
G03*
X219852Y1117530I866J-500D01*
G01*
X220141Y1271030D02*
G03*
X219275Y1272530I-866J500D01*
G01*
X210665D02*
G03*
X209799Y1271030I0J-1000D01*
G01*
X163449Y1264030D02*
G03*
X164315Y1262530I866J-500D01*
G01*
X164604Y1266030D02*
G03*
X163738Y1267530I-866J500D01*
G01*
X173502D02*
G03*
X172636Y1266030I0J-1000D01*
G01*
X172925Y1262530D02*
G03*
X173791Y1264030I0J1000D01*
G01*
X172925Y1112530D02*
G03*
X173791Y1114030I0J1000D01*
G01*
X163449D02*
G03*
X164315Y1112530I866J-500D01*
G01*
X1724787Y1416050D02*
X1981073D01*
X1724787D02*
Y1466850D01*
X1981073D01*
Y1416050D02*
Y1466850D01*
X1548750Y557610D02*
Y567610D01*
X1562750Y557610D02*
Y567610D01*
X1696070Y791290D02*
Y801290D01*
X1710070Y791290D02*
Y801290D01*
X1369680Y356950D02*
Y366950D01*
X1383680Y356950D02*
Y366950D01*
X1661780Y1057990D02*
Y1067990D01*
X1675780Y1057990D02*
Y1067990D01*
X1701807Y550596D02*
Y560596D01*
X1715807Y550596D02*
Y560596D01*
X1508110Y1061800D02*
Y1071800D01*
X1522110Y1061800D02*
Y1071800D01*
X1533510Y786210D02*
Y796210D01*
X1547510Y786210D02*
Y796210D01*
X1355710Y621110D02*
Y631110D01*
X1369710Y621110D02*
Y631110D01*
X1259160Y883490D02*
X1301160D01*
X1259160Y988490D02*
X1301160D01*
Y883490D02*
Y988490D01*
X1259160Y883490D02*
Y988490D01*
X1104900Y289280D02*
Y352980D01*
X1041400Y289280D02*
Y352980D01*
X1104900D01*
X1073150Y356030D02*
Y362030D01*
X1070150Y359030D02*
X1076150D01*
X619760Y595630D02*
X797560D01*
X619760D02*
Y1205230D01*
X797560D01*
Y595630D02*
Y1205230D01*
X930783Y1416050D02*
Y1466850D01*
X674497D02*
X930783D01*
X674497Y1416050D02*
Y1466850D01*
Y1416050D02*
X930783D01*
X571373D02*
Y1466850D01*
X315087D02*
X571373D01*
X315087Y1416050D02*
Y1466850D01*
Y1416050D02*
X571373D01*
X1302893Y1419860D02*
Y1470660D01*
X1046607D02*
X1302893D01*
X1046607Y1419860D02*
Y1470660D01*
Y1419860D02*
X1302893D01*
X1729740Y834517D02*
X1780540D01*
Y1090803D01*
X1729740D02*
X1780540D01*
X1729740Y834517D02*
Y1090803D01*
X1647063Y1423670D02*
Y1474470D01*
X1390777D02*
X1647063D01*
X1390777Y1423670D02*
Y1474470D01*
Y1423670D02*
X1647063D01*
X1845530Y866460D02*
X2010030D01*
Y1268460D01*
X1845530D02*
X2010030D01*
X1845530Y866460D02*
Y1268460D01*
X1275790Y1165430D02*
Y1235430D01*
X1202790Y1165430D02*
Y1235430D01*
Y1165430D02*
X1275790D01*
X1260790Y1235430D02*
X1275790D01*
X1260790D02*
Y1241430D01*
X1253990D02*
X1260790D01*
X1253967Y1241421D02*
X1256290Y1235430D01*
X1202790D02*
X1209290D01*
X1206690Y1241430D02*
X1216990D01*
X1206672Y1241422D02*
X1209290Y1235430D01*
X1214390D02*
X1217008Y1241422D01*
X1214390Y1235430D02*
X1256290D01*
X1011860Y1176580D02*
Y1246580D01*
X938860Y1176580D02*
Y1246580D01*
Y1176580D02*
X1011860D01*
X996860Y1246580D02*
X1011860D01*
X996860D02*
Y1252580D01*
X990060D02*
X996860D01*
X990036Y1252571D02*
X992360Y1246580D01*
X938860D02*
X945360D01*
X942760Y1252580D02*
X953060D01*
X942742Y1252572D02*
X945360Y1246580D01*
X950460D02*
X953078Y1252572D01*
X950460Y1246580D02*
X992360D01*
X1576390Y1055140D02*
X1616390D01*
X1576390Y1085140D02*
X1616390D01*
X1576390Y1105140D02*
X1616390D01*
X1576390Y1135140D02*
X1616390D01*
X1576390Y1155140D02*
X1616390D01*
X1576390Y1185140D02*
X1616390D01*
X1554390Y1045140D02*
X1634390D01*
X1576390Y1049640D02*
X1634390D01*
X1576390Y1099640D02*
X1634390D01*
X1576390Y1149640D02*
X1634390D01*
X1576390Y1090640D02*
X1634390D01*
X1616390Y1049640D02*
Y1090640D01*
X1576390Y1049640D02*
Y1090640D01*
Y1140640D02*
X1634390D01*
X1616390Y1099640D02*
Y1140640D01*
X1576390Y1099640D02*
Y1140640D01*
Y1190640D02*
X1634390D01*
X1616390Y1149640D02*
Y1190640D01*
X1576390Y1149640D02*
Y1190640D01*
X1571390Y1045140D02*
Y1195140D01*
X1608069Y1048640D02*
X1609224Y1046640D01*
X1608936Y1050140D02*
X1617545D01*
X1617256Y1046640D02*
X1618411Y1048640D01*
X1608936Y1200140D02*
X1617545D01*
X1608069Y1198640D02*
X1610090Y1195140D01*
X1616390D02*
X1618411Y1198640D01*
X1562585Y1190140D02*
X1571195D01*
X1561720Y1191640D02*
X1562874Y1193640D01*
X1570906D02*
X1572061Y1191640D01*
X1554390Y1195140D02*
X1634390D01*
Y1045140D02*
Y1195140D01*
X1570040Y1045140D02*
X1634390D01*
X1570040D02*
X1572061Y1041640D01*
X1562585Y1040140D02*
X1571195D01*
X1561720Y1041640D02*
X1563740Y1045140D01*
X1554390D02*
X1563740D01*
X1554390D02*
Y1195140D01*
X1606330Y785900D02*
X1646330D01*
X1606330Y815900D02*
X1646330D01*
X1606330Y835900D02*
X1646330D01*
X1606330Y865900D02*
X1646330D01*
X1606330Y885900D02*
X1646330D01*
X1606330Y915900D02*
X1646330D01*
X1584330Y775900D02*
X1664330D01*
X1606330Y780400D02*
X1664330D01*
X1606330Y830400D02*
X1664330D01*
X1606330Y880400D02*
X1664330D01*
X1606330Y821400D02*
X1664330D01*
X1646330Y780400D02*
Y821400D01*
X1606330Y780400D02*
Y821400D01*
Y871400D02*
X1664330D01*
X1646330Y830400D02*
Y871400D01*
X1606330Y830400D02*
Y871400D01*
Y921400D02*
X1664330D01*
X1646330Y880400D02*
Y921400D01*
X1606330Y880400D02*
Y921400D01*
X1601330Y775900D02*
Y925900D01*
X1638009Y779400D02*
X1639164Y777400D01*
X1638876Y780900D02*
X1647485D01*
X1647196Y777400D02*
X1648351Y779400D01*
X1638876Y930900D02*
X1647485D01*
X1638009Y929400D02*
X1640030Y925900D01*
X1646330D02*
X1648351Y929400D01*
X1592525Y920900D02*
X1601135D01*
X1591660Y922400D02*
X1592814Y924400D01*
X1600846D02*
X1602001Y922400D01*
X1584330Y925900D02*
X1664330D01*
Y775900D02*
Y925900D01*
X1599980Y775900D02*
X1664330D01*
X1599980D02*
X1602001Y772400D01*
X1592525Y770900D02*
X1601135D01*
X1591660Y772400D02*
X1593680Y775900D01*
X1584330D02*
X1593680D01*
X1584330D02*
Y925900D01*
X1460280Y552220D02*
X1500280D01*
X1460280Y582220D02*
X1500280D01*
X1460280Y602220D02*
X1500280D01*
X1460280Y632220D02*
X1500280D01*
X1460280Y652220D02*
X1500280D01*
X1460280Y682220D02*
X1500280D01*
X1438280Y542220D02*
X1518280D01*
X1460280Y546720D02*
X1518280D01*
X1460280Y596720D02*
X1518280D01*
X1460280Y646720D02*
X1518280D01*
X1460280Y587720D02*
X1518280D01*
X1500280Y546720D02*
Y587720D01*
X1460280Y546720D02*
Y587720D01*
Y637720D02*
X1518280D01*
X1500280Y596720D02*
Y637720D01*
X1460280Y596720D02*
Y637720D01*
Y687720D02*
X1518280D01*
X1500280Y646720D02*
Y687720D01*
X1460280Y646720D02*
Y687720D01*
X1455280Y542220D02*
Y692220D01*
X1491959Y545720D02*
X1493114Y543720D01*
X1492826Y547220D02*
X1501435D01*
X1501146Y543720D02*
X1502301Y545720D01*
X1492826Y697220D02*
X1501435D01*
X1491959Y695720D02*
X1493980Y692220D01*
X1500280D02*
X1502301Y695720D01*
X1446475Y687220D02*
X1455085D01*
X1445609Y688720D02*
X1446764Y690720D01*
X1454796D02*
X1455951Y688720D01*
X1438280Y692220D02*
X1518280D01*
Y542220D02*
Y692220D01*
X1453930Y542220D02*
X1518280D01*
X1453930D02*
X1455951Y538720D01*
X1446475Y537220D02*
X1455085D01*
X1445609Y538720D02*
X1447630Y542220D01*
X1438280D02*
X1447630D01*
X1438280D02*
Y692220D01*
X1610680Y545070D02*
X1650680D01*
X1610680Y575070D02*
X1650680D01*
X1610680Y595070D02*
X1650680D01*
X1610680Y625070D02*
X1650680D01*
X1610680Y645070D02*
X1650680D01*
X1610680Y675070D02*
X1650680D01*
X1588680Y535070D02*
X1668680D01*
X1610680Y539570D02*
X1668680D01*
X1610680Y589570D02*
X1668680D01*
X1610680Y639570D02*
X1668680D01*
X1610680Y580570D02*
X1668680D01*
X1650680Y539570D02*
Y580570D01*
X1610680Y539570D02*
Y580570D01*
Y630570D02*
X1668680D01*
X1650680Y589570D02*
Y630570D01*
X1610680Y589570D02*
Y630570D01*
Y680570D02*
X1668680D01*
X1650680Y639570D02*
Y680570D01*
X1610680Y639570D02*
Y680570D01*
X1605680Y535070D02*
Y685070D01*
X1642359Y538570D02*
X1643514Y536570D01*
X1643226Y540070D02*
X1651835D01*
X1651546Y536570D02*
X1652701Y538570D01*
X1643226Y690070D02*
X1651835D01*
X1642359Y688570D02*
X1644380Y685070D01*
X1650680D02*
X1652701Y688570D01*
X1596875Y680070D02*
X1605485D01*
X1596010Y681570D02*
X1597164Y683570D01*
X1605196D02*
X1606351Y681570D01*
X1588680Y685070D02*
X1668680D01*
Y535070D02*
Y685070D01*
X1604330Y535070D02*
X1668680D01*
X1604330D02*
X1606351Y531570D01*
X1596875Y530070D02*
X1605485D01*
X1596010Y531570D02*
X1598030Y535070D01*
X1588680D02*
X1598030D01*
X1588680D02*
Y685070D01*
X1420180Y1058950D02*
X1460180D01*
X1420180Y1088950D02*
X1460180D01*
X1420180Y1108950D02*
X1460180D01*
X1420180Y1138950D02*
X1460180D01*
X1420180Y1158950D02*
X1460180D01*
X1420180Y1188950D02*
X1460180D01*
X1398180Y1048950D02*
X1478180D01*
X1420180Y1053450D02*
X1478180D01*
X1420180Y1103450D02*
X1478180D01*
X1420180Y1153450D02*
X1478180D01*
X1420180Y1094450D02*
X1478180D01*
X1460180Y1053450D02*
Y1094450D01*
X1420180Y1053450D02*
Y1094450D01*
Y1144450D02*
X1478180D01*
X1460180Y1103450D02*
Y1144450D01*
X1420180Y1103450D02*
Y1144450D01*
Y1194450D02*
X1478180D01*
X1460180Y1153450D02*
Y1194450D01*
X1420180Y1153450D02*
Y1194450D01*
X1415180Y1048950D02*
Y1198950D01*
X1451859Y1052450D02*
X1453014Y1050450D01*
X1452726Y1053950D02*
X1461335D01*
X1461046Y1050450D02*
X1462201Y1052450D01*
X1452726Y1203950D02*
X1461335D01*
X1451859Y1202450D02*
X1453880Y1198950D01*
X1460180D02*
X1462201Y1202450D01*
X1406375Y1193950D02*
X1414985D01*
X1405509Y1195450D02*
X1406664Y1197450D01*
X1414696D02*
X1415851Y1195450D01*
X1398180Y1198950D02*
X1478180D01*
Y1048950D02*
Y1198950D01*
X1413830Y1048950D02*
X1478180D01*
X1413830D02*
X1415851Y1045450D01*
X1406375Y1043950D02*
X1414985D01*
X1405509Y1045450D02*
X1407530Y1048950D01*
X1398180D02*
X1407530D01*
X1398180D02*
Y1198950D01*
X1448120Y785100D02*
X1488120D01*
X1448120Y815100D02*
X1488120D01*
X1448120Y835100D02*
X1488120D01*
X1448120Y865100D02*
X1488120D01*
X1448120Y885100D02*
X1488120D01*
X1448120Y915100D02*
X1488120D01*
X1426120Y775100D02*
X1506120D01*
X1448120Y779600D02*
X1506120D01*
X1448120Y829600D02*
X1506120D01*
X1448120Y879600D02*
X1506120D01*
X1448120Y820600D02*
X1506120D01*
X1488120Y779600D02*
Y820600D01*
X1448120Y779600D02*
Y820600D01*
Y870600D02*
X1506120D01*
X1488120Y829600D02*
Y870600D01*
X1448120Y829600D02*
Y870600D01*
Y920600D02*
X1506120D01*
X1488120Y879600D02*
Y920600D01*
X1448120Y879600D02*
Y920600D01*
X1443120Y775100D02*
Y925100D01*
X1479799Y778600D02*
X1480954Y776600D01*
X1480666Y780100D02*
X1489275D01*
X1488986Y776600D02*
X1490141Y778600D01*
X1480666Y930100D02*
X1489275D01*
X1479799Y928600D02*
X1481820Y925100D01*
X1488120D02*
X1490141Y928600D01*
X1434315Y920100D02*
X1442925D01*
X1433450Y921600D02*
X1434604Y923600D01*
X1442636D02*
X1443791Y921600D01*
X1426120Y925100D02*
X1506120D01*
Y775100D02*
Y925100D01*
X1441770Y775100D02*
X1506120D01*
X1441770D02*
X1443791Y771600D01*
X1434315Y770100D02*
X1442925D01*
X1433450Y771600D02*
X1435470Y775100D01*
X1426120D02*
X1435470D01*
X1426120D02*
Y925100D01*
X1263970Y622070D02*
X1303970D01*
X1263970Y652070D02*
X1303970D01*
X1263970Y672070D02*
X1303970D01*
X1263970Y702070D02*
X1303970D01*
X1263970Y722070D02*
X1303970D01*
X1263970Y752070D02*
X1303970D01*
X1241970Y612070D02*
X1321970D01*
X1263970Y616570D02*
X1321970D01*
X1263970Y666570D02*
X1321970D01*
X1263970Y716570D02*
X1321970D01*
X1263970Y657570D02*
X1321970D01*
X1303970Y616570D02*
Y657570D01*
X1263970Y616570D02*
Y657570D01*
Y707570D02*
X1321970D01*
X1303970Y666570D02*
Y707570D01*
X1263970Y666570D02*
Y707570D01*
Y757570D02*
X1321970D01*
X1303970Y716570D02*
Y757570D01*
X1263970Y716570D02*
Y757570D01*
X1258970Y612070D02*
Y762070D01*
X1295649Y615570D02*
X1296804Y613570D01*
X1296516Y617070D02*
X1305125D01*
X1304836Y613570D02*
X1305991Y615570D01*
X1296516Y767070D02*
X1305125D01*
X1295649Y765570D02*
X1297670Y762070D01*
X1303970D02*
X1305991Y765570D01*
X1250165Y757070D02*
X1258775D01*
X1249299Y758570D02*
X1250454Y760570D01*
X1258486D02*
X1259641Y758570D01*
X1241970Y762070D02*
X1321970D01*
Y612070D02*
Y762070D01*
X1257620Y612070D02*
X1321970D01*
X1257620D02*
X1259641Y608570D01*
X1250165Y607070D02*
X1258775D01*
X1249299Y608570D02*
X1251320Y612070D01*
X1241970D02*
X1251320D01*
X1241970D02*
Y762070D01*
X1282480Y355370D02*
X1322480D01*
X1282480Y385370D02*
X1322480D01*
X1282480Y405370D02*
X1322480D01*
X1282480Y435370D02*
X1322480D01*
X1282480Y455370D02*
X1322480D01*
X1282480Y485370D02*
X1322480D01*
X1260480Y345370D02*
X1340480D01*
X1282480Y349870D02*
X1340480D01*
X1282480Y399870D02*
X1340480D01*
X1282480Y449870D02*
X1340480D01*
X1282480Y390870D02*
X1340480D01*
X1322480Y349870D02*
Y390870D01*
X1282480Y349870D02*
Y390870D01*
Y440870D02*
X1340480D01*
X1322480Y399870D02*
Y440870D01*
X1282480Y399870D02*
Y440870D01*
Y490870D02*
X1340480D01*
X1322480Y449870D02*
Y490870D01*
X1282480Y449870D02*
Y490870D01*
X1277480Y345370D02*
Y495370D01*
X1314159Y348870D02*
X1315314Y346870D01*
X1315026Y350370D02*
X1323635D01*
X1323346Y346870D02*
X1324501Y348870D01*
X1315026Y500370D02*
X1323635D01*
X1314159Y498870D02*
X1316180Y495370D01*
X1322480D02*
X1324501Y498870D01*
X1268675Y490370D02*
X1277285D01*
X1267810Y491870D02*
X1268964Y493870D01*
X1276996D02*
X1278151Y491870D01*
X1260480Y495370D02*
X1340480D01*
Y345370D02*
Y495370D01*
X1276130Y345370D02*
X1340480D01*
X1276130D02*
X1278151Y341870D01*
X1268675Y340370D02*
X1277285D01*
X1267810Y341870D02*
X1269830Y345370D01*
X1260480D02*
X1269830D01*
X1260480D02*
Y495370D01*
X1080830Y887800D02*
Y991800D01*
X1004830Y887800D02*
Y991800D01*
Y887800D02*
X1080830D01*
X1004830Y991800D02*
X1080830D01*
X997350Y758080D02*
X1047350D01*
X997350Y776080D02*
X1047350D01*
X997350Y758080D02*
Y776080D01*
X1047350Y758080D02*
Y776080D01*
X432120Y1113560D02*
X472120D01*
X432120Y1143560D02*
X472120D01*
X432120Y1163560D02*
X472120D01*
X432120Y1193560D02*
X472120D01*
X432120Y1213560D02*
X472120D01*
X432120Y1243560D02*
X472120D01*
X410120Y1103560D02*
X490120D01*
X432120Y1108060D02*
X490120D01*
X432120Y1158060D02*
X490120D01*
X432120Y1208060D02*
X490120D01*
X432120Y1149060D02*
X490120D01*
X472120Y1108060D02*
Y1149060D01*
X432120Y1108060D02*
Y1149060D01*
Y1199060D02*
X490120D01*
X472120Y1158060D02*
Y1199060D01*
X432120Y1158060D02*
Y1199060D01*
Y1249060D02*
X490120D01*
X472120Y1208060D02*
Y1249060D01*
X432120Y1208060D02*
Y1249060D01*
X427120Y1103560D02*
Y1253560D01*
X463799Y1107060D02*
X464954Y1105060D01*
X464666Y1108560D02*
X473275D01*
X472986Y1105060D02*
X474141Y1107060D01*
X464666Y1258560D02*
X473275D01*
X463799Y1257060D02*
X465820Y1253560D01*
X472120D02*
X474141Y1257060D01*
X418315Y1248560D02*
X426925D01*
X417449Y1250060D02*
X418604Y1252060D01*
X426636D02*
X427791Y1250060D01*
X410120Y1253560D02*
X490120D01*
Y1103560D02*
Y1253560D01*
X425770Y1103560D02*
X490120D01*
X425770D02*
X427791Y1100060D01*
X418315Y1098560D02*
X426925D01*
X417449Y1100060D02*
X419470Y1103560D01*
X410120D02*
X419470D01*
X410120D02*
Y1253560D01*
X435930Y865910D02*
X475930D01*
X435930Y895910D02*
X475930D01*
X435930Y915910D02*
X475930D01*
X435930Y945910D02*
X475930D01*
X435930Y965910D02*
X475930D01*
X435930Y995910D02*
X475930D01*
X413930Y855910D02*
X493930D01*
X435930Y860410D02*
X493930D01*
X435930Y910410D02*
X493930D01*
X435930Y960410D02*
X493930D01*
X435930Y901410D02*
X493930D01*
X475930Y860410D02*
Y901410D01*
X435930Y860410D02*
Y901410D01*
Y951410D02*
X493930D01*
X475930Y910410D02*
Y951410D01*
X435930Y910410D02*
Y951410D01*
Y1001410D02*
X493930D01*
X475930Y960410D02*
Y1001410D01*
X435930Y960410D02*
Y1001410D01*
X430930Y855910D02*
Y1005910D01*
X467609Y859410D02*
X468764Y857410D01*
X468476Y860910D02*
X477085D01*
X476796Y857410D02*
X477951Y859410D01*
X468476Y1010910D02*
X477085D01*
X467609Y1009410D02*
X469630Y1005910D01*
X475930D02*
X477951Y1009410D01*
X422125Y1000910D02*
X430735D01*
X421259Y1002410D02*
X422414Y1004410D01*
X430446D02*
X431601Y1002410D01*
X413930Y1005910D02*
X493930D01*
Y855910D02*
Y1005910D01*
X429580Y855910D02*
X493930D01*
X429580D02*
X431601Y852410D01*
X422125Y850910D02*
X430735D01*
X421259Y852410D02*
X423280Y855910D01*
X413930D02*
X423280D01*
X413930D02*
Y1005910D01*
X420690Y612380D02*
X460690D01*
X420690Y642380D02*
X460690D01*
X420690Y662380D02*
X460690D01*
X420690Y692380D02*
X460690D01*
X420690Y712380D02*
X460690D01*
X420690Y742380D02*
X460690D01*
X398690Y602380D02*
X478690D01*
X420690Y606880D02*
X478690D01*
X420690Y656880D02*
X478690D01*
X420690Y706880D02*
X478690D01*
X420690Y647880D02*
X478690D01*
X460690Y606880D02*
Y647880D01*
X420690Y606880D02*
Y647880D01*
Y697880D02*
X478690D01*
X460690Y656880D02*
Y697880D01*
X420690Y656880D02*
Y697880D01*
Y747880D02*
X478690D01*
X460690Y706880D02*
Y747880D01*
X420690Y706880D02*
Y747880D01*
X415690Y602380D02*
Y752380D01*
X452369Y605880D02*
X453524Y603880D01*
X453236Y607380D02*
X461845D01*
X461556Y603880D02*
X462711Y605880D01*
X453236Y757380D02*
X461845D01*
X452369Y755880D02*
X454390Y752380D01*
X460690D02*
X462711Y755880D01*
X406885Y747380D02*
X415495D01*
X406020Y748880D02*
X407174Y750880D01*
X415206D02*
X416361Y748880D01*
X398690Y752380D02*
X478690D01*
Y602380D02*
Y752380D01*
X414340Y602380D02*
X478690D01*
X414340D02*
X416361Y598880D01*
X406885Y597380D02*
X415495D01*
X406020Y598880D02*
X408040Y602380D01*
X398690D02*
X408040D01*
X398690D02*
Y752380D01*
X407450Y336320D02*
X447450D01*
X407450Y366320D02*
X447450D01*
X407450Y386320D02*
X447450D01*
X407450Y416320D02*
X447450D01*
X407450Y436320D02*
X447450D01*
X407450Y466320D02*
X447450D01*
X385450Y326320D02*
X465450D01*
X407450Y330820D02*
X465450D01*
X407450Y380820D02*
X465450D01*
X407450Y430820D02*
X465450D01*
X407450Y371820D02*
X465450D01*
X447450Y330820D02*
Y371820D01*
X407450Y330820D02*
Y371820D01*
Y421820D02*
X465450D01*
X447450Y380820D02*
Y421820D01*
X407450Y380820D02*
Y421820D01*
Y471820D02*
X465450D01*
X447450Y430820D02*
Y471820D01*
X407450Y430820D02*
Y471820D01*
X402450Y326320D02*
Y476320D01*
X439129Y329820D02*
X440284Y327820D01*
X439996Y331320D02*
X448605D01*
X448316Y327820D02*
X449471Y329820D01*
X439996Y481320D02*
X448605D01*
X439129Y479820D02*
X441150Y476320D01*
X447450D02*
X449471Y479820D01*
X393645Y471320D02*
X402255D01*
X392780Y472820D02*
X393934Y474820D01*
X401966D02*
X403121Y472820D01*
X385450Y476320D02*
X465450D01*
Y326320D02*
Y476320D01*
X401100Y326320D02*
X465450D01*
X401100D02*
X403121Y322820D01*
X393645Y321320D02*
X402255D01*
X392780Y322820D02*
X394800Y326320D01*
X385450D02*
X394800D01*
X385450D02*
Y476320D01*
X180660Y862100D02*
X220660D01*
X180660Y892100D02*
X220660D01*
X180660Y912100D02*
X220660D01*
X180660Y942100D02*
X220660D01*
X180660Y962100D02*
X220660D01*
X180660Y992100D02*
X220660D01*
X158660Y852100D02*
X238660D01*
X180660Y856600D02*
X238660D01*
X180660Y906600D02*
X238660D01*
X180660Y956600D02*
X238660D01*
X180660Y897600D02*
X238660D01*
X220660Y856600D02*
Y897600D01*
X180660Y856600D02*
Y897600D01*
Y947600D02*
X238660D01*
X220660Y906600D02*
Y947600D01*
X180660Y906600D02*
Y947600D01*
Y997600D02*
X238660D01*
X220660Y956600D02*
Y997600D01*
X180660Y956600D02*
Y997600D01*
X175660Y852100D02*
Y1002100D01*
X212339Y855600D02*
X213494Y853600D01*
X213206Y857100D02*
X221815D01*
X221526Y853600D02*
X222681Y855600D01*
X213206Y1007100D02*
X221815D01*
X212339Y1005600D02*
X214360Y1002100D01*
X220660D02*
X222681Y1005600D01*
X166855Y997100D02*
X175465D01*
X165989Y998600D02*
X167144Y1000600D01*
X175176D02*
X176331Y998600D01*
X158660Y1002100D02*
X238660D01*
Y852100D02*
Y1002100D01*
X174310Y852100D02*
X238660D01*
X174310D02*
X176331Y848600D01*
X166855Y847100D02*
X175465D01*
X165989Y848600D02*
X168010Y852100D01*
X158660D02*
X168010D01*
X158660D02*
Y1002100D01*
X181390Y578890D02*
X221390D01*
X181390Y608890D02*
X221390D01*
X181390Y628890D02*
X221390D01*
X181390Y658890D02*
X221390D01*
X181390Y678890D02*
X221390D01*
X181390Y708890D02*
X221390D01*
X159390Y568890D02*
X239390D01*
X181390Y573390D02*
X239390D01*
X181390Y623390D02*
X239390D01*
X181390Y673390D02*
X239390D01*
X181390Y614390D02*
X239390D01*
X221390Y573390D02*
Y614390D01*
X181390Y573390D02*
Y614390D01*
Y664390D02*
X239390D01*
X221390Y623390D02*
Y664390D01*
X181390Y623390D02*
Y664390D01*
Y714390D02*
X239390D01*
X221390Y673390D02*
Y714390D01*
X181390Y673390D02*
Y714390D01*
X176390Y568890D02*
Y718890D01*
X213069Y572390D02*
X214224Y570390D01*
X213936Y573890D02*
X222545D01*
X222256Y570390D02*
X223411Y572390D01*
X213936Y723890D02*
X222545D01*
X213069Y722390D02*
X215090Y718890D01*
X221390D02*
X223411Y722390D01*
X167585Y713890D02*
X176195D01*
X166719Y715390D02*
X167874Y717390D01*
X175906D02*
X177061Y715390D01*
X159390Y718890D02*
X239390D01*
Y568890D02*
Y718890D01*
X175040Y568890D02*
X239390D01*
X175040D02*
X177061Y565390D01*
X167585Y563890D02*
X176195D01*
X166719Y565390D02*
X168740Y568890D01*
X159390D02*
X168740D01*
X159390D02*
Y718890D01*
X177580Y318540D02*
X217580D01*
X177580Y348540D02*
X217580D01*
X177580Y368540D02*
X217580D01*
X177580Y398540D02*
X217580D01*
X177580Y418540D02*
X217580D01*
X177580Y448540D02*
X217580D01*
X155580Y308540D02*
X235580D01*
X177580Y313040D02*
X235580D01*
X177580Y363040D02*
X235580D01*
X177580Y413040D02*
X235580D01*
X177580Y354040D02*
X235580D01*
X217580Y313040D02*
Y354040D01*
X177580Y313040D02*
Y354040D01*
Y404040D02*
X235580D01*
X217580Y363040D02*
Y404040D01*
X177580Y363040D02*
Y404040D01*
Y454040D02*
X235580D01*
X217580Y413040D02*
Y454040D01*
X177580Y413040D02*
Y454040D01*
X172580Y308540D02*
Y458540D01*
X209259Y312040D02*
X210414Y310040D01*
X210126Y313540D02*
X218735D01*
X218446Y310040D02*
X219601Y312040D01*
X210126Y463540D02*
X218735D01*
X209259Y462040D02*
X211280Y458540D01*
X217580D02*
X219601Y462040D01*
X163775Y453540D02*
X172385D01*
X162910Y455040D02*
X164064Y457040D01*
X172096D02*
X173251Y455040D01*
X155580Y458540D02*
X235580D01*
Y308540D02*
Y458540D01*
X171230Y308540D02*
X235580D01*
X171230D02*
X173251Y305040D01*
X163775Y303540D02*
X172385D01*
X162910Y305040D02*
X164930Y308540D01*
X155580D02*
X164930D01*
X155580D02*
Y458540D01*
X178120Y1127530D02*
X218120D01*
X178120Y1157530D02*
X218120D01*
X178120Y1177530D02*
X218120D01*
X178120Y1207530D02*
X218120D01*
X178120Y1227530D02*
X218120D01*
X178120Y1257530D02*
X218120D01*
X156120Y1117530D02*
X236120D01*
X178120Y1122030D02*
X236120D01*
X178120Y1172030D02*
X236120D01*
X178120Y1222030D02*
X236120D01*
X178120Y1163030D02*
X236120D01*
X218120Y1122030D02*
Y1163030D01*
X178120Y1122030D02*
Y1163030D01*
Y1213030D02*
X236120D01*
X218120Y1172030D02*
Y1213030D01*
X178120Y1172030D02*
Y1213030D01*
Y1263030D02*
X236120D01*
X218120Y1222030D02*
Y1263030D01*
X178120Y1222030D02*
Y1263030D01*
X173120Y1117530D02*
Y1267530D01*
X209799Y1121030D02*
X210954Y1119030D01*
X210666Y1122530D02*
X219275D01*
X218986Y1119030D02*
X220141Y1121030D01*
X210666Y1272530D02*
X219275D01*
X209799Y1271030D02*
X211820Y1267530D01*
X218120D02*
X220141Y1271030D01*
X164315Y1262530D02*
X172925D01*
X163449Y1264030D02*
X164604Y1266030D01*
X172636D02*
X173791Y1264030D01*
X156120Y1267530D02*
X236120D01*
Y1117530D02*
Y1267530D01*
X171770Y1117530D02*
X236120D01*
X171770D02*
X173791Y1114030D01*
X164315Y1112530D02*
X172925D01*
X163449Y1114030D02*
X165470Y1117530D01*
X156120D02*
X165470D01*
X156120D02*
Y1267530D01*
D12*
X1968430Y1471650D02*
G03*
X1968430Y1471650I-1250J0D01*
G01*
X1247410Y985990D02*
G03*
X1247410Y985990I-1250J0D01*
G01*
X918140Y1471650D02*
G03*
X918140Y1471650I-1250J0D01*
G01*
X558730D02*
G03*
X558730Y1471650I-1250J0D01*
G01*
X1290250Y1475460D02*
G03*
X1290250Y1475460I-1250J0D01*
G01*
X1786590Y848410D02*
G03*
X1786590Y848410I-1250J0D01*
G01*
X1634420Y1479270D02*
G03*
X1634420Y1479270I-1250J0D01*
G01*
X1860530Y861460D02*
G03*
X1860530Y861460I-1250J0D01*
G01*
X1054080Y881800D02*
G03*
X1054080Y881800I-1250J0D01*
G01*
X996050Y743080D02*
G03*
X996050Y743080I-1250J0D01*
G01*
D13*
X1272160Y978490D02*
G03*
X1272160Y978490I-3000J0D01*
G01*
D14*
X1391927Y345443D02*
Y360677D01*
X1399544D01*
X1402083Y358138D01*
Y353060D01*
X1399544Y350521D01*
X1391927D01*
X1397005D02*
X1402083Y345443D01*
X1407162Y360677D02*
X1417318D01*
Y358138D01*
X1407162Y347982D01*
Y345443D01*
X1422397Y358138D02*
X1424936Y360677D01*
X1430014D01*
X1432553Y358138D01*
Y355599D01*
X1427475Y350521D01*
Y347982D02*
Y345443D01*
X1701546Y581914D02*
Y597149D01*
X1709164D01*
X1711703Y594610D01*
Y589532D01*
X1709164Y586992D01*
X1701546D01*
X1706624D02*
X1711703Y581914D01*
X1716781Y594610D02*
X1719320Y597149D01*
X1724399D01*
X1726938Y594610D01*
Y592071D01*
X1724399Y589532D01*
X1721859D01*
X1724399D01*
X1726938Y586992D01*
Y584453D01*
X1724399Y581914D01*
X1719320D01*
X1716781Y584453D01*
X1732016Y594610D02*
X1734555Y597149D01*
X1739634D01*
X1742173Y594610D01*
Y592071D01*
X1737095Y586992D01*
Y584453D02*
Y581914D01*
X1661668Y1089406D02*
Y1104641D01*
X1669285D01*
X1671825Y1102102D01*
Y1097023D01*
X1669285Y1094484D01*
X1661668D01*
X1666746D02*
X1671825Y1089406D01*
X1676903Y1102102D02*
X1679442Y1104641D01*
X1684521D01*
X1687060Y1102102D01*
Y1091945D01*
X1684521Y1089406D01*
X1679442D01*
X1676903Y1091945D01*
Y1102102D01*
X1692138D02*
X1694677Y1104641D01*
X1699756D01*
X1702295Y1102102D01*
Y1099563D01*
X1697216Y1094484D01*
Y1091945D02*
Y1089406D01*
X1684026Y821693D02*
Y836927D01*
X1691644D01*
X1694183Y834388D01*
Y829310D01*
X1691644Y826771D01*
X1684026D01*
X1689104D02*
X1694183Y821693D01*
X1699261D02*
X1704340D01*
X1701800D01*
Y836927D01*
X1699261Y834388D01*
X1711957D02*
X1714496Y836927D01*
X1719575D01*
X1722114Y834388D01*
Y831849D01*
X1717036Y826771D01*
Y824232D02*
Y821693D01*
X1540517Y586743D02*
Y601978D01*
X1548134D01*
X1550673Y599438D01*
Y594360D01*
X1548134Y591821D01*
X1540517D01*
X1545595D02*
X1550673Y586743D01*
X1565908D02*
X1555752D01*
X1565908Y596899D01*
Y599438D01*
X1563369Y601978D01*
X1558291D01*
X1555752Y599438D01*
X1570987D02*
X1573526Y601978D01*
X1578604D01*
X1581143Y599438D01*
Y596899D01*
X1576065Y591821D01*
Y589282D02*
Y586743D01*
X1533398Y817626D02*
Y832861D01*
X1541015D01*
X1543555Y830322D01*
Y825244D01*
X1541015Y822704D01*
X1533398D01*
X1538476D02*
X1543555Y817626D01*
X1558790Y832861D02*
X1548633D01*
Y825244D01*
X1553711Y827783D01*
X1556251D01*
X1558790Y825244D01*
Y820165D01*
X1556251Y817626D01*
X1551172D01*
X1548633Y820165D01*
X1563868Y830322D02*
X1566407Y832861D01*
X1571486D01*
X1574025Y830322D01*
Y827783D01*
X1568947Y822704D01*
Y820165D02*
Y817626D01*
X1507998Y1093216D02*
Y1108451D01*
X1515616D01*
X1518155Y1105912D01*
Y1100834D01*
X1515616Y1098294D01*
X1507998D01*
X1513076D02*
X1518155Y1093216D01*
X1530851D02*
Y1108451D01*
X1523233Y1100834D01*
X1533390D01*
X1538468Y1105912D02*
X1541007Y1108451D01*
X1546086D01*
X1548625Y1105912D01*
Y1103373D01*
X1543546Y1098294D01*
Y1095755D02*
Y1093216D01*
X1355598Y652526D02*
Y667761D01*
X1363215D01*
X1365755Y665222D01*
Y660144D01*
X1363215Y657604D01*
X1355598D01*
X1360676D02*
X1365755Y652526D01*
X1380990Y667761D02*
X1375911Y665222D01*
X1370833Y660144D01*
Y655065D01*
X1373372Y652526D01*
X1378451D01*
X1380990Y655065D01*
Y657604D01*
X1378451Y660144D01*
X1370833D01*
X1386068Y665222D02*
X1388607Y667761D01*
X1393686D01*
X1396225Y665222D01*
Y662683D01*
X1391147Y657604D01*
Y655065D02*
Y652526D01*
X1537713Y700274D02*
X1535173Y702813D01*
X1530095D01*
X1527556Y700274D01*
Y690117D01*
X1530095Y687578D01*
X1535173D01*
X1537713Y690117D01*
X1552948Y687578D02*
X1542791D01*
X1552948Y697735D01*
Y700274D01*
X1550409Y702813D01*
X1545330D01*
X1542791Y700274D01*
X1558026D02*
X1560565Y702813D01*
X1565644D01*
X1568183Y700274D01*
Y697735D01*
X1563105Y692656D01*
Y690117D02*
Y687578D01*
X1678429Y946654D02*
X1675889Y949193D01*
X1670811D01*
X1668272Y946654D01*
Y936497D01*
X1670811Y933958D01*
X1675889D01*
X1678429Y936497D01*
X1683507Y933958D02*
X1688585D01*
X1686046D01*
Y949193D01*
X1683507Y946654D01*
X1696203D02*
X1698742Y949193D01*
X1703820D01*
X1706360Y946654D01*
Y944115D01*
X1701281Y939036D01*
Y936497D02*
Y933958D01*
X1358389Y503424D02*
X1355849Y505963D01*
X1350771D01*
X1348232Y503424D01*
Y493267D01*
X1350771Y490728D01*
X1355849D01*
X1358389Y493267D01*
X1363467Y505963D02*
X1373624D01*
Y503424D01*
X1363467Y493267D01*
Y490728D01*
X1378702Y503424D02*
X1381241Y505963D01*
X1386320D01*
X1388859Y503424D01*
Y500885D01*
X1383781Y495806D01*
Y493267D02*
Y490728D01*
X1521711Y933954D02*
X1519171Y936493D01*
X1514093D01*
X1511554Y933954D01*
Y923797D01*
X1514093Y921258D01*
X1519171D01*
X1521711Y923797D01*
X1536946Y936493D02*
X1526789D01*
Y928876D01*
X1531867Y931415D01*
X1534407D01*
X1536946Y928876D01*
Y923797D01*
X1534407Y921258D01*
X1529328D01*
X1526789Y923797D01*
X1542024Y933954D02*
X1544563Y936493D01*
X1549642D01*
X1552181Y933954D01*
Y931415D01*
X1547103Y926336D01*
Y923797D02*
Y921258D01*
X1689097Y693924D02*
X1686557Y696463D01*
X1681479D01*
X1678940Y693924D01*
Y683767D01*
X1681479Y681228D01*
X1686557D01*
X1689097Y683767D01*
X1694175Y693924D02*
X1696714Y696463D01*
X1701793D01*
X1704332Y693924D01*
Y691385D01*
X1701793Y688846D01*
X1699253D01*
X1701793D01*
X1704332Y686306D01*
Y683767D01*
X1701793Y681228D01*
X1696714D01*
X1694175Y683767D01*
X1709410Y693924D02*
X1711949Y696463D01*
X1717028D01*
X1719567Y693924D01*
Y691385D01*
X1714489Y686306D01*
Y683767D02*
Y681228D01*
X1343911Y770124D02*
X1341371Y772663D01*
X1336293D01*
X1333754Y770124D01*
Y759967D01*
X1336293Y757428D01*
X1341371D01*
X1343911Y759967D01*
X1359146Y772663D02*
X1354067Y770124D01*
X1348989Y765045D01*
Y759967D01*
X1351528Y757428D01*
X1356607D01*
X1359146Y759967D01*
Y762506D01*
X1356607Y765045D01*
X1348989D01*
X1364224Y770124D02*
X1366763Y772663D01*
X1371842D01*
X1374381Y770124D01*
Y767585D01*
X1369303Y762506D01*
Y759967D02*
Y757428D01*
X1496311Y1208274D02*
X1493772Y1210813D01*
X1488693D01*
X1486154Y1208274D01*
Y1198117D01*
X1488693Y1195578D01*
X1493772D01*
X1496311Y1198117D01*
X1509007Y1195578D02*
Y1210813D01*
X1501389Y1203195D01*
X1511546D01*
X1516624Y1208274D02*
X1519163Y1210813D01*
X1524242D01*
X1526781Y1208274D01*
Y1205735D01*
X1521703Y1200656D01*
Y1198117D02*
Y1195578D01*
X1651251Y1203194D02*
X1648712Y1205733D01*
X1643633D01*
X1641094Y1203194D01*
Y1193037D01*
X1643633Y1190498D01*
X1648712D01*
X1651251Y1193037D01*
X1656329Y1203194D02*
X1658868Y1205733D01*
X1663947D01*
X1666486Y1203194D01*
Y1193037D01*
X1663947Y1190498D01*
X1658868D01*
X1656329Y1193037D01*
Y1203194D01*
X1671564D02*
X1674103Y1205733D01*
X1679182D01*
X1681721Y1203194D01*
Y1200655D01*
X1676642Y1195576D01*
Y1193037D02*
Y1190498D01*
X947465Y642623D02*
Y652779D01*
X952543Y657858D01*
X957622Y652779D01*
Y642623D01*
Y650240D01*
X947465D01*
X962700Y657858D02*
Y642623D01*
X970317D01*
X972857Y645162D01*
Y655318D01*
X970317Y657858D01*
X962700D01*
X988092Y655318D02*
X985553Y657858D01*
X980474D01*
X977935Y655318D01*
Y645162D01*
X980474Y642623D01*
X985553D01*
X988092Y645162D01*
X1018562Y655318D02*
X1016023Y657858D01*
X1010944D01*
X1008405Y655318D01*
Y645162D01*
X1010944Y642623D01*
X1016023D01*
X1018562Y645162D01*
X1023640Y642623D02*
X1028718D01*
X1026179D01*
Y657858D01*
X1023640D01*
X1038875Y642623D02*
X1043954D01*
X1046493Y645162D01*
Y650240D01*
X1043954Y652779D01*
X1038875D01*
X1036336Y650240D01*
Y645162D01*
X1038875Y642623D01*
X1061728Y652779D02*
X1054110D01*
X1051571Y650240D01*
Y645162D01*
X1054110Y642623D01*
X1061728D01*
X1066806D02*
Y657858D01*
Y647701D02*
X1074424Y652779D01*
X1066806Y647701D02*
X1074424Y642623D01*
X1107433Y655318D02*
X1104894Y657858D01*
X1099816D01*
X1097276Y655318D01*
Y645162D01*
X1099816Y642623D01*
X1104894D01*
X1107433Y645162D01*
Y650240D01*
X1102355D01*
X1120129Y642623D02*
X1115051D01*
X1112511Y645162D01*
Y650240D01*
X1115051Y652779D01*
X1120129D01*
X1122668Y650240D01*
Y647701D01*
X1112511D01*
X1127747Y642623D02*
Y652779D01*
X1135364D01*
X1137903Y650240D01*
Y642623D01*
X1150599D02*
X1145521D01*
X1142981Y645162D01*
Y650240D01*
X1145521Y652779D01*
X1150599D01*
X1153138Y650240D01*
Y647701D01*
X1142981D01*
X1158217Y652779D02*
Y642623D01*
Y647701D01*
X1160756Y650240D01*
X1163295Y652779D01*
X1165834D01*
X1175991D02*
X1181069D01*
X1183608Y650240D01*
Y642623D01*
X1175991D01*
X1173452Y645162D01*
X1175991Y647701D01*
X1183608D01*
X1191226Y655318D02*
Y652779D01*
X1188687D01*
X1193765D01*
X1191226D01*
Y645162D01*
X1193765Y642623D01*
X1203922D02*
X1209000D01*
X1211539Y645162D01*
Y650240D01*
X1209000Y652779D01*
X1203922D01*
X1201383Y650240D01*
Y645162D01*
X1203922Y642623D01*
X1216618Y652779D02*
Y642623D01*
Y647701D01*
X1219157Y650240D01*
X1221696Y652779D01*
X1224235D01*
X560975Y1241165D02*
X571132D01*
X566054D01*
Y1225930D01*
X583828D02*
X578750D01*
X576211Y1228469D01*
Y1233548D01*
X578750Y1236087D01*
X583828D01*
X586367Y1233548D01*
Y1231009D01*
X576211D01*
X599063Y1225930D02*
X593985D01*
X591446Y1228469D01*
Y1233548D01*
X593985Y1236087D01*
X599063D01*
X601602Y1233548D01*
Y1231009D01*
X591446D01*
X606681Y1225930D02*
Y1236087D01*
X614298D01*
X616837Y1233548D01*
Y1225930D01*
X621916D02*
X629533D01*
X632072Y1228469D01*
X629533Y1231009D01*
X624455D01*
X621916Y1233548D01*
X624455Y1236087D01*
X632072D01*
X637151D02*
Y1228469D01*
X639690Y1225930D01*
X647308D01*
Y1223391D01*
X644768Y1220852D01*
X642229D01*
X647308Y1225930D02*
Y1236087D01*
X675238Y1225930D02*
Y1241165D01*
X667621Y1233548D01*
X677778D01*
X682856Y1225930D02*
Y1228469D01*
X685395D01*
Y1225930D01*
X682856D01*
X695552D02*
X700630D01*
X698091D01*
Y1241165D01*
X695552Y1238626D01*
X720123Y227332D02*
Y242567D01*
X727740D01*
X730279Y240028D01*
Y234949D01*
X727740Y232410D01*
X720123D01*
X725201D02*
X730279Y227332D01*
X735358Y242567D02*
X745514D01*
X740436D01*
Y227332D01*
X760749Y240028D02*
X758210Y242567D01*
X753132D01*
X750593Y240028D01*
Y229871D01*
X753132Y227332D01*
X758210D01*
X760749Y229871D01*
X781063Y222253D02*
Y237488D01*
X788680D01*
X791219Y234949D01*
Y229871D01*
X788680Y227332D01*
X781063D01*
X798837D02*
X803915D01*
X806454Y229871D01*
Y234949D01*
X803915Y237488D01*
X798837D01*
X796298Y234949D01*
Y229871D01*
X798837Y227332D01*
X811533Y237488D02*
Y229871D01*
X814072Y227332D01*
X816611Y229871D01*
X819150Y227332D01*
X821690Y229871D01*
Y237488D01*
X834386Y227332D02*
X829307D01*
X826768Y229871D01*
Y234949D01*
X829307Y237488D01*
X834386D01*
X836925Y234949D01*
Y232410D01*
X826768D01*
X842003Y237488D02*
Y227332D01*
Y232410D01*
X844542Y234949D01*
X847081Y237488D01*
X849621D01*
X872473Y242567D02*
Y227332D01*
X880091D01*
X882630Y229871D01*
Y232410D01*
Y234949D01*
X880091Y237488D01*
X872473D01*
X890247D02*
X895326D01*
X897865Y234949D01*
Y227332D01*
X890247D01*
X887708Y229871D01*
X890247Y232410D01*
X897865D01*
X905482Y240028D02*
Y237488D01*
X902943D01*
X908022D01*
X905482D01*
Y229871D01*
X908022Y227332D01*
X918178Y240028D02*
Y237488D01*
X915639D01*
X920718D01*
X918178D01*
Y229871D01*
X920718Y227332D01*
X1730375Y1115690D02*
Y1100455D01*
X1737993D01*
X1740532Y1102994D01*
Y1113151D01*
X1737993Y1115690D01*
X1730375D01*
X1745610D02*
Y1100455D01*
X1753228D01*
X1755767Y1102994D01*
Y1105533D01*
X1753228Y1108073D01*
X1745610D01*
X1753228D01*
X1755767Y1110612D01*
Y1113151D01*
X1753228Y1115690D01*
X1745610D01*
X1771002Y1113151D02*
X1768463Y1115690D01*
X1763384D01*
X1760845Y1113151D01*
Y1102994D01*
X1763384Y1100455D01*
X1768463D01*
X1771002Y1102994D01*
Y1108073D01*
X1765923D01*
X1786237Y1115690D02*
X1781159Y1113151D01*
X1776080Y1108073D01*
Y1102994D01*
X1778619Y1100455D01*
X1783698D01*
X1786237Y1102994D01*
Y1105533D01*
X1783698Y1108073D01*
X1776080D01*
X1699900Y1416685D02*
X1715135D01*
Y1424303D01*
X1712596Y1426842D01*
X1702439D01*
X1699900Y1424303D01*
Y1416685D01*
Y1431920D02*
X1715135D01*
Y1439538D01*
X1712596Y1442077D01*
X1710057D01*
X1707518Y1439538D01*
Y1431920D01*
Y1439538D01*
X1704978Y1442077D01*
X1702439D01*
X1699900Y1439538D01*
Y1431920D01*
X1702439Y1457312D02*
X1699900Y1454773D01*
Y1449694D01*
X1702439Y1447155D01*
X1712596D01*
X1715135Y1449694D01*
Y1454773D01*
X1712596Y1457312D01*
X1707518D01*
Y1452233D01*
X1699900Y1472547D02*
Y1462390D01*
X1707518D01*
X1704978Y1467469D01*
Y1470008D01*
X1707518Y1472547D01*
X1712596D01*
X1715135Y1470008D01*
Y1464929D01*
X1712596Y1462390D01*
X1365890Y1424305D02*
X1381125D01*
Y1431922D01*
X1378586Y1434462D01*
X1368429D01*
X1365890Y1431922D01*
Y1424305D01*
Y1439540D02*
X1381125D01*
Y1447158D01*
X1378586Y1449697D01*
X1376047D01*
X1373508Y1447158D01*
Y1439540D01*
Y1447158D01*
X1370968Y1449697D01*
X1368429D01*
X1365890Y1447158D01*
Y1439540D01*
X1368429Y1464932D02*
X1365890Y1462393D01*
Y1457314D01*
X1368429Y1454775D01*
X1378586D01*
X1381125Y1457314D01*
Y1462393D01*
X1378586Y1464932D01*
X1373508D01*
Y1459854D01*
X1381125Y1477628D02*
X1365890D01*
X1373508Y1470010D01*
Y1480167D01*
X1021720Y1420495D02*
X1036955D01*
Y1428112D01*
X1034416Y1430652D01*
X1024259D01*
X1021720Y1428112D01*
Y1420495D01*
Y1435730D02*
X1036955D01*
Y1443348D01*
X1034416Y1445887D01*
X1031877D01*
X1029337Y1443348D01*
Y1435730D01*
Y1443348D01*
X1026798Y1445887D01*
X1024259D01*
X1021720Y1443348D01*
Y1435730D01*
X1024259Y1461122D02*
X1021720Y1458583D01*
Y1453504D01*
X1024259Y1450965D01*
X1034416D01*
X1036955Y1453504D01*
Y1458583D01*
X1034416Y1461122D01*
X1029337D01*
Y1456044D01*
X1024259Y1466200D02*
X1021720Y1468739D01*
Y1473818D01*
X1024259Y1476357D01*
X1026798D01*
X1029337Y1473818D01*
Y1471279D01*
Y1473818D01*
X1031877Y1476357D01*
X1034416D01*
X1036955Y1473818D01*
Y1468739D01*
X1034416Y1466200D01*
X649610Y1416685D02*
X664845D01*
Y1424303D01*
X662306Y1426842D01*
X652149D01*
X649610Y1424303D01*
Y1416685D01*
Y1431920D02*
X664845D01*
Y1439538D01*
X662306Y1442077D01*
X659767D01*
X657227Y1439538D01*
Y1431920D01*
Y1439538D01*
X654688Y1442077D01*
X652149D01*
X649610Y1439538D01*
Y1431920D01*
X652149Y1457312D02*
X649610Y1454773D01*
Y1449694D01*
X652149Y1447155D01*
X662306D01*
X664845Y1449694D01*
Y1454773D01*
X662306Y1457312D01*
X657227D01*
Y1452233D01*
X664845Y1472547D02*
Y1462390D01*
X654688Y1472547D01*
X652149D01*
X649610Y1470008D01*
Y1464929D01*
X652149Y1462390D01*
X290200Y1416685D02*
X305435D01*
Y1424303D01*
X302896Y1426842D01*
X292739D01*
X290200Y1424303D01*
Y1416685D01*
Y1431920D02*
X305435D01*
Y1439538D01*
X302896Y1442077D01*
X300357D01*
X297817Y1439538D01*
Y1431920D01*
Y1439538D01*
X295278Y1442077D01*
X292739D01*
X290200Y1439538D01*
Y1431920D01*
X292739Y1457312D02*
X290200Y1454773D01*
Y1449694D01*
X292739Y1447155D01*
X302896D01*
X305435Y1449694D01*
Y1454773D01*
X302896Y1457312D01*
X297817D01*
Y1452233D01*
X305435Y1462390D02*
Y1467469D01*
Y1464929D01*
X290200D01*
X292739Y1462390D01*
X1817945Y775476D02*
X1823023D01*
X1820484D01*
Y760241D01*
X1817945D01*
X1823023D01*
X1840798D02*
X1830641D01*
X1840798Y770398D01*
Y772937D01*
X1838259Y775476D01*
X1833180D01*
X1830641Y772937D01*
X1856033D02*
X1853494Y775476D01*
X1848415D01*
X1845876Y772937D01*
Y762780D01*
X1848415Y760241D01*
X1853494D01*
X1856033Y762780D01*
X1567189Y426717D02*
Y414022D01*
X1569728Y411483D01*
X1574807D01*
X1577346Y414022D01*
Y426717D01*
X1582424Y411483D02*
Y421639D01*
X1587502Y426717D01*
X1592581Y421639D01*
Y411483D01*
Y419100D01*
X1582424D01*
X1597659Y411483D02*
Y426717D01*
X1605277D01*
X1607816Y424178D01*
Y419100D01*
X1605277Y416561D01*
X1597659D01*
X1602737D02*
X1607816Y411483D01*
X1612894Y426717D02*
X1623051D01*
X1617973D01*
Y411483D01*
X1838963Y429258D02*
X1836424Y431797D01*
X1831346D01*
X1828807Y429258D01*
Y419102D01*
X1831346Y416562D01*
X1836424D01*
X1838963Y419102D01*
X1844042Y416562D02*
Y426719D01*
X1849120Y431797D01*
X1854198Y426719D01*
Y416562D01*
Y424180D01*
X1844042D01*
X1859277Y416562D02*
Y431797D01*
X1869433Y416562D01*
Y431797D01*
X1856276Y1290849D02*
X1853737Y1293388D01*
X1848658D01*
X1846119Y1290849D01*
Y1288310D01*
X1848658Y1285771D01*
X1853737D01*
X1856276Y1283231D01*
Y1280692D01*
X1853737Y1278153D01*
X1848658D01*
X1846119Y1280692D01*
X1861354Y1278153D02*
Y1293388D01*
X1868972D01*
X1871511Y1290849D01*
Y1285771D01*
X1868972Y1283231D01*
X1861354D01*
X1876589Y1293388D02*
X1881667D01*
X1879128D01*
Y1278153D01*
X1876589D01*
X1881667D01*
X946186Y1018538D02*
X943647Y1021077D01*
X938568D01*
X936029Y1018538D01*
Y1015998D01*
X938568Y1013459D01*
X943647D01*
X946186Y1010920D01*
Y1008381D01*
X943647Y1005842D01*
X938568D01*
X936029Y1008381D01*
X953803Y1018538D02*
Y1015998D01*
X951264D01*
X956342D01*
X953803D01*
Y1008381D01*
X956342Y1005842D01*
X971578D02*
X966499D01*
X963960Y1008381D01*
Y1013459D01*
X966499Y1015998D01*
X971578D01*
X974117Y1013459D01*
Y1010920D01*
X963960D01*
X979195Y1000763D02*
Y1015998D01*
X986813D01*
X989352Y1013459D01*
Y1008381D01*
X986813Y1005842D01*
X979195D01*
X1009665Y1021077D02*
Y1005842D01*
X1017283D01*
X1019822Y1008381D01*
Y1018538D01*
X1017283Y1021077D01*
X1009665D01*
X1027439Y1005842D02*
X1032518D01*
X1035057Y1008381D01*
Y1013459D01*
X1032518Y1015998D01*
X1027439D01*
X1024900Y1013459D01*
Y1008381D01*
X1027439Y1005842D01*
X1040135Y1015998D02*
Y1008381D01*
X1042674Y1005842D01*
X1045214Y1008381D01*
X1047753Y1005842D01*
X1050292Y1008381D01*
Y1015998D01*
X1055370Y1005842D02*
Y1015998D01*
X1062988D01*
X1065527Y1013459D01*
Y1005842D01*
X1095997Y1018538D02*
X1093458Y1021077D01*
X1088380D01*
X1085841Y1018538D01*
Y1008381D01*
X1088380Y1005842D01*
X1093458D01*
X1095997Y1008381D01*
X1101076Y1005842D02*
X1106154D01*
X1103615D01*
Y1015998D01*
X1101076D01*
X1113772D02*
Y1005842D01*
Y1010920D01*
X1116311Y1013459D01*
X1118850Y1015998D01*
X1121389D01*
X1139163D02*
X1131546D01*
X1129007Y1013459D01*
Y1008381D01*
X1131546Y1005842D01*
X1139163D01*
X1144242Y1015998D02*
Y1008381D01*
X1146781Y1005842D01*
X1154398D01*
Y1015998D01*
X1159477Y1005842D02*
X1164555D01*
X1162016D01*
Y1015998D01*
X1159477D01*
X1174712Y1018538D02*
Y1015998D01*
X1172173D01*
X1177251D01*
X1174712D01*
Y1008381D01*
X1177251Y1005842D01*
X949322Y1275203D02*
X946783Y1277742D01*
X941704D01*
X939165Y1275203D01*
Y1265046D01*
X941704Y1262507D01*
X946783D01*
X949322Y1265046D01*
X954400Y1277742D02*
Y1262507D01*
Y1270125D01*
X956939Y1272664D01*
X962018D01*
X964557Y1270125D01*
Y1262507D01*
X972174Y1272664D02*
X977253D01*
X979792Y1270125D01*
Y1262507D01*
X972174D01*
X969635Y1265046D01*
X972174Y1267585D01*
X979792D01*
X984870Y1262507D02*
X992488D01*
X995027Y1265046D01*
X992488Y1267585D01*
X987409D01*
X984870Y1270125D01*
X987409Y1272664D01*
X995027D01*
X1000105Y1262507D02*
X1007723D01*
X1010262Y1265046D01*
X1007723Y1267585D01*
X1002645D01*
X1000105Y1270125D01*
X1002645Y1272664D01*
X1010262D01*
X1015340Y1262507D02*
X1020419D01*
X1017879D01*
Y1272664D01*
X1015340D01*
X1028036Y1262507D02*
X1035654D01*
X1038193Y1265046D01*
X1035654Y1267585D01*
X1030575D01*
X1028036Y1270125D01*
X1030575Y1272664D01*
X1038193D01*
X1068663Y1275203D02*
X1066124Y1277742D01*
X1061046D01*
X1058506Y1275203D01*
Y1265046D01*
X1061046Y1262507D01*
X1066124D01*
X1068663Y1265046D01*
Y1270125D01*
X1063585D01*
X1073742Y1272664D02*
Y1262507D01*
Y1267585D01*
X1076281Y1270125D01*
X1078820Y1272664D01*
X1081359D01*
X1091516Y1262507D02*
X1096594D01*
X1099133Y1265046D01*
Y1270125D01*
X1096594Y1272664D01*
X1091516D01*
X1088977Y1270125D01*
Y1265046D01*
X1091516Y1262507D01*
X1104212Y1272664D02*
Y1265046D01*
X1106751Y1262507D01*
X1114368D01*
Y1272664D01*
X1119447Y1262507D02*
Y1272664D01*
X1127064D01*
X1129603Y1270125D01*
Y1262507D01*
X1144838Y1277742D02*
Y1262507D01*
X1137221D01*
X1134682Y1265046D01*
Y1270125D01*
X1137221Y1272664D01*
X1144838D01*
X1203095Y1271672D02*
Y1256437D01*
X1210713D01*
X1213252Y1258976D01*
Y1261515D01*
X1210713Y1264054D01*
X1203095D01*
X1210713D01*
X1213252Y1266594D01*
Y1269133D01*
X1210713Y1271672D01*
X1203095D01*
X1220869Y1266594D02*
X1225948D01*
X1228487Y1264054D01*
Y1256437D01*
X1220869D01*
X1218330Y1258976D01*
X1220869Y1261515D01*
X1228487D01*
X1236104Y1269133D02*
Y1266594D01*
X1233565D01*
X1238643D01*
X1236104D01*
Y1258976D01*
X1238643Y1256437D01*
X1248800Y1269133D02*
Y1266594D01*
X1246261D01*
X1251339D01*
X1248800D01*
Y1258976D01*
X1251339Y1256437D01*
X1266574D02*
X1261496D01*
X1258957Y1258976D01*
Y1264054D01*
X1261496Y1266594D01*
X1266574D01*
X1269114Y1264054D01*
Y1261515D01*
X1258957D01*
X1274192Y1266594D02*
Y1256437D01*
Y1261515D01*
X1276731Y1264054D01*
X1279270Y1266594D01*
X1281810D01*
X1289427D02*
Y1258976D01*
X1291966Y1256437D01*
X1299584D01*
Y1253898D01*
X1297045Y1251359D01*
X1294505D01*
X1299584Y1256437D02*
Y1266594D01*
X1319897Y1271672D02*
Y1256437D01*
Y1264054D01*
X1330054D01*
Y1271672D01*
Y1256437D01*
X1337672D02*
X1342750D01*
X1345289Y1258976D01*
Y1264054D01*
X1342750Y1266594D01*
X1337672D01*
X1335132Y1264054D01*
Y1258976D01*
X1337672Y1256437D01*
X1352906D02*
X1357985D01*
X1360524Y1258976D01*
Y1264054D01*
X1357985Y1266594D01*
X1352906D01*
X1350367Y1264054D01*
Y1258976D01*
X1352906Y1256437D01*
X1365602D02*
Y1271672D01*
Y1261515D02*
X1373220Y1266594D01*
X1365602Y1261515D02*
X1373220Y1256437D01*
X1380838Y1266594D02*
Y1258976D01*
X1383377Y1256437D01*
X1390994D01*
Y1266594D01*
X1396073Y1251359D02*
Y1266594D01*
X1403690D01*
X1406229Y1264054D01*
Y1258976D01*
X1403690Y1256437D01*
X1396073D01*
X994791Y817499D02*
Y827656D01*
X999869Y832734D01*
X1004948Y827656D01*
Y817499D01*
Y825117D01*
X994791D01*
X1010026Y817499D02*
Y827656D01*
X1017644D01*
X1020183Y825117D01*
Y817499D01*
X1027800Y827656D02*
X1032879D01*
X1035418Y825117D01*
Y817499D01*
X1027800D01*
X1025261Y820038D01*
X1027800Y822577D01*
X1035418D01*
X1040496Y817499D02*
X1045575D01*
X1043035D01*
Y832734D01*
X1040496D01*
X1055731Y817499D02*
X1060810D01*
X1063349Y820038D01*
Y825117D01*
X1060810Y827656D01*
X1055731D01*
X1053192Y825117D01*
Y820038D01*
X1055731Y817499D01*
X1073505Y812421D02*
X1076045D01*
X1078584Y814960D01*
Y827656D01*
X1070966D01*
X1068427Y825117D01*
Y820038D01*
X1070966Y817499D01*
X1078584D01*
X1098897Y832734D02*
Y822577D01*
X1103976Y817499D01*
X1109054Y822577D01*
Y832734D01*
X1114132Y817499D02*
Y832734D01*
X1121750D01*
X1124289Y830195D01*
Y825117D01*
X1121750Y822577D01*
X1114132D01*
X1119211D02*
X1124289Y817499D01*
X1139524Y832734D02*
X1129368D01*
Y817499D01*
X1139524D01*
X1129368Y825117D02*
X1134446D01*
X1154759Y832734D02*
X1144603D01*
Y825117D01*
X1149681D01*
X1144603D01*
Y817499D01*
X1185229Y830195D02*
X1182690Y832734D01*
X1177612D01*
X1175073Y830195D01*
Y820038D01*
X1177612Y817499D01*
X1182690D01*
X1185229Y820038D01*
Y825117D01*
X1180151D01*
X1197925Y817499D02*
X1192847D01*
X1190308Y820038D01*
Y825117D01*
X1192847Y827656D01*
X1197925D01*
X1200464Y825117D01*
Y822577D01*
X1190308D01*
X1205543Y817499D02*
Y827656D01*
X1213160D01*
X1215699Y825117D01*
Y817499D01*
X1228395D02*
X1223317D01*
X1220778Y820038D01*
Y825117D01*
X1223317Y827656D01*
X1228395D01*
X1230935Y825117D01*
Y822577D01*
X1220778D01*
X1236013Y827656D02*
Y817499D01*
Y822577D01*
X1238552Y825117D01*
X1241091Y827656D01*
X1243631D01*
X1253787D02*
X1258866D01*
X1261405Y825117D01*
Y817499D01*
X1253787D01*
X1251248Y820038D01*
X1253787Y822577D01*
X1261405D01*
X1269022Y830195D02*
Y827656D01*
X1266483D01*
X1271562D01*
X1269022D01*
Y820038D01*
X1271562Y817499D01*
X1281718D02*
X1286797D01*
X1289336Y820038D01*
Y825117D01*
X1286797Y827656D01*
X1281718D01*
X1279179Y825117D01*
Y820038D01*
X1281718Y817499D01*
X1294414Y827656D02*
Y817499D01*
Y822577D01*
X1296953Y825117D01*
X1299492Y827656D01*
X1302032D01*
X1238377Y997331D02*
Y1007488D01*
X1243455Y1012566D01*
X1248534Y1007488D01*
Y997331D01*
Y1004949D01*
X1238377D01*
X1253612Y1012566D02*
Y997331D01*
X1261230D01*
X1263769Y999870D01*
Y1010027D01*
X1261230Y1012566D01*
X1253612D01*
X1279004Y1010027D02*
X1276465Y1012566D01*
X1271386D01*
X1268847Y1010027D01*
Y1007488D01*
X1271386Y1004949D01*
X1276465D01*
X1279004Y1002409D01*
Y999870D01*
X1276465Y997331D01*
X1271386D01*
X1268847Y999870D01*
X1284082Y997331D02*
X1289161D01*
X1286621D01*
Y1012566D01*
X1284082Y1010027D01*
X1306935Y997331D02*
X1296778D01*
X1306935Y1007488D01*
Y1010027D01*
X1304396Y1012566D01*
X1299317D01*
X1296778Y1010027D01*
X1322170Y1012566D02*
X1312013D01*
Y1004949D01*
X1317092Y1007488D01*
X1319631D01*
X1322170Y1004949D01*
Y999870D01*
X1319631Y997331D01*
X1314552D01*
X1312013Y999870D01*
X1337405Y1012566D02*
X1332327Y1010027D01*
X1327248Y1004949D01*
Y999870D01*
X1329787Y997331D01*
X1334866D01*
X1337405Y999870D01*
Y1002409D01*
X1334866Y1004949D01*
X1327248D01*
X1261999Y508889D02*
Y519046D01*
X1267077Y524124D01*
X1272156Y519046D01*
Y508889D01*
Y516507D01*
X1261999D01*
X1277234Y524124D02*
Y508889D01*
X1284852D01*
X1287391Y511428D01*
Y521585D01*
X1284852Y524124D01*
X1277234D01*
X1302626Y521585D02*
X1300087Y524124D01*
X1295008D01*
X1292469Y521585D01*
Y511428D01*
X1295008Y508889D01*
X1300087D01*
X1302626Y511428D01*
X1307704Y524124D02*
X1317861D01*
Y521585D01*
X1307704Y511428D01*
Y508889D01*
X1243489Y775589D02*
Y785746D01*
X1248567Y790824D01*
X1253646Y785746D01*
Y775589D01*
Y783206D01*
X1243489D01*
X1258724Y790824D02*
Y775589D01*
X1266342D01*
X1268881Y778128D01*
Y788285D01*
X1266342Y790824D01*
X1258724D01*
X1284116Y788285D02*
X1281577Y790824D01*
X1276498D01*
X1273959Y788285D01*
Y778128D01*
X1276498Y775589D01*
X1281577D01*
X1284116Y778128D01*
X1299351Y790824D02*
X1294273Y788285D01*
X1289194Y783206D01*
Y778128D01*
X1291733Y775589D01*
X1296812D01*
X1299351Y778128D01*
Y780667D01*
X1296812Y783206D01*
X1289194D01*
X1427639Y938619D02*
Y948776D01*
X1432717Y953854D01*
X1437796Y948776D01*
Y938619D01*
Y946236D01*
X1427639D01*
X1442874Y953854D02*
Y938619D01*
X1450492D01*
X1453031Y941158D01*
Y951315D01*
X1450492Y953854D01*
X1442874D01*
X1468266Y951315D02*
X1465727Y953854D01*
X1460648D01*
X1458109Y951315D01*
Y941158D01*
X1460648Y938619D01*
X1465727D01*
X1468266Y941158D01*
X1483501Y953854D02*
X1473344D01*
Y946236D01*
X1478423Y948776D01*
X1480962D01*
X1483501Y946236D01*
Y941158D01*
X1480962Y938619D01*
X1475883D01*
X1473344Y941158D01*
X1399699Y1212469D02*
Y1222626D01*
X1404777Y1227704D01*
X1409856Y1222626D01*
Y1212469D01*
Y1220087D01*
X1399699D01*
X1414934Y1227704D02*
Y1212469D01*
X1422552D01*
X1425091Y1215008D01*
Y1225165D01*
X1422552Y1227704D01*
X1414934D01*
X1440326Y1225165D02*
X1437787Y1227704D01*
X1432708D01*
X1430169Y1225165D01*
Y1215008D01*
X1432708Y1212469D01*
X1437787D01*
X1440326Y1215008D01*
X1453022Y1212469D02*
Y1227704D01*
X1445404Y1220087D01*
X1455561D01*
X1590199Y698589D02*
Y708746D01*
X1595277Y713824D01*
X1600356Y708746D01*
Y698589D01*
Y706207D01*
X1590199D01*
X1605434Y713824D02*
Y698589D01*
X1613052D01*
X1615591Y701128D01*
Y711285D01*
X1613052Y713824D01*
X1605434D01*
X1630826Y711285D02*
X1628287Y713824D01*
X1623208D01*
X1620669Y711285D01*
Y701128D01*
X1623208Y698589D01*
X1628287D01*
X1630826Y701128D01*
X1635904Y711285D02*
X1638443Y713824D01*
X1643522D01*
X1646061Y711285D01*
Y708746D01*
X1643522Y706207D01*
X1640983D01*
X1643522D01*
X1646061Y703667D01*
Y701128D01*
X1643522Y698589D01*
X1638443D01*
X1635904Y701128D01*
X1439799Y705739D02*
Y715896D01*
X1444877Y720974D01*
X1449956Y715896D01*
Y705739D01*
Y713356D01*
X1439799D01*
X1455034Y720974D02*
Y705739D01*
X1462652D01*
X1465191Y708278D01*
Y718435D01*
X1462652Y720974D01*
X1455034D01*
X1480426Y718435D02*
X1477887Y720974D01*
X1472808D01*
X1470269Y718435D01*
Y708278D01*
X1472808Y705739D01*
X1477887D01*
X1480426Y708278D01*
X1495661Y705739D02*
X1485504D01*
X1495661Y715896D01*
Y718435D01*
X1493122Y720974D01*
X1488043D01*
X1485504Y718435D01*
X1585849Y939419D02*
Y949576D01*
X1590927Y954654D01*
X1596006Y949576D01*
Y939419D01*
Y947037D01*
X1585849D01*
X1601084Y954654D02*
Y939419D01*
X1608702D01*
X1611241Y941958D01*
Y952115D01*
X1608702Y954654D01*
X1601084D01*
X1626476Y952115D02*
X1623937Y954654D01*
X1618858D01*
X1616319Y952115D01*
Y941958D01*
X1618858Y939419D01*
X1623937D01*
X1626476Y941958D01*
X1631554Y939419D02*
X1636633D01*
X1634093D01*
Y954654D01*
X1631554Y952115D01*
X1555909Y1208659D02*
Y1218816D01*
X1560987Y1223894D01*
X1566066Y1218816D01*
Y1208659D01*
Y1216276D01*
X1555909D01*
X1571144Y1223894D02*
Y1208659D01*
X1578762D01*
X1581301Y1211198D01*
Y1221355D01*
X1578762Y1223894D01*
X1571144D01*
X1596536Y1221355D02*
X1593997Y1223894D01*
X1588918D01*
X1586379Y1221355D01*
Y1211198D01*
X1588918Y1208659D01*
X1593997D01*
X1596536Y1211198D01*
X1601614Y1221355D02*
X1604153Y1223894D01*
X1609232D01*
X1611771Y1221355D01*
Y1211198D01*
X1609232Y1208659D01*
X1604153D01*
X1601614Y1211198D01*
Y1221355D01*
X364360Y503301D02*
X354203D01*
X364360Y513458D01*
Y515997D01*
X361820Y518536D01*
X356742D01*
X354203Y515997D01*
X379595Y518536D02*
X369438D01*
Y510919D01*
X374516Y513458D01*
X377056D01*
X379595Y510919D01*
Y505840D01*
X377056Y503301D01*
X371977D01*
X369438Y505840D01*
X377600Y779361D02*
Y794596D01*
X369982Y786978D01*
X380139D01*
X385217Y779361D02*
X390296D01*
X387757D01*
Y794596D01*
X385217Y792057D01*
X392840Y1032891D02*
X382683D01*
X392840Y1043048D01*
Y1045587D01*
X390300Y1048126D01*
X385222D01*
X382683Y1045587D01*
X397918D02*
X400457Y1048126D01*
X405536D01*
X408075Y1045587D01*
Y1035430D01*
X405536Y1032891D01*
X400457D01*
X397918Y1035430D01*
Y1045587D01*
X391569Y1280541D02*
X381412D01*
X391569Y1290698D01*
Y1293237D01*
X389030Y1295776D01*
X383951D01*
X381412Y1293237D01*
X396647Y1280541D02*
X401726D01*
X399187D01*
Y1295776D01*
X396647Y1293237D01*
X125603Y485521D02*
X130681D01*
X128142D01*
Y500756D01*
X125603Y498217D01*
X148455Y500756D02*
X138299D01*
Y493139D01*
X143377Y495678D01*
X145916D01*
X148455Y493139D01*
Y488060D01*
X145916Y485521D01*
X140838D01*
X138299Y488060D01*
X128683Y1029081D02*
X133761D01*
X131222D01*
Y1044316D01*
X128683Y1041777D01*
X141378Y1044316D02*
X151535D01*
Y1041777D01*
X141378Y1031620D01*
Y1029081D01*
X129413Y745871D02*
X134491D01*
X131952D01*
Y761106D01*
X129413Y758567D01*
X152265Y761106D02*
X147187Y758567D01*
X142108Y753488D01*
Y748410D01*
X144648Y745871D01*
X149726D01*
X152265Y748410D01*
Y750949D01*
X149726Y753488D01*
X142108D01*
X126143Y1294511D02*
X131221D01*
X128682D01*
Y1309746D01*
X126143Y1307207D01*
X146456Y1294511D02*
Y1309746D01*
X138839Y1302128D01*
X148995D01*
M02*
