M48
;Layer_Color=9474304
;FILE_FORMAT=2:5
INCH
;TYPE=PLATED
T01F00S00C0.02559
T02F00S00C0.02756
T03F00S00C0.02800
T04F00S00C0.02953
T05F00S00C0.03150
T06F00S00C0.03937
T07F00S00C0.04300
T08F00S00C0.04331
T09F00S00C0.05492
T10F00S00C0.07874
T11F00S00C0.12598
T12F00S00C0.13976
%
T01
X0614917Y0323193
Y0353193
X0674917
Y0323193
T02
X0641063Y0204646
X0648937
Y0212520
X0641063
Y0220394
X0648937
T03
X0311000Y0138000
X0330000Y0138500
X0650421Y0110841
X0650500Y0103000
X0694500Y0102500
X0691000Y0112000
X0693000Y0222500
Y0231000
X0676000
Y0222500
X0703500Y0217000
X0603500Y0237000
X0553925Y0240925
X0542000Y0204000
X0474500Y0232500
X0462500Y0224500
X0450000Y0192000
X0409000Y0176488
X0376000Y0164500
X0385000Y0204500
X0386500Y0255000
X0395000Y0274000
X0406000
X0431000
X0418000Y0253000
X0423000Y0234500
X0375500Y0294500
Y0317000
X0362500Y0328500
X0341500
X0320500
X0483000Y0370500
X0513000Y0363000
Y0342000
T04
X0635000Y0242992
X0645000
X0655000
X0665000
X0675000
T05
X0630000Y0178000
X0640000
X0650000
X0660000
X0670000
X0680000
X0690000
X0700000
Y0195000
X0690000
Y0205000
X0680000Y0195000
X0670000
X0660000
X0650000
X0640000
X0630000
Y0255000
X0640000
X0650000
X0660000
X0670000
X0680000
X0690000
X0700000
Y0272000
X0690000
X0680000
X0670000
X0660000
X0650000
X0640000
X0630000
X0620000
X0610000
X0600000
X0590000
X0580000
X0570000
X0560000
X0550000
X0540000
X0530000
X0520000
X0510000
X0500000
X0490000
X0480000
X0470000
Y0255000
X0480000
X0490000
X0500000
X0510000
X0520000
X0530000
X0540000
X0550000
X0560000
X0570000
X0580000
X0590000
X0600000
X0610000
X0620000
Y0195000
X0610000
X0600000
X0590000
X0580000
X0570000
X0560000
X0550000
X0540000
X0530000
X0520000
X0510000
X0500000
X0490000
X0480000
X0470000
Y0178000
X0480000
X0490000
X0500000
X0510000
X0520000
X0530000
X0540000
X0550000
X0560000
X0570000
X0580000
X0590000
X0600000
X0610000
X0620000
X0520000Y0205000
Y0215000
Y0225000
Y0235000
Y0245000
X0521504Y0293886
X0529378
X0537252
X0545126
X0553000
X0513630
X0505756
X0497882
X0490008
X0482134
Y0380500
X0490008
X0497882
X0505756
X0513630
X0521504
X0529378
X0537252
X0545126
X0553000
T06
X0361500Y0108012
Y0116988
Y0125012
Y0133988
X0438000
Y0125012
Y0116988
Y0108012
X0709500Y0323000
Y0333000
Y0343000
Y0353000
T07
X0321004Y0176571
Y0191138
Y0204917
Y0214760
Y0224602
Y0234445
Y0244287
Y0254130
Y0263972
Y0273815
Y0283657
Y0293500
X0336752
Y0283657
Y0273815
Y0263972
Y0254130
Y0244287
Y0234445
Y0224602
Y0214760
Y0204917
Y0191138
Y0176571
X0352500
Y0191138
Y0204917
Y0214760
Y0224602
Y0234445
Y0244287
Y0254130
Y0263972
Y0273815
Y0283657
Y0293500
X0305256
Y0283657
Y0273815
Y0263972
Y0254130
Y0244287
Y0234445
Y0224602
Y0214760
Y0204917
Y0191138
Y0176571
T08
X0335500Y0087500
X0350500
X0365500
X0380500
X0395500
X0410500
X0425500
X0440500
X0455500
X0456500Y0113000
Y0129000
X0395000
X0380000
Y0113000
X0395000
X0471500
Y0129000
X0502000Y0131000
X0520000
X0538000
Y0151000
X0520000
X0502000
Y0111000
X0520000
X0538000
Y0091000
X0520000
X0502000
X0470500Y0087500
X0557000Y0091000
Y0106000
Y0121000
Y0136000
Y0151000
X0575000
Y0136000
Y0121000
Y0106000
Y0091000
X0592000
Y0106000
Y0121000
Y0136000
Y0151000
X0299000Y0334500
Y0349500
X0329500Y0373000
Y0385500
X0357000Y0378500
X0370780
X0403500Y0373500
X0413736
X0423579
T09
X0648299Y0121500
X0728968
T10
X0707532Y0294693
X0620917
Y0381307
X0707532
T11
X0616500Y0159500
X0456500
T12
X0298500Y0089000
X0733500
X0298500Y0379000
X0733500
M30
