G04*
G04 #@! TF.GenerationSoftware,Altium Limited,Altium Designer,25.8.1 (18)*
G04*
G04 Layer_Color=8421504*
%FSLAX25Y25*%
%MOIN*%
G70*
G04*
G04 #@! TF.SameCoordinates,D47C2E41-6923-41EE-850D-27A9ECC21C74*
G04*
G04*
G04 #@! TF.FilePolarity,Positive*
G04*
G01*
G75*
%ADD18R,0.04168X0.03985*%
%ADD19O,0.07087X0.01772*%
G04:AMPARAMS|DCode=20|XSize=29.92mil|YSize=26mil|CornerRadius=3.25mil|HoleSize=0mil|Usage=FLASHONLY|Rotation=270.000|XOffset=0mil|YOffset=0mil|HoleType=Round|Shape=RoundedRectangle|*
%AMROUNDEDRECTD20*
21,1,0.02992,0.01950,0,0,270.0*
21,1,0.02342,0.02600,0,0,270.0*
1,1,0.00650,-0.00975,-0.01171*
1,1,0.00650,-0.00975,0.01171*
1,1,0.00650,0.00975,0.01171*
1,1,0.00650,0.00975,-0.01171*
%
%ADD20ROUNDEDRECTD20*%
%ADD21R,0.02953X0.03543*%
%ADD22R,0.03543X0.02953*%
%ADD23O,0.08661X0.02362*%
G04:AMPARAMS|DCode=24|XSize=29.92mil|YSize=26mil|CornerRadius=3.25mil|HoleSize=0mil|Usage=FLASHONLY|Rotation=180.000|XOffset=0mil|YOffset=0mil|HoleType=Round|Shape=RoundedRectangle|*
%AMROUNDEDRECTD24*
21,1,0.02992,0.01950,0,0,180.0*
21,1,0.02342,0.02600,0,0,180.0*
1,1,0.00650,-0.01171,0.00975*
1,1,0.00650,0.01171,0.00975*
1,1,0.00650,0.01171,-0.00975*
1,1,0.00650,-0.01171,-0.00975*
%
%ADD24ROUNDEDRECTD24*%
%ADD25R,0.03150X0.03543*%
%ADD26R,0.03543X0.03150*%
D18*
X176952Y188000D02*
D03*
Y179500D02*
D03*
X176903Y166500D02*
D03*
X170000D02*
D03*
X170048Y179500D02*
D03*
Y188000D02*
D03*
D19*
X154386Y178780D02*
D03*
X127614Y194134D02*
D03*
X154386Y165984D02*
D03*
X127614Y191575D02*
D03*
Y189016D02*
D03*
Y183898D02*
D03*
X154386Y163425D02*
D03*
X127614Y178780D02*
D03*
Y165984D02*
D03*
Y186457D02*
D03*
Y173661D02*
D03*
Y181339D02*
D03*
X154386Y176220D02*
D03*
X127614Y160866D02*
D03*
X154386D02*
D03*
X127614Y168543D02*
D03*
Y176220D02*
D03*
Y163425D02*
D03*
Y171102D02*
D03*
X154386Y183898D02*
D03*
Y168543D02*
D03*
Y171102D02*
D03*
Y186457D02*
D03*
Y189016D02*
D03*
Y191575D02*
D03*
Y194134D02*
D03*
Y181339D02*
D03*
Y173661D02*
D03*
D20*
X219488Y294000D02*
D03*
X225000D02*
D03*
Y273000D02*
D03*
X219488D02*
D03*
D21*
X137776Y205000D02*
D03*
X142500D02*
D03*
X173713Y155500D02*
D03*
X106138Y248000D02*
D03*
Y226000D02*
D03*
X106716Y95500D02*
D03*
X168988Y155500D02*
D03*
X111441Y95500D02*
D03*
X110862Y226000D02*
D03*
Y248000D02*
D03*
D22*
X162500Y118138D02*
D03*
X116000Y191362D02*
D03*
X84000Y268858D02*
D03*
X63000D02*
D03*
X42000Y268716D02*
D03*
X119500Y123138D02*
D03*
X51500Y59862D02*
D03*
X32500Y59704D02*
D03*
X119500Y127862D02*
D03*
X116000Y186638D02*
D03*
X162500Y122862D02*
D03*
X84000Y273583D02*
D03*
X51500Y55138D02*
D03*
X32500Y54980D02*
D03*
X42000Y273441D02*
D03*
X63000Y273583D02*
D03*
D23*
X131551Y118000D02*
D03*
Y128000D02*
D03*
X150449Y123000D02*
D03*
X131551Y133000D02*
D03*
Y123000D02*
D03*
X150449Y133000D02*
D03*
Y128000D02*
D03*
Y118000D02*
D03*
D24*
X111000Y122744D02*
D03*
Y128256D02*
D03*
D25*
X147000Y63846D02*
D03*
Y46996D02*
D03*
X42000Y61347D02*
D03*
X73500Y267283D02*
D03*
X147000Y40303D02*
D03*
X42000Y54654D02*
D03*
X22650Y54807D02*
D03*
Y61500D02*
D03*
X70500Y57153D02*
D03*
Y63846D02*
D03*
Y40154D02*
D03*
Y46847D02*
D03*
X52500Y273760D02*
D03*
Y267067D02*
D03*
X94500Y273760D02*
D03*
Y267067D02*
D03*
X147000Y57153D02*
D03*
X73500Y273976D02*
D03*
D26*
X104654Y237000D02*
D03*
Y215000D02*
D03*
X111346Y237000D02*
D03*
X111500Y85000D02*
D03*
X104807D02*
D03*
X111346Y215000D02*
D03*
M02*
