G04*
G04 #@! TF.GenerationSoftware,Altium Limited,Altium Designer,25.8.1 (18)*
G04*
G04 Layer_Physical_Order=2*
G04 Layer_Color=7674933*
%FSLAX25Y25*%
%MOIN*%
G70*
G04*
G04 #@! TF.SameCoordinates,D47C2E41-6923-41EE-850D-27A9ECC21C74*
G04*
G04*
G04 #@! TF.FilePolarity,Negative*
G04*
G01*
G75*
%ADD81C,0.04000*%
G04:AMPARAMS|DCode=82|XSize=103.307mil|YSize=103.307mil|CornerRadius=0mil|HoleSize=0mil|Usage=FLASHONLY|Rotation=0.000|XOffset=0mil|YOffset=0mil|HoleType=Round|Shape=Relief|Width=10mil|Gap=10mil|Entries=4|*
%AMTHD82*
7,0,0,0.10331,0.08331,0.01000,45*
%
%ADD82THD82*%
%ADD83C,0.16598*%
%ADD84C,0.07150*%
G04:AMPARAMS|DCode=85|XSize=91.496mil|YSize=91.496mil|CornerRadius=0mil|HoleSize=0mil|Usage=FLASHONLY|Rotation=0.000|XOffset=0mil|YOffset=0mil|HoleType=Round|Shape=Relief|Width=10mil|Gap=10mil|Entries=4|*
%AMTHD85*
7,0,0,0.09150,0.07150,0.01000,45*
%
%ADD85THD85*%
%ADD86C,0.06756*%
%ADD87C,0.06953*%
%ADD88C,0.08300*%
%ADD89C,0.08331*%
%ADD90C,0.07937*%
%ADD91C,0.08331*%
G04:AMPARAMS|DCode=92|XSize=99.37mil|YSize=99.37mil|CornerRadius=0mil|HoleSize=0mil|Usage=FLASHONLY|Rotation=0.000|XOffset=0mil|YOffset=0mil|HoleType=Round|Shape=Relief|Width=10mil|Gap=10mil|Entries=4|*
%AMTHD92*
7,0,0,0.09937,0.07937,0.01000,45*
%
%ADD92THD92*%
G04:AMPARAMS|DCode=93|XSize=85.591mil|YSize=85.591mil|CornerRadius=0mil|HoleSize=0mil|Usage=FLASHONLY|Rotation=0.000|XOffset=0mil|YOffset=0mil|HoleType=Round|Shape=Relief|Width=10mil|Gap=10mil|Entries=4|*
%AMTHD93*
7,0,0,0.08559,0.06559,0.01000,45*
%
%ADD93THD93*%
G04:AMPARAMS|DCode=94|XSize=114.921mil|YSize=114.921mil|CornerRadius=0mil|HoleSize=0mil|Usage=FLASHONLY|Rotation=0.000|XOffset=0mil|YOffset=0mil|HoleType=Round|Shape=Relief|Width=10mil|Gap=10mil|Entries=4|*
%AMTHD94*
7,0,0,0.11492,0.09492,0.01000,45*
%
%ADD94THD94*%
G04:AMPARAMS|DCode=95|XSize=103.307mil|YSize=103.307mil|CornerRadius=0mil|HoleSize=0mil|Usage=FLASHONLY|Rotation=0.000|XOffset=0mil|YOffset=0mil|HoleType=Round|Shape=Relief|Width=10mil|Gap=10mil|Entries=4|*
%AMTHD95*
7,0,0,0.10331,0.08331,0.01000,45*
%
%ADD95THD95*%
G04:AMPARAMS|DCode=96|XSize=103mil|YSize=103mil|CornerRadius=0mil|HoleSize=0mil|Usage=FLASHONLY|Rotation=0.000|XOffset=0mil|YOffset=0mil|HoleType=Round|Shape=Relief|Width=10mil|Gap=10mil|Entries=4|*
%AMTHD96*
7,0,0,0.10300,0.08300,0.01000,45*
%
%ADD96THD96*%
%ADD97C,0.06559*%
%ADD98C,0.14600*%
%ADD99C,0.09492*%
%ADD100C,0.11874*%
%ADD101C,0.17976*%
%ADD102C,0.06800*%
G04:AMPARAMS|DCode=103|XSize=88mil|YSize=88mil|CornerRadius=0mil|HoleSize=0mil|Usage=FLASHONLY|Rotation=0.000|XOffset=0mil|YOffset=0mil|HoleType=Round|Shape=Relief|Width=10mil|Gap=10mil|Entries=4|*
%AMTHD103*
7,0,0,0.08800,0.06800,0.01000,45*
%
%ADD103THD103*%
D81*
X0Y0D02*
X474000D01*
Y330000D01*
X0D02*
X474000D01*
X0Y0D02*
Y330000D01*
D82*
X51000Y316500D02*
D03*
Y304000D02*
D03*
X135236Y304500D02*
D03*
X223500Y82000D02*
D03*
X259500D02*
D03*
X241500D02*
D03*
X313500Y52000D02*
D03*
Y22000D02*
D03*
Y37000D02*
D03*
Y67000D02*
D03*
X193000Y44000D02*
D03*
Y60000D02*
D03*
X92280Y309500D02*
D03*
X116500Y44000D02*
D03*
Y60000D02*
D03*
X72000Y18500D02*
D03*
D83*
X338000Y90500D02*
D03*
X178000D02*
D03*
D84*
X191500Y109000D02*
D03*
X241500D02*
D03*
X231500D02*
D03*
X251500D02*
D03*
X201500D02*
D03*
X221500D02*
D03*
X261500D02*
D03*
X211500D02*
D03*
X421500D02*
D03*
X401500D02*
D03*
X391500D02*
D03*
X381500D02*
D03*
X291500D02*
D03*
X311500D02*
D03*
X341500D02*
D03*
X271500D02*
D03*
X371500D02*
D03*
X321500D02*
D03*
X331500D02*
D03*
X301500D02*
D03*
X351500D02*
D03*
X361500D02*
D03*
X401500Y186000D02*
D03*
X231500Y126000D02*
D03*
X241500Y186000D02*
D03*
X221500Y126000D02*
D03*
X411500Y186000D02*
D03*
X191500Y126000D02*
D03*
X251500Y186000D02*
D03*
X241500Y176000D02*
D03*
Y166000D02*
D03*
Y136000D02*
D03*
X411500D02*
D03*
X241500Y146000D02*
D03*
X391500Y186000D02*
D03*
X381500D02*
D03*
X371500D02*
D03*
X361500D02*
D03*
X351500D02*
D03*
X321500D02*
D03*
X311500D02*
D03*
X301500D02*
D03*
X231500D02*
D03*
X221500D02*
D03*
X191500D02*
D03*
X201500Y126000D02*
D03*
X211500D02*
D03*
X241500D02*
D03*
X251500D02*
D03*
X261500D02*
D03*
X421500D02*
D03*
X401500D02*
D03*
X281500Y186000D02*
D03*
X391500Y126000D02*
D03*
X271500Y186000D02*
D03*
X381500Y126000D02*
D03*
X291500Y186000D02*
D03*
Y126000D02*
D03*
X311500D02*
D03*
X341500D02*
D03*
X271500D02*
D03*
X371500D02*
D03*
X321500D02*
D03*
X261500Y186000D02*
D03*
X201500D02*
D03*
X331500D02*
D03*
Y126000D02*
D03*
X301500D02*
D03*
X211500Y186000D02*
D03*
X351500Y126000D02*
D03*
X341500Y186000D02*
D03*
X361500Y126000D02*
D03*
X301500Y203000D02*
D03*
X311500D02*
D03*
X211500D02*
D03*
X201500D02*
D03*
X361500D02*
D03*
X381500D02*
D03*
X391500D02*
D03*
X401500D02*
D03*
X191500D02*
D03*
X351500D02*
D03*
X241500D02*
D03*
X221500D02*
D03*
X321500D02*
D03*
X371500D02*
D03*
X231500D02*
D03*
X251500D02*
D03*
X411500D02*
D03*
X281500D02*
D03*
X271500D02*
D03*
X291500D02*
D03*
X261500D02*
D03*
X331500D02*
D03*
X341500D02*
D03*
X211508Y224886D02*
D03*
X203634D02*
D03*
X219382D02*
D03*
X203634Y311500D02*
D03*
X211508D02*
D03*
X219382D02*
D03*
X227256D02*
D03*
X235130D02*
D03*
X243004D02*
D03*
X250878D02*
D03*
X258752D02*
D03*
X266626D02*
D03*
X274500D02*
D03*
X266626Y224886D02*
D03*
X258752D02*
D03*
X250878D02*
D03*
X243004D02*
D03*
X235130D02*
D03*
X227256D02*
D03*
D85*
X281500Y109000D02*
D03*
X411500D02*
D03*
X241500Y156000D02*
D03*
X281500Y126000D02*
D03*
X411500D02*
D03*
X421500Y186000D02*
D03*
Y203000D02*
D03*
X274500Y224886D02*
D03*
D86*
X362563Y135646D02*
D03*
X370437D02*
D03*
X362563Y143520D02*
D03*
Y151394D02*
D03*
X370437Y143520D02*
D03*
Y151394D02*
D03*
D87*
X396500Y173992D02*
D03*
X386500D02*
D03*
X376500D02*
D03*
X366500D02*
D03*
X356500D02*
D03*
D88*
X58252Y175287D02*
D03*
X42504Y204815D02*
D03*
X26756Y175287D02*
D03*
X58252Y224500D02*
D03*
X42504Y185130D02*
D03*
X58252Y122138D02*
D03*
X26756Y194972D02*
D03*
Y224500D02*
D03*
Y185130D02*
D03*
X58252Y135917D02*
D03*
Y165445D02*
D03*
Y185130D02*
D03*
Y155602D02*
D03*
X26756Y204815D02*
D03*
Y135917D02*
D03*
Y145760D02*
D03*
X42504Y135917D02*
D03*
Y145760D02*
D03*
X26756Y155602D02*
D03*
Y165445D02*
D03*
Y214657D02*
D03*
X42504Y122138D02*
D03*
X58252Y194972D02*
D03*
X74000Y204815D02*
D03*
X42504Y165445D02*
D03*
X74000Y194972D02*
D03*
Y165445D02*
D03*
Y135917D02*
D03*
Y122138D02*
D03*
Y224500D02*
D03*
X42504Y214657D02*
D03*
Y194972D02*
D03*
X74000Y175287D02*
D03*
X58252Y204815D02*
D03*
X74000Y145760D02*
D03*
X42504Y224500D02*
D03*
Y155602D02*
D03*
X74000Y185130D02*
D03*
Y155602D02*
D03*
X58252Y145760D02*
D03*
D89*
X241500Y42000D02*
D03*
X162000Y18500D02*
D03*
X296500Y22000D02*
D03*
Y37000D02*
D03*
Y67000D02*
D03*
Y52000D02*
D03*
X259500Y22000D02*
D03*
X241500D02*
D03*
X145079Y304500D02*
D03*
X87000Y18500D02*
D03*
X132000D02*
D03*
X278500Y37000D02*
D03*
Y52000D02*
D03*
Y22000D02*
D03*
Y67000D02*
D03*
X223500Y22000D02*
D03*
X57000Y18500D02*
D03*
X147000D02*
D03*
X178000Y60000D02*
D03*
X117000Y18500D02*
D03*
X259500Y42000D02*
D03*
X125000Y304500D02*
D03*
X78500Y309500D02*
D03*
X20500Y280500D02*
D03*
Y265500D02*
D03*
X259500Y62000D02*
D03*
X177000Y18500D02*
D03*
X192000D02*
D03*
X223500Y42000D02*
D03*
X241500Y62000D02*
D03*
X102000Y18500D02*
D03*
X223500Y62000D02*
D03*
X178000Y44000D02*
D03*
X101500D02*
D03*
Y60000D02*
D03*
D90*
X431000Y274000D02*
D03*
Y254000D02*
D03*
Y264000D02*
D03*
X159500Y39012D02*
D03*
Y56012D02*
D03*
X83000Y39012D02*
D03*
Y56012D02*
D03*
D91*
X296500Y82000D02*
D03*
X278500D02*
D03*
D92*
X431000Y284000D02*
D03*
X159500Y47988D02*
D03*
Y64988D02*
D03*
X83000Y47988D02*
D03*
Y64988D02*
D03*
D93*
X396417Y254193D02*
D03*
D94*
X369799Y52500D02*
D03*
D95*
X313500Y82000D02*
D03*
D96*
X74000Y214657D02*
D03*
X58252D02*
D03*
Y107571D02*
D03*
X42504D02*
D03*
X74000D02*
D03*
X42504Y175287D02*
D03*
X26756Y122138D02*
D03*
Y107571D02*
D03*
D97*
X336417Y284193D02*
D03*
Y254193D02*
D03*
X396417Y284193D02*
D03*
D98*
X38567Y91035D02*
D03*
Y241035D02*
D03*
D99*
X450468Y52500D02*
D03*
D100*
X342417Y312307D02*
D03*
Y225693D02*
D03*
X429032D02*
D03*
Y312307D02*
D03*
D101*
X455000Y20000D02*
D03*
Y310000D02*
D03*
X20000Y20000D02*
D03*
Y310000D02*
D03*
D102*
X397500Y153500D02*
D03*
Y162000D02*
D03*
X414500D02*
D03*
Y153500D02*
D03*
X425000Y148000D02*
D03*
X325000Y168000D02*
D03*
X275425Y171925D02*
D03*
X204500Y301500D02*
D03*
X127500Y205000D02*
D03*
X196000Y163500D02*
D03*
X412500Y43000D02*
D03*
X416000Y33500D02*
D03*
X371921Y41841D02*
D03*
X372000Y34000D02*
D03*
X263500Y135000D02*
D03*
X106500Y135500D02*
D03*
X171500Y123000D02*
D03*
X108000Y186000D02*
D03*
D103*
X184000Y155500D02*
D03*
X152500Y205000D02*
D03*
X32500Y69000D02*
D03*
X51500Y69500D02*
D03*
X97500Y95500D02*
D03*
X97000Y225500D02*
D03*
X130500Y107488D02*
D03*
X144500Y165500D02*
D03*
X234500Y294000D02*
D03*
Y273000D02*
D03*
X139500Y184000D02*
D03*
X116500Y205000D02*
D03*
X97000Y248000D02*
D03*
X84000Y259500D02*
D03*
X42000D02*
D03*
X63000D02*
D03*
M02*
